<svg xmlns="http://www.w3.org/2000/svg" xmlns:xlink="http://www.w3.org/1999/xlink" viewBox="0 0 306.81 64.24"><defs><style>.cls-1{fill:none;}.cls-2{isolation:isolate;}.cls-3{fill:#9c4dad;}.cls-4{fill:#7f42a0;}.cls-5{fill:#009a78;}.cls-6{fill:#007b5f;}.cls-7{fill:#00593f;}.cls-8{fill:#4f317a;}.cls-9{opacity:0.47;}.cls-10{clip-path:url(#clip-path);}.cls-11,.cls-12,.cls-13,.cls-14,.cls-15,.cls-16,.cls-17,.cls-18,.cls-19,.cls-20,.cls-21,.cls-22,.cls-23,.cls-24,.cls-25,.cls-26,.cls-27,.cls-28,.cls-29,.cls-30,.cls-31,.cls-32,.cls-33,.cls-34,.cls-35{mix-blend-mode:color-dodge;}.cls-11{fill:url(#linear-gradient);}.cls-12{fill:url(#linear-gradient-2);}.cls-13{fill:url(#linear-gradient-3);}.cls-14{fill:url(#linear-gradient-4);}.cls-15{fill:url(#linear-gradient-5);}.cls-16{fill:url(#linear-gradient-6);}.cls-17{fill:url(#linear-gradient-7);}.cls-18{fill:url(#linear-gradient-8);}.cls-19{fill:url(#linear-gradient-9);}.cls-20{fill:url(#linear-gradient-10);}.cls-21{fill:url(#linear-gradient-11);}.cls-22{fill:url(#linear-gradient-12);}.cls-23{fill:url(#linear-gradient-13);}.cls-24{fill:url(#linear-gradient-14);}.cls-25{fill:url(#linear-gradient-15);}.cls-26{fill:url(#linear-gradient-16);}.cls-27{fill:url(#linear-gradient-17);}.cls-28{fill:url(#linear-gradient-18);}.cls-29{fill:url(#linear-gradient-19);}.cls-30{fill:url(#linear-gradient-20);}.cls-31{fill:url(#linear-gradient-21);}.cls-32{fill:url(#linear-gradient-22);}.cls-33{fill:url(#linear-gradient-23);}.cls-34{fill:url(#linear-gradient-24);}.cls-35{fill:url(#linear-gradient-25);}.cls-36,.cls-37,.cls-38{mix-blend-mode:color-burn;}.cls-36{fill:url(#linear-gradient-26);}.cls-37{fill:url(#linear-gradient-27);}.cls-38{fill:url(#linear-gradient-28);}.cls-39{clip-path:url(#clip-path-2);}.cls-40{clip-path:url(#clip-path-3);}</style><clipPath id="clip-path"><path class="cls-1" d="M20.07,24.18,33.22,16.6a2.78,2.78,0,0,0,1.26-2.19l0-13.16c0-.8-.58-1.13-1.28-.72L20,8.1a2.81,2.81,0,0,0-1.26,2.19l0,13.16C18.8,24.26,19.37,24.58,20.07,24.18Z"/></clipPath><linearGradient id="linear-gradient" x1="-3215.32" y1="2199.37" x2="-3137.15" y2="2199.37" gradientTransform="translate(2205.93 3229.07) rotate(90.05)" gradientUnits="userSpaceOnUse"><stop offset="0" stop-color="#d4d4d4"/><stop offset="0.29" stop-color="#909196"/><stop offset="0.41" stop-color="#767881"/><stop offset="0.68" stop-color="#3d4152"/><stop offset="0.89" stop-color="#191e34"/><stop offset="1" stop-color="#0b1129"/></linearGradient><linearGradient id="linear-gradient-2" x1="-3217.33" y1="2171.32" x2="-3136.53" y2="2171.32" xlink:href="#linear-gradient"/><linearGradient id="linear-gradient-3" x1="-3231.3" y1="2179.24" x2="-3137.53" y2="2179.24" xlink:href="#linear-gradient"/><linearGradient id="linear-gradient-4" x1="-3222.54" y1="2188.27" x2="-3137.61" y2="2188.27" xlink:href="#linear-gradient"/><linearGradient id="linear-gradient-5" x1="-3192.75" y1="2187.58" x2="-3155.1" y2="2187.58" xlink:href="#linear-gradient"/><linearGradient id="linear-gradient-6" x1="-3168.34" y1="2190.19" x2="-3158.1" y2="2190.19" xlink:href="#linear-gradient"/><linearGradient id="linear-gradient-7" x1="-3231.02" y1="2196.42" x2="-3178.06" y2="2196.42" xlink:href="#linear-gradient"/><linearGradient id="linear-gradient-8" x1="-3215.61" y1="2190.4" x2="-3180.13" y2="2190.4" xlink:href="#linear-gradient"/><linearGradient id="linear-gradient-9" x1="-3225.77" y1="2195.79" x2="-3196.68" y2="2195.79" xlink:href="#linear-gradient"/><linearGradient id="linear-gradient-10" x1="-3217" y1="2188.51" x2="-3187.11" y2="2188.51" xlink:href="#linear-gradient"/><linearGradient id="linear-gradient-11" x1="-3225.95" y1="2192.04" x2="-3185.51" y2="2192.04" xlink:href="#linear-gradient"/><linearGradient id="linear-gradient-12" x1="-3223.84" y1="2201.1" x2="-3183.44" y2="2201.1" xlink:href="#linear-gradient"/><linearGradient id="linear-gradient-13" x1="-3227.61" y1="2175.97" x2="-3148.58" y2="2175.97" xlink:href="#linear-gradient"/><linearGradient id="linear-gradient-14" x1="-3227.09" y1="2178.58" x2="-3157.37" y2="2178.58" xlink:href="#linear-gradient"/><linearGradient id="linear-gradient-15" x1="-3180.75" y1="2178.72" x2="-3158.51" y2="2178.72" xlink:href="#linear-gradient"/><linearGradient id="linear-gradient-16" x1="-3175.73" y1="2177.8" x2="-3159.65" y2="2177.8" xlink:href="#linear-gradient"/><linearGradient id="linear-gradient-17" x1="-3224.84" y1="2186.76" x2="-3203.82" y2="2186.76" xlink:href="#linear-gradient"/><linearGradient id="linear-gradient-18" x1="-3234.35" y1="2178.17" x2="-3205.06" y2="2178.17" xlink:href="#linear-gradient"/><linearGradient id="linear-gradient-19" x1="-3227.55" y1="2184.86" x2="-3206.92" y2="2184.86" xlink:href="#linear-gradient"/><linearGradient id="linear-gradient-20" x1="-3228.22" y1="2188.1" x2="-3217.99" y2="2188.1" xlink:href="#linear-gradient"/><linearGradient id="linear-gradient-21" x1="-3232.43" y1="2185.17" x2="-3208.88" y2="2185.17" xlink:href="#linear-gradient"/><linearGradient id="linear-gradient-22" x1="-3218.81" y1="2180.42" x2="-3212.19" y2="2180.42" xlink:href="#linear-gradient"/><linearGradient id="linear-gradient-23" x1="-3231.02" y1="2168.65" x2="-3209.71" y2="2168.65" xlink:href="#linear-gradient"/><linearGradient id="linear-gradient-24" x1="-3234.22" y1="2170.24" x2="-3210.85" y2="2170.24" xlink:href="#linear-gradient"/><linearGradient id="linear-gradient-25" x1="-3228.95" y1="2170.46" x2="-3219.95" y2="2170.46" xlink:href="#linear-gradient"/><linearGradient id="linear-gradient-26" x1="-3210.86" y1="2182.81" x2="-3129.96" y2="2182.81" gradientTransform="translate(2205.93 3229.07) rotate(90.05)" gradientUnits="userSpaceOnUse"><stop offset="0" stop-color="#c7c7c7"/><stop offset="0.55" stop-color="#e8e8e8"/><stop offset="1" stop-color="#fff"/></linearGradient><linearGradient id="linear-gradient-27" x1="-3225.57" y1="2177.74" x2="-3145.43" y2="2177.74" xlink:href="#linear-gradient-26"/><linearGradient id="linear-gradient-28" x1="-3224.33" y1="2188.98" x2="-3129.11" y2="2188.98" xlink:href="#linear-gradient-26"/><clipPath id="clip-path-2"><path class="cls-1" d="M33.17,18.4,20,26a2.82,2.82,0,0,0-1.27,2.19l0,13.16c0,.81.57,1.13,1.27.73L33.2,34.48a2.8,2.8,0,0,0,1.27-2.19l0-13.16C34.44,18.32,33.87,18,33.17,18.4Z"/></clipPath><clipPath id="clip-path-3"><path class="cls-1" d="M33.15,36.28,20,43.86a2.76,2.76,0,0,0-1.27,2.19l0,13.16a1,1,0,0,0,0,.24v4.11a.87.87,0,1,0,1.73,0v-3.9l12.67-7.3a2.78,2.78,0,0,0,1.26-2.19l0-13.16C34.43,36.2,33.86,35.88,33.15,36.28Z"/></clipPath></defs><title>Manual Agrodata Ai</title><g class="cls-2"><g id="Capa_1" data-name="Capa 1"><path class="cls-3" d="M33.18.53c.7-.41,1.27-.08,1.28.72l0,13.16a2.78,2.78,0,0,1-1.26,2.19L20.07,24.18c-.7.4-1.27.08-1.28-.73l0-13.16A2.81,2.81,0,0,1,20,8.1Z"/><path class="cls-4" d="M33.17,18.4c.7-.4,1.27-.08,1.27.73l0,13.16a2.8,2.8,0,0,1-1.27,2.19L20.05,42.06c-.7.4-1.27.08-1.27-.73l0-13.16A2.82,2.82,0,0,1,20,26Z"/><path class="cls-5" d="M2.53.5c-.7-.4-1.27-.08-1.27.73L1.21,14.39a2.81,2.81,0,0,0,1.26,2.19l13.14,7.6c.7.4,1.27.08,1.28-.73l0-13.16A2.78,2.78,0,0,0,15.67,8.1Z"/><path class="cls-6" d="M2.52,18.38c-.7-.4-1.27-.08-1.27.72L1.2,32.26a2.75,2.75,0,0,0,1.26,2.19l13.14,7.6c.7.41,1.27.08,1.27-.72l.05-13.16A2.78,2.78,0,0,0,15.66,26Z"/><path class="cls-7" d="M2.5,36.26c-.7-.41-1.27-.08-1.27.72L1.18,50.14a2.79,2.79,0,0,0,1.27,2.19l13.13,7.6c.7.41,1.27.08,1.28-.72l0-13.16a2.75,2.75,0,0,0-1.26-2.19Z"/><path class="cls-8" d="M34.43,37c0-.81-.57-1.13-1.28-.73L20,43.86a2.76,2.76,0,0,0-1.27,2.19l0,13.16a1,1,0,0,0,0,.24v4.11a.87.87,0,1,0,1.73,0v-3.9l12.67-7.3a2.78,2.78,0,0,0,1.26-2.19Z"/><g class="cls-9"><g class="cls-10"><path class="cls-11" d="M16,89.84a.36.36,0,0,0-.25-.34V85.07l1.81-1.8V67.84L14.6,64.9V59.69l3.57-3.57v-6l-5.29-5.3V31.14L9.07,27.3V25.76L6.42,23.1V18.31L.65,12.53a.35.35,0,0,0-.55-.42.37.37,0,0,0,0,.5.35.35,0,0,0,.42.05l5.72,5.72v4.8l2.65,2.65v1.55l3.84,3.84,0,13.63L18,50.15V56l-3.57,3.57V65l2.94,2.94V83.19L15.53,85v4.5a.35.35,0,0,0,.09.69A.35.35,0,0,0,16,89.84Z"/><path class="cls-12" d="M33.05,90.47a.35.35,0,0,0-.26-.34V83l-1.5-1.5v-10l1.94-1.94V65l-.8-.8v-7l3.72-3.72v-7.2L33,43.1V36.55l4.2-4.2V28.09l-3.36-3.37V22.31l5-5V14.48l3.81-3.8a.35.35,0,0,0,.42,0,.37.37,0,0,0,0-.5.35.35,0,0,0-.5,0,.37.37,0,0,0-.06.42L38.63,14.4v2.86l-5,5V24.8L37,28.16v4.11l-4.2,4.2v6.7L36,46.39v7.06l-3.72,3.71v7.13l.8.8v4.36l-1.95,1.94v10.2l1.5,1.5v7a.35.35,0,1,0,.44.34Z"/><path class="cls-13" d="M22.92,89.46a.35.35,0,0,0-.26-.34V75.41l4.1-4.1v-5.5l-3.19-3.19v-8l3.54-3.54V45.23l-1.35-1.34V38.77l2.09-2.09V32.54l-2.26-2.26V25.92l3-3V17.39l3.94-3.94V-.25l3.05-3a.35.35,0,0,0,.42-.05.35.35,0,0,0,0-.5.37.37,0,0,0-.5,0,.35.35,0,0,0-.05.42l-3.1,3.1V13.38l-3.94,3.93v5.51l-3,3v4.51l2.26,2.26v4l-2.1,2.09V44L27,45.31V51L23.4,54.54v8.15l3.19,3.2v5.35l-4.1,4.09V89.12a.35.35,0,0,0,.1.69A.35.35,0,0,0,22.92,89.46Z"/><path class="cls-14" d="M19.46,83.15l-2.08,2.08V89a.35.35,0,0,0-.26.34.35.35,0,0,0,.35.35.35.35,0,0,0,.09-.69V85.31l2.07-2.08V74.69l4.43-4.42v-3.5L21.29,64V53.61l3.11-3.1V45.92l-2.49-2.49V35.69l2.3-2.29V23.92l-5.5-5.51v-11L16.62,5.32a.35.35,0,0,0-.05-.42.37.37,0,0,0-.5,0,.35.35,0,0,0,0,.5.37.37,0,0,0,.42.06l2.07,2.07v11L24.06,24v9.32l-2.3,2.29v7.9L24.23,46v4.43l-3.1,3.11V64.06l2.78,2.79v3.34l-4.42,4.42Z"/><path class="cls-15" d="M19.27,71.64a.35.35,0,1,0,.55.08l2.39-2.38V67l-2.76-2.77V54l3.17-3.17V46.66l-3.07-3.07V35.28a.35.35,0,0,0-.1-.69.35.35,0,0,0-.35.35.35.35,0,0,0,.26.34v8.38l3.07,3.08v4L19.27,53.9V64.34L22,67.11v2.15l-2.33,2.33A.35.35,0,0,0,19.27,71.64Z"/><path class="cls-16" d="M19.26,68.56V66.41L17.4,64.55V59.69a.35.35,0,0,0,.25-.34.34.34,0,0,0-.35-.35.35.35,0,0,0-.09.69v4.94l1.86,1.86v2.07a.35.35,0,0,0,.09.68.35.35,0,0,0,.35-.35A.34.34,0,0,0,19.26,68.56Z"/><path class="cls-17" d="M7.13,6.39V11l3.62,3.62v9l4.45,4.45,0,15.83L20,48.76a.35.35,0,1,0,.13-.13l-4.76-4.77V28l-4.44-4.46v-9L7.31,11V6.31L3.9,2.89V-3a.35.35,0,0,0,.25-.34.34.34,0,0,0-.35-.35.35.35,0,0,0-.35.35A.35.35,0,0,0,3.72-3V3Z"/><path class="cls-18" d="M16.36,33.72v8.72l4.24,4.25a.35.35,0,0,0,.55.42.35.35,0,0,0,0-.5.35.35,0,0,0-.42,0l-4.19-4.2V33.8l2.61-2.61V26L15.3,22.1V12.42a.35.35,0,1,0-.18,0v9.76L19,26.05v5.07Z"/><path class="cls-19" d="M10.28,8.51l3,3V23.35l4,4V30a.36.36,0,0,0-.25.34.35.35,0,0,0,.35.35.35.35,0,0,0,.09-.69V27.31l-4-4V11.38l-2.94-3V4.24L8.32,2.09a.35.35,0,0,0-.06-.42.35.35,0,0,0-.49.49.35.35,0,0,0,.42.06l2.09,2.1Z"/><path class="cls-20" d="M17.52,11v8.46l5,5v7.47L20.4,34v5.55a.36.36,0,0,0-.26.34.36.36,0,0,0,.71,0,.36.36,0,0,0-.26-.34V34.06L22.65,32V24.37l-5-5V11a.35.35,0,0,0-.09-.68.35.35,0,0,0-.35.35A.34.34,0,0,0,17.52,11Z"/><path class="cls-21" d="M11.81,1.74a.34.34,0,0,0,.26.33V5.48l4.31,4.33v11l4.5,4.5v6L18.17,34v7.11a.34.34,0,0,0-.26.33.35.35,0,0,0,.35.35.35.35,0,0,0,.35-.35.34.34,0,0,0-.26-.33v-7l2.69-2.68V25.25l-4.49-4.51v-11L12.25,5.41V2.07a.35.35,0,1,0-.45-.33Z"/><path class="cls-22" d="M4.56,13.8l3.75,3.76V23.4L13.94,29l0,14.17a.36.36,0,0,0-.25.34.35.35,0,0,0,.35.35.35.35,0,0,0,.09-.69V29L8.49,23.32V17.48L4.75,13.73v-6L1,4A.35.35,0,0,0,1,3.59a.35.35,0,0,0-.5,0,.34.34,0,0,0,0,.49.34.34,0,0,0,.42.06L4.57,7.83Z"/><path class="cls-23" d="M30.27,78.42a.35.35,0,0,0-.26-.34V70.22l1.6-1.6V56.36l3.13-3.12v-6l-3.92-3.92V34.75l3.53-3.53V27.43l-2.58-2.58V21.09l3.32-3.31V.44A.35.35,0,0,0,35.4.1a.35.35,0,0,0-.35-.35A.35.35,0,0,0,34.7.1.35.35,0,0,0,35,.44V17.71L31.63,21v3.9l2.58,2.59v3.64l-3.53,3.52v8.78l3.91,3.92v5.79l-3.13,3.12V68.54l-1.61,1.6v7.94a.35.35,0,0,0-.26.34.35.35,0,0,0,.35.35A.35.35,0,0,0,30.27,78.42Z"/><path class="cls-24" d="M27.74,40.79v-1.6l1.72-1.72V30.94L27.9,29.37V25.85L29.75,24V18.3L34.1,14V1a.34.34,0,0,0,.26-.33A.35.35,0,0,0,34,.27a.34.34,0,0,0-.35.35.34.34,0,0,0,.25.33V13.89l-4.34,4.33v5.7l-1.86,1.85v3.68L29.28,31v6.37l-1.73,1.72v1.76L29,42.29v8.77L25.4,54.63V61L28,63.6v5.69a.34.34,0,0,0-.26.33.35.35,0,0,0,.35.35.35.35,0,0,0,.1-.68V63.52l-2.58-2.59V54.7l3.57-3.56V42.22Z"/><path class="cls-25" d="M31.87,47.29a.35.35,0,1,0-.18,0v2.87l-4.37,4.36V60l1.8,1.81v6.31a.35.35,0,0,0-.26.34.35.35,0,0,0,.35.35.35.35,0,0,0,.35-.35.36.36,0,0,0-.25-.34V61.77L27.49,60V54.6l4.37-4.37Z"/><path class="cls-26" d="M32.58,52.22a.37.37,0,0,0,0-.5.35.35,0,0,0-.5,0,.37.37,0,0,0-.06.42L28.6,55.56v3.59l1.76,1.76V67a.35.35,0,0,0,.09.69.35.35,0,0,0,.35-.35.33.33,0,0,0-.25-.34V60.84l-1.75-1.76V55.64l3.37-3.37A.35.35,0,0,0,32.58,52.22Z"/><path class="cls-27" d="M21.43,6.53,17.94,3a.35.35,0,0,0-.06-.42.34.34,0,0,0-.49,0,.35.35,0,0,0,0,.49.35.35,0,0,0,.42.06L21.25,6.6V18.76L25.48,23a.35.35,0,0,0,.05.42.36.36,0,0,0,.5,0,.35.35,0,0,0,0-.5.35.35,0,0,0-.42-.05l-4.19-4.2Z"/><path class="cls-28" d="M30-3.19V.48L28.33,2.19v3.9l2,2V13l-3.42,3.41V21.6a.35.35,0,0,0,.09.69.35.35,0,0,0,.35-.35.36.36,0,0,0-.25-.34V16.43L30.48,13V8l-2-2V2.27L30.23.56V-3.11l3.24-3.24a.35.35,0,0,0,.42-.05.35.35,0,0,0,0-.5.37.37,0,0,0-.5,0,.35.35,0,0,0,0,.42Z"/><path class="cls-29" d="M23.49,13.43,26,10.93V7.87L23.64,5.51V2.08L21.89.32a.35.35,0,0,0-.06-.42.34.34,0,0,0-.49,0,.35.35,0,0,0,0,.5.35.35,0,0,0,.42,0l1.7,1.71V5.58L25.82,8v2.9l-2.51,2.5V18l1.87,1.87a.35.35,0,1,0,.13-.13L23.49,18Z"/><path class="cls-30" d="M22.33,8.67a.35.35,0,0,0,.09.69A.35.35,0,0,0,22.77,9a.36.36,0,0,0-.25-.34V3.53L18.64-.36a.35.35,0,0,0-.06-.42.34.34,0,0,0-.49,0,.34.34,0,0,0,0,.49.33.33,0,0,0,.42.06L22.33,3.6Z"/><path class="cls-31" d="M25.15.71v3.7l1.78,1.78v7.22l-1.5,1.5v2.86a.36.36,0,0,0-.26.34.34.34,0,0,0,.35.35.35.35,0,0,0,.35-.35.34.34,0,0,0-.26-.33V15l1.5-1.49V6.12L25.34,4.33V.63L20.15-4.56a.35.35,0,0,0,0-.42.35.35,0,0,0-.5,0,.34.34,0,0,0,0,.49.34.34,0,0,0,.42.06Z"/><path class="cls-32" d="M27,14.56a.35.35,0,1,0,.55.07L29,13.18v-4a.34.34,0,0,0,.26-.33.35.35,0,0,0-.35-.35.35.35,0,0,0-.1.68V13.1l-1.4,1.4A.34.34,0,0,0,27,14.56Z"/><path class="cls-33" d="M42.1-3.31a.35.35,0,0,0,.25.34V1.84l-1,1V8.51l-4.24,4.23V17a.34.34,0,0,0-.25.33.35.35,0,0,0,.35.36.36.36,0,0,0,.35-.36A.34.34,0,0,0,37.3,17V12.82l4.25-4.23V2.9l1-1V-3a.35.35,0,0,0,.26-.34.35.35,0,0,0-.35-.35A.35.35,0,0,0,42.1-3.31Z"/><path class="cls-34" d="M40.16-6.52a.35.35,0,0,0,.26.34V1.65l-.85.86v4.7l-3.67,3.67v4.94a.35.35,0,0,0,.1.69.35.35,0,0,0,.35-.35.35.35,0,0,0-.26-.34V11l3.68-3.67V2.58l.86-.85V-6.18a.35.35,0,0,0,.26-.34.35.35,0,0,0-.35-.35A.35.35,0,0,0,40.16-6.52Z"/><path class="cls-35" d="M39.5-1a.37.37,0,0,0,0-.5.35.35,0,0,0-.5,0,.37.37,0,0,0-.06.42L36.71,1.16V6.72a.34.34,0,0,0-.26.33.35.35,0,1,0,.7,0,.34.34,0,0,0-.26-.33V1.24L39.08-.94A.35.35,0,0,0,39.5-1Z"/><path class="cls-36" d="M27.7,74.76V68.21h0l0-15.34-3.24-3.24v-10l.81-.81a.48.48,0,0,0,.58-.76.48.48,0,0,0-.68,0,.49.49,0,0,0-.08.58l-.88.88v9.87L22.4,47.53a.48.48,0,0,0-.76-.58.5.5,0,0,0,0,.68.49.49,0,0,0,.58.08L27.46,53v8.5l-2.3-2.3V55.62a.48.48,0,0,0,.35-.46.48.48,0,1,0-1,0,.48.48,0,0,0,.35.46v3.65l2.55,2.56v6.1L21.6,62.08V51.28l-3.72-3.73V43.79l3.37-3.36V35.29h0l1.79-1.78V26.64a.49.49,0,1,0-.25,0V33.4l-1.53,1.53V24.52a.48.48,0,0,0-.13-.94.48.48,0,0,0-.48.48.47.47,0,0,0,.35.46v15.8l-3.11,3.11,0-26a.47.47,0,0,0,.35-.46.48.48,0,0,0-.48-.48.49.49,0,0,0-.48.48.47.47,0,0,0,.35.46l0,30.23,3.73,3.74v10.8l3.28,3.29v3.39l-1.28,1.27a.49.49,0,0,0-.58.08.5.5,0,0,0,0,.68.48.48,0,0,0,.68,0,.47.47,0,0,0,.08-.58L24.89,69V65.73l2.56,2.57v6.57L32,79.41v4.27l1.39,1.38V96.44a.48.48,0,0,0,.12,1,.48.48,0,0,0,.13-1V85l-1.38-1.39V79.31Z"/><path class="cls-37" d="M24.93,22.18l-2.09-2.1V8a.48.48,0,1,0-.26,0V20.19l2.33,2.33h0V33.39l4.43,4.44v5.94l-2.16,2.17a.49.49,0,0,0-.58.07.48.48,0,0,0,0,.68.48.48,0,0,0,.76-.57l2.24-2.24V38.09l3.6,3.6,0,21.81,5.73,5.74V81.92h.26V69.14l-5.73-5.75V53.58h0l2.4-2.39V38.46l-7.93-7.94V27.71l2.88-2.87V6.42l2.51-2.5a.47.47,0,0,0,.57-.08.48.48,0,0,0-.68-.68.5.5,0,0,0-.08.58L30.57,6.32V24.73l-2.62,2.61V19.52a.5.5,0,0,0,.36-.46.5.5,0,0,0-.49-.49.49.49,0,0,0-.48.49.48.48,0,0,0,.35.46V30.63l7.92,7.93V51.08l-2.15,2.15V41.59l-8.29-8.31,0-30.56a.48.48,0,0,0-.13-1,.49.49,0,0,0-.48.49.48.48,0,0,0,.35.46Z"/><path class="cls-38" d="M29.84,98.1a.49.49,0,0,0,.08-.58l2.3-2.3V90.16l-2.61-2.61V82.7L25.3,78.36V74.61a.48.48,0,1,0-.26,0v3.86l4.33,4.33v4.49l-7-7v-7.2l-3-3V59.16L17.1,56.89V50.65l-.79-.79a.49.49,0,0,0-.08-.58.48.48,0,0,0-.68.68.49.49,0,0,0,.58.08l.71.72v3.31l-4.41-4.41V46.51l2.73-2.71V38.41a.49.49,0,0,0,.35-.47.48.48,0,0,0-.48-.48.49.49,0,0,0-.48.48.5.5,0,0,0,.35.47v5.28l-2.47,2.46V37.71l2.79-2.79,0-20.16,1.53-1.53a.47.47,0,0,0,.57-.07.49.49,0,0,0,0-.69.5.5,0,0,0-.68,0,.49.49,0,0,0-.07.58L15,14.65V30l-4.21-4.22V6.89L7.61,3.72a.49.49,0,0,0-.07-.58.48.48,0,0,0-.68,0,.48.48,0,0,0,.57.76L10.53,7l0,18.89L15,30.37v4.45l-2.8,2.78V49.76l4.66,4.68V57l2.27,2.27V69.8l-4.38-4.39V55.82a.49.49,0,1,0-.25,0v9.7l7.66,7.68v7.2L32,90.26v4.85l-2.23,2.23a.48.48,0,0,0-.58.07.49.49,0,0,0,0,.69A.5.5,0,0,0,29.84,98.1Z"/></g><g class="cls-39"><path class="cls-11" d="M16,89.84a.36.36,0,0,0-.25-.34V85.07l1.81-1.8V67.84L14.6,64.9V59.69l3.57-3.57v-6l-5.29-5.3V31.14L9.07,27.3V25.76L6.42,23.1V18.31L.65,12.53a.35.35,0,0,0-.55-.42.37.37,0,0,0,0,.5.35.35,0,0,0,.42.05l5.72,5.72v4.8l2.65,2.65v1.55l3.84,3.84,0,13.63L18,50.15V56l-3.57,3.57V65l2.94,2.94V83.19L15.53,85v4.5a.35.35,0,0,0,.09.69A.35.35,0,0,0,16,89.84Z"/><path class="cls-12" d="M33.05,90.47a.35.35,0,0,0-.26-.34V83l-1.5-1.5v-10l1.94-1.94V65l-.8-.8v-7l3.72-3.72v-7.2L33,43.1V36.55l4.2-4.2V28.09l-3.36-3.37V22.31l5-5V14.48l3.81-3.8a.35.35,0,0,0,.42,0,.37.37,0,0,0,0-.5.35.35,0,0,0-.5,0,.37.37,0,0,0-.06.42L38.63,14.4v2.86l-5,5V24.8L37,28.16v4.11l-4.2,4.2v6.7L36,46.39v7.06l-3.72,3.71v7.13l.8.8v4.36l-1.95,1.94v10.2l1.5,1.5v7a.35.35,0,1,0,.44.34Z"/><path class="cls-13" d="M22.92,89.46a.35.35,0,0,0-.26-.34V75.41l4.1-4.1v-5.5l-3.19-3.19v-8l3.54-3.54V45.23l-1.35-1.34V38.77l2.09-2.09V32.54l-2.26-2.26V25.92l3-3V17.39l3.94-3.94V-.25l3.05-3a.35.35,0,0,0,.42-.05.35.35,0,0,0,0-.5.37.37,0,0,0-.5,0,.35.35,0,0,0-.05.42l-3.1,3.1V13.38l-3.94,3.93v5.51l-3,3v4.51l2.26,2.26v4l-2.1,2.09V44L27,45.31V51L23.4,54.54v8.15l3.19,3.2v5.35l-4.1,4.09V89.12a.35.35,0,0,0,.1.69A.35.35,0,0,0,22.92,89.46Z"/><path class="cls-14" d="M19.46,83.15l-2.08,2.08V89a.35.35,0,0,0-.26.34.35.35,0,0,0,.35.35.35.35,0,0,0,.09-.69V85.31l2.07-2.08V74.69l4.43-4.42v-3.5L21.29,64V53.61l3.11-3.1V45.92l-2.49-2.49V35.69l2.3-2.29V23.92l-5.5-5.51v-11L16.62,5.32a.35.35,0,0,0-.05-.42.37.37,0,0,0-.5,0,.35.35,0,0,0,0,.5.37.37,0,0,0,.42.06l2.07,2.07v11L24.06,24v9.32l-2.3,2.29v7.9L24.23,46v4.43l-3.1,3.11V64.06l2.78,2.79v3.34l-4.42,4.42Z"/><path class="cls-15" d="M19.27,71.64a.35.35,0,1,0,.55.08l2.39-2.38V67l-2.76-2.77V54l3.17-3.17V46.66l-3.07-3.07V35.28a.35.35,0,0,0-.1-.69.35.35,0,0,0-.35.35.35.35,0,0,0,.26.34v8.38l3.07,3.08v4L19.27,53.9V64.34L22,67.11v2.15l-2.33,2.33A.35.35,0,0,0,19.27,71.64Z"/><path class="cls-16" d="M19.26,68.56V66.41L17.4,64.55V59.69a.35.35,0,0,0,.25-.34.34.34,0,0,0-.35-.35.35.35,0,0,0-.09.69v4.94l1.86,1.86v2.07a.35.35,0,0,0,.09.68.35.35,0,0,0,.35-.35A.34.34,0,0,0,19.26,68.56Z"/><path class="cls-17" d="M7.13,6.39V11l3.62,3.62v9l4.45,4.45,0,15.83L20,48.76a.35.35,0,1,0,.13-.13l-4.76-4.77V28l-4.44-4.46v-9L7.31,11V6.31L3.9,2.89V-3a.35.35,0,0,0,.25-.34.34.34,0,0,0-.35-.35.35.35,0,0,0-.35.35A.35.35,0,0,0,3.72-3V3Z"/><path class="cls-18" d="M16.36,33.72v8.72l4.24,4.25a.35.35,0,0,0,.55.42.35.35,0,0,0,0-.5.35.35,0,0,0-.42,0l-4.19-4.2V33.8l2.61-2.61V26L15.3,22.1V12.42a.35.35,0,1,0-.18,0v9.76L19,26.05v5.07Z"/><path class="cls-19" d="M10.28,8.51l3,3V23.35l4,4V30a.36.36,0,0,0-.25.34.35.35,0,0,0,.35.35.35.35,0,0,0,.09-.69V27.31l-4-4V11.38l-2.94-3V4.24L8.32,2.09a.35.35,0,0,0-.06-.42.35.35,0,0,0-.49.49.35.35,0,0,0,.42.06l2.09,2.1Z"/><path class="cls-20" d="M17.52,11v8.46l5,5v7.47L20.4,34v5.55a.36.36,0,0,0-.26.34.36.36,0,0,0,.71,0,.36.36,0,0,0-.26-.34V34.06L22.65,32V24.37l-5-5V11a.35.35,0,0,0-.09-.68.35.35,0,0,0-.35.35A.34.34,0,0,0,17.52,11Z"/><path class="cls-21" d="M11.81,1.74a.34.34,0,0,0,.26.33V5.48l4.31,4.33v11l4.5,4.5v6L18.17,34v7.11a.34.34,0,0,0-.26.33.35.35,0,0,0,.35.35.35.35,0,0,0,.35-.35.34.34,0,0,0-.26-.33v-7l2.69-2.68V25.25l-4.49-4.51v-11L12.25,5.41V2.07a.35.35,0,1,0-.45-.33Z"/><path class="cls-22" d="M4.56,13.8l3.75,3.76V23.4L13.94,29l0,14.17a.36.36,0,0,0-.25.34.35.35,0,0,0,.35.35.35.35,0,0,0,.09-.69V29L8.49,23.32V17.48L4.75,13.73v-6L1,4A.35.35,0,0,0,1,3.59a.35.35,0,0,0-.5,0,.34.34,0,0,0,0,.49.34.34,0,0,0,.42.06L4.57,7.83Z"/><path class="cls-23" d="M30.27,78.42a.35.35,0,0,0-.26-.34V70.22l1.6-1.6V56.36l3.13-3.12v-6l-3.92-3.92V34.75l3.53-3.53V27.43l-2.58-2.58V21.09l3.32-3.31V.44A.35.35,0,0,0,35.4.1a.35.35,0,0,0-.35-.35A.35.35,0,0,0,34.7.1.35.35,0,0,0,35,.44V17.71L31.63,21v3.9l2.58,2.59v3.64l-3.53,3.52v8.78l3.91,3.92v5.79l-3.13,3.12V68.54l-1.61,1.6v7.94a.35.35,0,0,0-.26.34.35.35,0,0,0,.35.35A.35.35,0,0,0,30.27,78.42Z"/><path class="cls-24" d="M27.74,40.79v-1.6l1.72-1.72V30.94L27.9,29.37V25.85L29.75,24V18.3L34.1,14V1a.34.34,0,0,0,.26-.33A.35.35,0,0,0,34,.27a.34.34,0,0,0-.35.35.34.34,0,0,0,.25.33V13.89l-4.34,4.33v5.7l-1.86,1.85v3.68L29.28,31v6.37l-1.73,1.72v1.76L29,42.29v8.77L25.4,54.63V61L28,63.6v5.69a.34.34,0,0,0-.26.33.35.35,0,0,0,.35.35.35.35,0,0,0,.1-.68V63.52l-2.58-2.59V54.7l3.57-3.56V42.22Z"/><path class="cls-25" d="M31.87,47.29a.35.35,0,1,0-.18,0v2.87l-4.37,4.36V60l1.8,1.81v6.31a.35.35,0,0,0-.26.34.35.35,0,0,0,.35.35.35.35,0,0,0,.35-.35.36.36,0,0,0-.25-.34V61.77L27.49,60V54.6l4.37-4.37Z"/><path class="cls-26" d="M32.58,52.22a.37.37,0,0,0,0-.5.35.35,0,0,0-.5,0,.37.37,0,0,0-.06.42L28.6,55.56v3.59l1.76,1.76V67a.35.35,0,0,0,.09.69.35.35,0,0,0,.35-.35.33.33,0,0,0-.25-.34V60.84l-1.75-1.76V55.64l3.37-3.37A.35.35,0,0,0,32.58,52.22Z"/><path class="cls-27" d="M21.43,6.53,17.94,3a.35.35,0,0,0-.06-.42.34.34,0,0,0-.49,0,.35.35,0,0,0,0,.49.35.35,0,0,0,.42.06L21.25,6.6V18.76L25.48,23a.35.35,0,0,0,.05.42.36.36,0,0,0,.5,0,.35.35,0,0,0,0-.5.35.35,0,0,0-.42-.05l-4.19-4.2Z"/><path class="cls-28" d="M30-3.19V.48L28.33,2.19v3.9l2,2V13l-3.42,3.41V21.6a.35.35,0,0,0,.09.69.35.35,0,0,0,.35-.35.36.36,0,0,0-.25-.34V16.43L30.48,13V8l-2-2V2.27L30.23.56V-3.11l3.24-3.24a.35.35,0,0,0,.42-.05.35.35,0,0,0,0-.5.37.37,0,0,0-.5,0,.35.35,0,0,0,0,.42Z"/><path class="cls-29" d="M23.49,13.43,26,10.93V7.87L23.64,5.51V2.08L21.89.32a.35.35,0,0,0-.06-.42.34.34,0,0,0-.49,0,.35.35,0,0,0,0,.5.35.35,0,0,0,.42,0l1.7,1.71V5.58L25.82,8v2.9l-2.51,2.5V18l1.87,1.87a.35.35,0,1,0,.13-.13L23.49,18Z"/><path class="cls-30" d="M22.33,8.67a.35.35,0,0,0,.09.69A.35.35,0,0,0,22.77,9a.36.36,0,0,0-.25-.34V3.53L18.64-.36a.35.35,0,0,0-.06-.42.34.34,0,0,0-.49,0,.34.34,0,0,0,0,.49.33.33,0,0,0,.42.06L22.33,3.6Z"/><path class="cls-31" d="M25.15.71v3.7l1.78,1.78v7.22l-1.5,1.5v2.86a.36.36,0,0,0-.26.34.34.34,0,0,0,.35.35.35.35,0,0,0,.35-.35.34.34,0,0,0-.26-.33V15l1.5-1.49V6.12L25.34,4.33V.63L20.15-4.56a.35.35,0,0,0,0-.42.35.35,0,0,0-.5,0,.34.34,0,0,0,0,.49.34.34,0,0,0,.42.06Z"/><path class="cls-32" d="M27,14.56a.35.35,0,1,0,.55.07L29,13.18v-4a.34.34,0,0,0,.26-.33.35.35,0,0,0-.35-.35.35.35,0,0,0-.1.68V13.1l-1.4,1.4A.34.34,0,0,0,27,14.56Z"/><path class="cls-33" d="M42.1-3.31a.35.35,0,0,0,.25.34V1.84l-1,1V8.51l-4.24,4.23V17a.34.34,0,0,0-.25.33.35.35,0,0,0,.35.36.36.36,0,0,0,.35-.36A.34.34,0,0,0,37.3,17V12.82l4.25-4.23V2.9l1-1V-3a.35.35,0,0,0,.26-.34.35.35,0,0,0-.35-.35A.35.35,0,0,0,42.1-3.31Z"/><path class="cls-34" d="M40.16-6.52a.35.35,0,0,0,.26.34V1.65l-.85.86v4.7l-3.67,3.67v4.94a.35.35,0,0,0,.1.69.35.35,0,0,0,.35-.35.35.35,0,0,0-.26-.34V11l3.68-3.67V2.58l.86-.85V-6.18a.35.35,0,0,0,.26-.34.35.35,0,0,0-.35-.35A.35.35,0,0,0,40.16-6.52Z"/><path class="cls-35" d="M39.5-1a.37.37,0,0,0,0-.5.35.35,0,0,0-.5,0,.37.37,0,0,0-.06.42L36.71,1.16V6.72a.34.34,0,0,0-.26.33.35.35,0,1,0,.7,0,.34.34,0,0,0-.26-.33V1.24L39.08-.94A.35.35,0,0,0,39.5-1Z"/><path class="cls-36" d="M27.7,74.76V68.21h0l0-15.34-3.24-3.24v-10l.81-.81a.48.48,0,0,0,.58-.76.48.48,0,0,0-.68,0,.49.49,0,0,0-.08.58l-.88.88v9.87L22.4,47.53a.48.48,0,0,0-.76-.58.5.5,0,0,0,0,.68.49.49,0,0,0,.58.08L27.46,53v8.5l-2.3-2.3V55.62a.48.48,0,0,0,.35-.46.48.48,0,1,0-1,0,.48.48,0,0,0,.35.46v3.65l2.55,2.56v6.1L21.6,62.08V51.28l-3.72-3.73V43.79l3.37-3.36V35.29h0l1.79-1.78V26.64a.49.49,0,1,0-.25,0V33.4l-1.53,1.53V24.52a.48.48,0,0,0-.13-.94.48.48,0,0,0-.48.48.47.47,0,0,0,.35.46v15.8l-3.11,3.11,0-26a.47.47,0,0,0,.35-.46.48.48,0,0,0-.48-.48.49.49,0,0,0-.48.48.47.47,0,0,0,.35.46l0,30.23,3.73,3.74v10.8l3.28,3.29v3.39l-1.28,1.27a.49.49,0,0,0-.58.08.5.5,0,0,0,0,.68.48.48,0,0,0,.68,0,.47.47,0,0,0,.08-.58L24.89,69V65.73l2.56,2.57v6.57L32,79.41v4.27l1.39,1.38V96.44a.48.48,0,0,0,.12,1,.48.48,0,0,0,.13-1V85l-1.38-1.39V79.31Z"/><path class="cls-37" d="M24.93,22.18l-2.09-2.1V8a.48.48,0,1,0-.26,0V20.19l2.33,2.33h0V33.39l4.43,4.44v5.94l-2.16,2.17a.49.49,0,0,0-.58.07.48.48,0,0,0,0,.68.48.48,0,0,0,.76-.57l2.24-2.24V38.09l3.6,3.6,0,21.81,5.73,5.74V81.92h.26V69.14l-5.73-5.75V53.58h0l2.4-2.39V38.46l-7.93-7.94V27.71l2.88-2.87V6.42l2.51-2.5a.47.47,0,0,0,.57-.08.48.48,0,0,0-.68-.68.5.5,0,0,0-.08.58L30.57,6.32V24.73l-2.62,2.61V19.52a.5.5,0,0,0,.36-.46.5.5,0,0,0-.49-.49.49.49,0,0,0-.48.49.48.48,0,0,0,.35.46V30.63l7.92,7.93V51.08l-2.15,2.15V41.59l-8.29-8.31,0-30.56a.48.48,0,0,0-.13-1,.49.49,0,0,0-.48.49.48.48,0,0,0,.35.46Z"/><path class="cls-38" d="M29.84,98.1a.49.49,0,0,0,.08-.58l2.3-2.3V90.16l-2.61-2.61V82.7L25.3,78.36V74.61a.48.48,0,1,0-.26,0v3.86l4.33,4.33v4.49l-7-7v-7.2l-3-3V59.16L17.1,56.89V50.65l-.79-.79a.49.49,0,0,0-.08-.58.48.48,0,0,0-.68.68.49.49,0,0,0,.58.08l.71.72v3.31l-4.41-4.41V46.51l2.73-2.71V38.41a.49.49,0,0,0,.35-.47.48.48,0,0,0-.48-.48.49.49,0,0,0-.48.48.5.5,0,0,0,.35.47v5.28l-2.47,2.46V37.71l2.79-2.79,0-20.16,1.53-1.53a.47.47,0,0,0,.57-.07.49.49,0,0,0,0-.69.5.5,0,0,0-.68,0,.49.49,0,0,0-.07.58L15,14.65V30l-4.21-4.22V6.89L7.61,3.72a.49.49,0,0,0-.07-.58.48.48,0,0,0-.68,0,.48.48,0,0,0,.57.76L10.53,7l0,18.89L15,30.37v4.45l-2.8,2.78V49.76l4.66,4.68V57l2.27,2.27V69.8l-4.38-4.39V55.82a.49.49,0,1,0-.25,0v9.7l7.66,7.68v7.2L32,90.26v4.85l-2.23,2.23a.48.48,0,0,0-.58.07.49.49,0,0,0,0,.69A.5.5,0,0,0,29.84,98.1Z"/></g><g class="cls-40"><path class="cls-11" d="M16,89.84a.36.36,0,0,0-.25-.34V85.07l1.81-1.8V67.84L14.6,64.9V59.69l3.57-3.57v-6l-5.29-5.3V31.14L9.07,27.3V25.76L6.42,23.1V18.31L.65,12.53a.35.35,0,0,0-.55-.42.37.37,0,0,0,0,.5.35.35,0,0,0,.42.05l5.72,5.72v4.8l2.65,2.65v1.55l3.84,3.84,0,13.63L18,50.15V56l-3.57,3.57V65l2.94,2.94V83.19L15.53,85v4.5a.35.35,0,0,0,.09.69A.35.35,0,0,0,16,89.84Z"/><path class="cls-12" d="M33.05,90.47a.35.35,0,0,0-.26-.34V83l-1.5-1.5v-10l1.94-1.94V65l-.8-.8v-7l3.72-3.72v-7.2L33,43.1V36.55l4.2-4.2V28.09l-3.36-3.37V22.31l5-5V14.48l3.81-3.8a.35.35,0,0,0,.42,0,.37.37,0,0,0,0-.5.35.35,0,0,0-.5,0,.37.37,0,0,0-.06.42L38.63,14.4v2.86l-5,5V24.8L37,28.16v4.11l-4.2,4.2v6.7L36,46.39v7.06l-3.72,3.71v7.13l.8.8v4.36l-1.95,1.94v10.2l1.5,1.5v7a.35.35,0,1,0,.44.34Z"/><path class="cls-13" d="M22.92,89.46a.35.35,0,0,0-.26-.34V75.41l4.1-4.1v-5.5l-3.19-3.19v-8l3.54-3.54V45.23l-1.35-1.34V38.77l2.09-2.09V32.54l-2.26-2.26V25.92l3-3V17.39l3.94-3.94V-.25l3.05-3a.35.35,0,0,0,.42-.05.35.35,0,0,0,0-.5.37.37,0,0,0-.5,0,.35.35,0,0,0-.05.42l-3.1,3.1V13.38l-3.94,3.93v5.51l-3,3v4.51l2.26,2.26v4l-2.1,2.09V44L27,45.31V51L23.4,54.54v8.15l3.19,3.2v5.35l-4.1,4.09V89.12a.35.35,0,0,0,.1.69A.35.35,0,0,0,22.92,89.46Z"/><path class="cls-14" d="M19.46,83.15l-2.08,2.08V89a.35.35,0,0,0-.26.34.35.35,0,0,0,.35.35.35.35,0,0,0,.09-.69V85.31l2.07-2.08V74.69l4.43-4.42v-3.5L21.29,64V53.61l3.11-3.1V45.92l-2.49-2.49V35.69l2.3-2.29V23.92l-5.5-5.51v-11L16.62,5.32a.35.35,0,0,0-.05-.42.37.37,0,0,0-.5,0,.35.35,0,0,0,0,.5.37.37,0,0,0,.42.06l2.07,2.07v11L24.06,24v9.32l-2.3,2.29v7.9L24.23,46v4.43l-3.1,3.11V64.06l2.78,2.79v3.34l-4.42,4.42Z"/><path class="cls-15" d="M19.27,71.64a.35.35,0,1,0,.55.08l2.39-2.38V67l-2.76-2.77V54l3.17-3.17V46.66l-3.07-3.07V35.28a.35.35,0,0,0-.1-.69.35.35,0,0,0-.35.35.35.35,0,0,0,.26.34v8.38l3.07,3.08v4L19.27,53.9V64.34L22,67.11v2.15l-2.33,2.33A.35.35,0,0,0,19.27,71.64Z"/><path class="cls-16" d="M19.26,68.56V66.41L17.4,64.55V59.69a.35.35,0,0,0,.25-.34.34.34,0,0,0-.35-.35.35.35,0,0,0-.09.69v4.94l1.86,1.86v2.07a.35.35,0,0,0,.09.68.35.35,0,0,0,.35-.35A.34.34,0,0,0,19.26,68.56Z"/><path class="cls-17" d="M7.13,6.39V11l3.62,3.62v9l4.45,4.45,0,15.83L20,48.76a.35.35,0,1,0,.13-.13l-4.76-4.77V28l-4.44-4.46v-9L7.31,11V6.31L3.9,2.89V-3a.35.35,0,0,0,.25-.34.34.34,0,0,0-.35-.35.35.35,0,0,0-.35.35A.35.35,0,0,0,3.72-3V3Z"/><path class="cls-18" d="M16.36,33.72v8.72l4.24,4.25a.35.35,0,0,0,.55.42.35.35,0,0,0,0-.5.35.35,0,0,0-.42,0l-4.19-4.2V33.8l2.61-2.61V26L15.3,22.1V12.42a.35.35,0,1,0-.18,0v9.76L19,26.05v5.07Z"/><path class="cls-19" d="M10.28,8.51l3,3V23.35l4,4V30a.36.36,0,0,0-.25.34.35.35,0,0,0,.35.35.35.35,0,0,0,.09-.69V27.31l-4-4V11.38l-2.94-3V4.24L8.32,2.09a.35.35,0,0,0-.06-.42.35.35,0,0,0-.49.49.35.35,0,0,0,.42.06l2.09,2.1Z"/><path class="cls-20" d="M17.52,11v8.46l5,5v7.47L20.4,34v5.55a.36.36,0,0,0-.26.34.36.36,0,0,0,.71,0,.36.36,0,0,0-.26-.34V34.06L22.65,32V24.37l-5-5V11a.35.35,0,0,0-.09-.68.35.35,0,0,0-.35.35A.34.34,0,0,0,17.52,11Z"/><path class="cls-21" d="M11.81,1.74a.34.34,0,0,0,.26.33V5.48l4.31,4.33v11l4.5,4.5v6L18.17,34v7.11a.34.34,0,0,0-.26.33.35.35,0,0,0,.35.35.35.35,0,0,0,.35-.35.34.34,0,0,0-.26-.33v-7l2.69-2.68V25.25l-4.49-4.51v-11L12.25,5.41V2.07a.35.35,0,1,0-.45-.33Z"/><path class="cls-22" d="M4.56,13.8l3.75,3.76V23.4L13.94,29l0,14.17a.36.36,0,0,0-.25.34.35.35,0,0,0,.35.35.35.35,0,0,0,.09-.69V29L8.49,23.32V17.48L4.75,13.73v-6L1,4A.35.35,0,0,0,1,3.59a.35.35,0,0,0-.5,0,.34.34,0,0,0,0,.49.34.34,0,0,0,.42.06L4.57,7.83Z"/><path class="cls-23" d="M30.27,78.42a.35.35,0,0,0-.26-.34V70.22l1.6-1.6V56.36l3.13-3.12v-6l-3.92-3.92V34.75l3.53-3.53V27.43l-2.58-2.58V21.09l3.32-3.31V.44A.35.35,0,0,0,35.4.1a.35.35,0,0,0-.35-.35A.35.35,0,0,0,34.7.1.35.35,0,0,0,35,.44V17.71L31.63,21v3.9l2.58,2.59v3.64l-3.53,3.52v8.78l3.91,3.92v5.79l-3.13,3.12V68.54l-1.61,1.6v7.94a.35.35,0,0,0-.26.34.35.35,0,0,0,.35.35A.35.35,0,0,0,30.27,78.42Z"/><path class="cls-24" d="M27.74,40.79v-1.6l1.72-1.72V30.94L27.9,29.37V25.85L29.75,24V18.3L34.1,14V1a.34.34,0,0,0,.26-.33A.35.35,0,0,0,34,.27a.34.34,0,0,0-.35.35.34.34,0,0,0,.25.33V13.89l-4.34,4.33v5.7l-1.86,1.85v3.68L29.28,31v6.37l-1.73,1.72v1.76L29,42.29v8.77L25.4,54.63V61L28,63.6v5.69a.34.34,0,0,0-.26.33.35.35,0,0,0,.35.35.35.35,0,0,0,.1-.68V63.52l-2.58-2.59V54.7l3.57-3.56V42.22Z"/><path class="cls-25" d="M31.87,47.29a.35.35,0,1,0-.18,0v2.87l-4.37,4.36V60l1.8,1.81v6.31a.35.35,0,0,0-.26.34.35.35,0,0,0,.35.35.35.35,0,0,0,.35-.35.36.36,0,0,0-.25-.34V61.77L27.49,60V54.6l4.37-4.37Z"/><path class="cls-26" d="M32.58,52.22a.37.37,0,0,0,0-.5.35.35,0,0,0-.5,0,.37.37,0,0,0-.06.42L28.6,55.56v3.59l1.76,1.76V67a.35.35,0,0,0,.09.69.35.35,0,0,0,.35-.35.33.33,0,0,0-.25-.34V60.84l-1.75-1.76V55.64l3.37-3.37A.35.35,0,0,0,32.58,52.22Z"/><path class="cls-27" d="M21.43,6.53,17.94,3a.35.35,0,0,0-.06-.42.34.34,0,0,0-.49,0,.35.35,0,0,0,0,.49.35.35,0,0,0,.42.06L21.25,6.6V18.76L25.48,23a.35.35,0,0,0,.05.42.36.36,0,0,0,.5,0,.35.35,0,0,0,0-.5.35.35,0,0,0-.42-.05l-4.19-4.2Z"/><path class="cls-28" d="M30-3.19V.48L28.33,2.19v3.9l2,2V13l-3.42,3.41V21.6a.35.35,0,0,0,.09.69.35.35,0,0,0,.35-.35.36.36,0,0,0-.25-.34V16.43L30.48,13V8l-2-2V2.27L30.23.56V-3.11l3.24-3.24a.35.35,0,0,0,.42-.05.35.35,0,0,0,0-.5.37.37,0,0,0-.5,0,.35.35,0,0,0,0,.42Z"/><path class="cls-29" d="M23.49,13.43,26,10.93V7.87L23.64,5.51V2.08L21.89.32a.35.35,0,0,0-.06-.42.34.34,0,0,0-.49,0,.35.35,0,0,0,0,.5.35.35,0,0,0,.42,0l1.7,1.71V5.58L25.82,8v2.9l-2.51,2.5V18l1.87,1.87a.35.35,0,1,0,.13-.13L23.49,18Z"/><path class="cls-30" d="M22.33,8.67a.35.35,0,0,0,.09.69A.35.35,0,0,0,22.77,9a.36.36,0,0,0-.25-.34V3.53L18.64-.36a.35.35,0,0,0-.06-.42.34.34,0,0,0-.49,0,.34.34,0,0,0,0,.49.33.33,0,0,0,.42.06L22.33,3.6Z"/><path class="cls-31" d="M25.15.71v3.7l1.78,1.78v7.22l-1.5,1.5v2.86a.36.36,0,0,0-.26.34.34.34,0,0,0,.35.35.35.35,0,0,0,.35-.35.34.34,0,0,0-.26-.33V15l1.5-1.49V6.12L25.34,4.33V.63L20.15-4.56a.35.35,0,0,0,0-.42.35.35,0,0,0-.5,0,.34.34,0,0,0,0,.49.34.34,0,0,0,.42.06Z"/><path class="cls-32" d="M27,14.56a.35.35,0,1,0,.55.07L29,13.18v-4a.34.34,0,0,0,.26-.33.35.35,0,0,0-.35-.35.35.35,0,0,0-.1.68V13.1l-1.4,1.4A.34.34,0,0,0,27,14.56Z"/><path class="cls-33" d="M42.1-3.31a.35.35,0,0,0,.25.34V1.84l-1,1V8.51l-4.24,4.23V17a.34.34,0,0,0-.25.33.35.35,0,0,0,.35.36.36.36,0,0,0,.35-.36A.34.34,0,0,0,37.3,17V12.82l4.25-4.23V2.9l1-1V-3a.35.35,0,0,0,.26-.34.35.35,0,0,0-.35-.35A.35.35,0,0,0,42.1-3.31Z"/><path class="cls-34" d="M40.16-6.52a.35.35,0,0,0,.26.34V1.65l-.85.86v4.7l-3.67,3.67v4.94a.35.35,0,0,0,.1.69.35.35,0,0,0,.35-.35.35.35,0,0,0-.26-.34V11l3.68-3.67V2.58l.86-.85V-6.18a.35.35,0,0,0,.26-.34.35.35,0,0,0-.35-.35A.35.35,0,0,0,40.16-6.52Z"/><path class="cls-35" d="M39.5-1a.37.37,0,0,0,0-.5.35.35,0,0,0-.5,0,.37.37,0,0,0-.06.42L36.71,1.16V6.72a.34.34,0,0,0-.26.33.35.35,0,1,0,.7,0,.34.34,0,0,0-.26-.33V1.24L39.08-.94A.35.35,0,0,0,39.5-1Z"/><path class="cls-36" d="M27.7,74.76V68.21h0l0-15.34-3.24-3.24v-10l.81-.81a.48.48,0,0,0,.58-.76.48.48,0,0,0-.68,0,.49.49,0,0,0-.08.58l-.88.88v9.87L22.4,47.53a.48.48,0,0,0-.76-.58.5.5,0,0,0,0,.68.49.49,0,0,0,.58.08L27.46,53v8.5l-2.3-2.3V55.62a.48.48,0,0,0,.35-.46.48.48,0,1,0-1,0,.48.48,0,0,0,.35.46v3.65l2.55,2.56v6.1L21.6,62.08V51.28l-3.72-3.73V43.79l3.37-3.36V35.29h0l1.79-1.78V26.64a.49.49,0,1,0-.25,0V33.4l-1.53,1.53V24.52a.48.48,0,0,0-.13-.94.48.48,0,0,0-.48.48.47.47,0,0,0,.35.46v15.8l-3.11,3.11,0-26a.47.47,0,0,0,.35-.46.48.48,0,0,0-.48-.48.49.49,0,0,0-.48.48.47.47,0,0,0,.35.46l0,30.23,3.73,3.74v10.8l3.28,3.29v3.39l-1.28,1.27a.49.49,0,0,0-.58.08.5.5,0,0,0,0,.68.48.48,0,0,0,.68,0,.47.47,0,0,0,.08-.58L24.89,69V65.73l2.56,2.57v6.57L32,79.41v4.27l1.39,1.38V96.44a.48.48,0,0,0,.12,1,.48.48,0,0,0,.13-1V85l-1.38-1.39V79.31Z"/><path class="cls-37" d="M24.93,22.18l-2.09-2.1V8a.48.48,0,1,0-.26,0V20.19l2.33,2.33h0V33.39l4.43,4.44v5.94l-2.16,2.17a.49.49,0,0,0-.58.07.48.48,0,0,0,0,.68.48.48,0,0,0,.76-.57l2.24-2.24V38.09l3.6,3.6,0,21.81,5.73,5.74V81.92h.26V69.14l-5.73-5.75V53.58h0l2.4-2.39V38.46l-7.93-7.94V27.71l2.88-2.87V6.42l2.51-2.5a.47.47,0,0,0,.57-.08.48.48,0,0,0-.68-.68.5.5,0,0,0-.08.58L30.57,6.32V24.73l-2.62,2.61V19.52a.5.5,0,0,0,.36-.46.5.5,0,0,0-.49-.49.49.49,0,0,0-.48.49.48.48,0,0,0,.35.46V30.63l7.92,7.93V51.08l-2.15,2.15V41.59l-8.29-8.31,0-30.56a.48.48,0,0,0-.13-1,.49.49,0,0,0-.48.49.48.48,0,0,0,.35.46Z"/><path class="cls-38" d="M29.84,98.1a.49.49,0,0,0,.08-.58l2.3-2.3V90.16l-2.61-2.61V82.7L25.3,78.36V74.61a.48.48,0,1,0-.26,0v3.86l4.33,4.33v4.49l-7-7v-7.2l-3-3V59.16L17.1,56.89V50.65l-.79-.79a.49.49,0,0,0-.08-.58.48.48,0,0,0-.68.68.49.49,0,0,0,.58.08l.71.72v3.31l-4.41-4.41V46.51l2.73-2.71V38.41a.49.49,0,0,0,.35-.47.48.48,0,0,0-.48-.48.49.49,0,0,0-.48.48.5.5,0,0,0,.35.47v5.28l-2.47,2.46V37.71l2.79-2.79,0-20.16,1.53-1.53a.47.47,0,0,0,.57-.07.49.49,0,0,0,0-.69.5.5,0,0,0-.68,0,.49.49,0,0,0-.07.58L15,14.65V30l-4.21-4.22V6.89L7.61,3.72a.49.49,0,0,0-.07-.58.48.48,0,0,0-.68,0,.48.48,0,0,0,.57.76L10.53,7l0,18.89L15,30.37v4.45l-2.8,2.78V49.76l4.66,4.68V57l2.27,2.27V69.8l-4.38-4.39V55.82a.49.49,0,1,0-.25,0v9.7l7.66,7.68v7.2L32,90.26v4.85l-2.23,2.23a.48.48,0,0,0-.58.07.49.49,0,0,0,0,.69A.5.5,0,0,0,29.84,98.1Z"/></g></g><path class="cls-5" d="M74.61,49a15.27,15.27,0,0,1-5.54,1.67,49.06,49.06,0,0,1-5.17.31,13,13,0,0,1-7.85-2.44c-2.24-1.62-3.36-4.29-3.35-8q0-5.24,3-7.47a17.57,17.57,0,0,1,7.79-3A7.66,7.66,0,0,0,65,29.82c.58-.12,1.25-.23,2-.31,3.65-.5,5.48-1.57,5.48-3.23a2.35,2.35,0,0,0-1.93-2.43A12.63,12.63,0,0,0,67,23.28a9.1,9.1,0,0,0-3.11.5,3.38,3.38,0,0,0-2,1.87H53.58a9.6,9.6,0,0,1,3.49-6.35q3.36-2.87,9.59-2.86,7,0,10.46,2.38a8,8,0,0,1,3.61,7V37.12a14.33,14.33,0,0,1-1.81,7.78A11.09,11.09,0,0,1,74.61,49Zm-2-15.33a23.17,23.17,0,0,1-4.86,1.62l-2.86.62a7.29,7.29,0,0,0-3.24,1.62,5,5,0,0,0-.88,2.74,4,4,0,0,0,1.12,3,4.79,4.79,0,0,0,3.24,1,6.9,6.9,0,0,0,7.48-7.47Z"/><path class="cls-5" d="M103.88,48.35V46.23a9.55,9.55,0,0,1-6,4.35A12.38,12.38,0,0,1,90.3,50a13.91,13.91,0,0,1-6.41-5.54q-2.67-4-2.67-10.65,0-7.72,3.56-12.52t11.4-4.78a20.26,20.26,0,0,1,11.08,3.24q5.11,3.24,5.1,12V49.22q0,8.73-5.12,11.89a20.59,20.59,0,0,1-11.09,3.17Q84.68,64.28,82,53.56h9.1a6.93,6.93,0,0,0,7.15,3.18,6.71,6.71,0,0,0,3.74-2.43A10.07,10.07,0,0,0,103.88,48.35ZM89.69,34c0,5.73,1.65,8.91,5,9.53s5.77-.14,7.35-2.29a9.52,9.52,0,0,0,1.62-4.3,18.45,18.45,0,0,0,.07-5.79,11.59,11.59,0,0,0-2.06-5.11,5.47,5.47,0,0,0-4.73-2.25q-4.23,0-5.73,3.11A16.17,16.17,0,0,0,89.69,34Z"/><path class="cls-5" d="M113.84,50.35V34.28a20.77,20.77,0,0,1,1.44-8.16,13.58,13.58,0,0,1,3.93-5.29,15.54,15.54,0,0,1,5.54-2.73,24.67,24.67,0,0,1,6.54-.87h1.25v8.84h-2.86q-3.62,0-5.36,1.74c-1.16,1.16-1.75,3-1.75,5.48V50.35Z"/><path class="cls-5" d="M137.51,47.38a12.3,12.3,0,0,1-3.73-6.05,27.7,27.7,0,0,1-1.12-7.91,25.11,25.11,0,0,1,.94-6.72,13.92,13.92,0,0,1,2.93-5.6,13,13,0,0,1,8.35-4.42,19.25,19.25,0,0,1,9.22.82,12.75,12.75,0,0,1,7,6.48,20.82,20.82,0,0,1,2.11,9.59,24.05,24.05,0,0,1-.88,6.85,17.65,17.65,0,0,1-2.25,4.86,12.42,12.42,0,0,1-7.6,5.1,17.06,17.06,0,0,1-8.28.18A14.6,14.6,0,0,1,137.51,47.38Zm6-21.92q-2.61,2.87-2.37,8.53c.16,3.78.87,6.41,2.11,7.91a5.52,5.52,0,0,0,2.61,1.68,6,6,0,0,0,3.8.13,6.33,6.33,0,0,0,3.43-2.8q1.5-2.23,1.63-7.22,0-4.48-1.43-6.73A6.46,6.46,0,0,0,150,24.1a6.05,6.05,0,0,0-3.74-.07A6.48,6.48,0,0,0,143.5,25.46Z"/><path class="cls-5" d="M186.49,7.43h4.23a4,4,0,0,1,3,1.31A4.14,4.14,0,0,1,195,11.68l0,24.28q0,8.85-5.11,12A21,21,0,0,1,178.73,51,19.72,19.72,0,0,1,172.38,50a10.43,10.43,0,0,1-5-3.43q-3.61-4.62-3.6-12.58t3.62-12.58a12.13,12.13,0,0,1,15.07-3.6,12,12,0,0,1,4,3.86ZM172.27,33.58q0,5,1.86,7.6a6.18,6.18,0,0,0,5.35,2.62,6.08,6.08,0,0,0,5.24-2.61q1.74-2.62,1.75-7.6a12,12,0,0,0-1.87-7.1,6.52,6.52,0,0,0-5.35-2.5,5.94,5.94,0,0,0-5.11,2.62A11.37,11.37,0,0,0,172.27,33.58Z"/><path class="cls-5" d="M217.59,49.06a15.42,15.42,0,0,1-5.54,1.68,51.46,51.46,0,0,1-5.17.3A13,13,0,0,1,199,48.61q-3.36-2.43-3.35-8,0-5.24,3-7.47a17.57,17.57,0,0,1,7.79-3,7,7,0,0,0,1.5-.19c.58-.12,1.24-.22,2-.31q5.48-.74,5.48-3.23A2.35,2.35,0,0,0,213.56,24,12.59,12.59,0,0,0,210,23.4a8.87,8.87,0,0,0-3.11.49,3.36,3.36,0,0,0-2,1.87h-8.35a9.6,9.6,0,0,1,3.49-6.35c2.25-1.91,5.44-2.86,9.6-2.85q7,0,10.45,2.37a8,8,0,0,1,3.61,7V37.23c0,3.32-.6,5.92-1.81,7.78A11,11,0,0,1,217.59,49.06Zm-2-15.32a23,23,0,0,1-4.86,1.61l-2.86.62a7.39,7.39,0,0,0-3.24,1.62,5,5,0,0,0-.88,2.74,4.08,4.08,0,0,0,1.12,3,4.71,4.71,0,0,0,3.24,1,6.9,6.9,0,0,0,7.48-7.47Z"/><path class="cls-5" d="M239.63,50.45a64,64,0,0,1-8.9-.14c-3.2-.25-4.79-2.28-4.79-6.1l0-36.62h4.48a4,4,0,0,1,2.87,1.25,4.12,4.12,0,0,1,1.24,3v5.61h5.11v1.74a4,4,0,0,1-1.25,3.05,4.19,4.19,0,0,1-3,1.19h-.87l0,18.43c0,1.41.83,2.12,2.49,2.12h2.62Z"/><path class="cls-8" d="M266.39.28h8.2l18.3,50.37h-11l-3.37-10.39H258.92L255.7,50.65h-11l16.7-47A4.91,4.91,0,0,1,266.39.28Zm2.34,10.1-7,21.38h14.06Z"/><path class="cls-8" d="M296.12.28h5.27a4.8,4.8,0,0,1,3.51,1.46,4.79,4.79,0,0,1,1.47,3.51V8.33H296.12Zm0,11.42h5.27a5,5,0,0,1,5,5v34H296.12Z"/></g></g></svg>