<svg xmlns="http://www.w3.org/2000/svg" xmlns:xlink="http://www.w3.org/1999/xlink" viewBox="0 0 9.96 21.17"><defs><style>.cls-1{fill:none;}.cls-2{isolation:isolate;}.cls-3{fill:#9c4dad;}.cls-4{fill:#7f42a0;}.cls-5{fill:#009a78;}.cls-6{fill:#007b5f;}.cls-7{fill:#00593f;}.cls-8{fill:#4f317a;}.cls-9{opacity:0.47;}.cls-10{clip-path:url(#clip-path);}.cls-11,.cls-12,.cls-13,.cls-14,.cls-15,.cls-16,.cls-17,.cls-18,.cls-19,.cls-20,.cls-21,.cls-22,.cls-23,.cls-24,.cls-25,.cls-26,.cls-27,.cls-28,.cls-29,.cls-30,.cls-31,.cls-32,.cls-33{mix-blend-mode:color-dodge;}.cls-11{fill:url(#linear-gradient);}.cls-12{fill:url(#linear-gradient-2);}.cls-13{fill:url(#linear-gradient-3);}.cls-14{fill:url(#linear-gradient-4);}.cls-15{fill:url(#linear-gradient-5);}.cls-16{fill:url(#linear-gradient-6);}.cls-17{fill:url(#linear-gradient-7);}.cls-18{fill:url(#linear-gradient-8);}.cls-19{fill:url(#linear-gradient-9);}.cls-20{fill:url(#linear-gradient-10);}.cls-21{fill:url(#linear-gradient-11);}.cls-22{fill:url(#linear-gradient-12);}.cls-23{fill:url(#linear-gradient-13);}.cls-24{fill:url(#linear-gradient-14);}.cls-25{fill:url(#linear-gradient-15);}.cls-26{fill:url(#linear-gradient-16);}.cls-27{fill:url(#linear-gradient-17);}.cls-28{fill:url(#linear-gradient-18);}.cls-29{fill:url(#linear-gradient-19);}.cls-30{fill:url(#linear-gradient-20);}.cls-31{fill:url(#linear-gradient-21);}.cls-32{fill:url(#linear-gradient-22);}.cls-33{fill:url(#linear-gradient-23);}.cls-34,.cls-35,.cls-36{mix-blend-mode:color-burn;}.cls-34{fill:url(#linear-gradient-24);}.cls-35{fill:url(#linear-gradient-25);}.cls-36{fill:url(#linear-gradient-26);}.cls-37{clip-path:url(#clip-path-2);}.cls-38{clip-path:url(#clip-path-3);}</style><clipPath id="clip-path"><path class="cls-1" d="M5.56,8.64l3.65-2.1a.78.78,0,0,0,.35-.61V2.29c0-.23-.16-.32-.35-.2L5.55,4.19a.77.77,0,0,0-.35.6V8.44C5.21,8.66,5.37,8.75,5.56,8.64Z"/></clipPath><linearGradient id="linear-gradient" x1="-3271.07" y1="1672.99" x2="-3249.41" y2="1672.99" gradientTransform="translate(1672.93 3277.66) rotate(90.05)" gradientUnits="userSpaceOnUse"><stop offset="0" stop-color="#d4d4d4"/><stop offset="0.29" stop-color="#909196"/><stop offset="0.41" stop-color="#767881"/><stop offset="0.68" stop-color="#3d4152"/><stop offset="0.89" stop-color="#191e34"/><stop offset="1" stop-color="#0b1129"/></linearGradient><linearGradient id="linear-gradient-2" x1="-3271.63" y1="1665.22" x2="-3249.24" y2="1665.22" xlink:href="#linear-gradient"/><linearGradient id="linear-gradient-3" x1="-3275.5" y1="1667.42" x2="-3249.51" y2="1667.42" xlink:href="#linear-gradient"/><linearGradient id="linear-gradient-4" x1="-3273.07" y1="1669.92" x2="-3249.54" y2="1669.92" xlink:href="#linear-gradient"/><linearGradient id="linear-gradient-5" x1="-3264.82" y1="1669.73" x2="-3254.38" y2="1669.73" xlink:href="#linear-gradient"/><linearGradient id="linear-gradient-6" x1="-3258.05" y1="1670.45" x2="-3255.21" y2="1670.45" xlink:href="#linear-gradient"/><linearGradient id="linear-gradient-7" x1="-3275.42" y1="1672.18" x2="-3260.75" y2="1672.18" xlink:href="#linear-gradient"/><linearGradient id="linear-gradient-8" x1="-3271.15" y1="1670.51" x2="-3261.32" y2="1670.51" xlink:href="#linear-gradient"/><linearGradient id="linear-gradient-9" x1="-3273.97" y1="1672" x2="-3265.91" y2="1672" xlink:href="#linear-gradient"/><linearGradient id="linear-gradient-10" x1="-3271.54" y1="1669.99" x2="-3263.26" y2="1669.99" xlink:href="#linear-gradient"/><linearGradient id="linear-gradient-11" x1="-3274.02" y1="1670.96" x2="-3262.81" y2="1670.96" xlink:href="#linear-gradient"/><linearGradient id="linear-gradient-12" x1="-3273.43" y1="1673.48" x2="-3262.24" y2="1673.48" xlink:href="#linear-gradient"/><linearGradient id="linear-gradient-13" x1="-3274.48" y1="1666.51" x2="-3252.58" y2="1666.51" xlink:href="#linear-gradient"/><linearGradient id="linear-gradient-14" x1="-3274.33" y1="1667.23" x2="-3255.01" y2="1667.23" xlink:href="#linear-gradient"/><linearGradient id="linear-gradient-15" x1="-3261.49" y1="1667.27" x2="-3255.33" y2="1667.27" xlink:href="#linear-gradient"/><linearGradient id="linear-gradient-16" x1="-3260.1" y1="1667.02" x2="-3255.64" y2="1667.02" xlink:href="#linear-gradient"/><linearGradient id="linear-gradient-17" x1="-3273.71" y1="1669.5" x2="-3267.88" y2="1669.5" xlink:href="#linear-gradient"/><linearGradient id="linear-gradient-18" x1="-3276.35" y1="1667.12" x2="-3268.23" y2="1667.12" xlink:href="#linear-gradient"/><linearGradient id="linear-gradient-19" x1="-3274.46" y1="1668.97" x2="-3268.74" y2="1668.97" xlink:href="#linear-gradient"/><linearGradient id="linear-gradient-20" x1="-3274.65" y1="1669.87" x2="-3271.81" y2="1669.87" xlink:href="#linear-gradient"/><linearGradient id="linear-gradient-21" x1="-3275.81" y1="1669.06" x2="-3269.29" y2="1669.06" xlink:href="#linear-gradient"/><linearGradient id="linear-gradient-22" x1="-3272.04" y1="1667.74" x2="-3270.21" y2="1667.74" xlink:href="#linear-gradient"/><linearGradient id="linear-gradient-23" x1="-3276.31" y1="1664.92" x2="-3269.83" y2="1664.92" xlink:href="#linear-gradient"/><linearGradient id="linear-gradient-24" x1="-3269.84" y1="1668.41" x2="-3247.42" y2="1668.41" gradientTransform="translate(1672.93 3277.66) rotate(90.05)" gradientUnits="userSpaceOnUse"><stop offset="0" stop-color="#c7c7c7"/><stop offset="0.55" stop-color="#e8e8e8"/><stop offset="1" stop-color="#fff"/></linearGradient><linearGradient id="linear-gradient-25" x1="-3273.91" y1="1667" x2="-3251.7" y2="1667" xlink:href="#linear-gradient-24"/><linearGradient id="linear-gradient-26" x1="-3273.57" y1="1670.11" x2="-3247.18" y2="1670.11" xlink:href="#linear-gradient-24"/><clipPath id="clip-path-2"><path class="cls-1" d="M9.19,7,5.55,9.14a.75.75,0,0,0-.35.61v3.64c0,.23.16.32.36.21L9.2,11.5a.78.78,0,0,0,.35-.61V7.24C9.54,7,9.39,6.93,9.19,7Z"/></clipPath><clipPath id="clip-path-3"><path class="cls-1" d="M9.19,12,5.54,14.1a.77.77,0,0,0-.35.6v3.65a.2.2,0,0,0,0,.07v1.14a.24.24,0,0,0,.24.24.24.24,0,0,0,.24-.24V18.47l3.51-2a.78.78,0,0,0,.35-.61V12.2C9.54,12,9.38,11.88,9.19,12Z"/></clipPath></defs><title>Manual Agrodata Ai</title><g class="cls-2"><g id="Capa_1" data-name="Capa 1"><path class="cls-3" d="M9.2,2.09c.19-.12.35,0,.35.2V5.93a.78.78,0,0,1-.35.61L5.56,8.64c-.19.11-.35,0-.35-.2V4.79a.77.77,0,0,1,.35-.6Z"/><path class="cls-4" d="M9.19,7c.2-.11.35,0,.36.2v3.65a.78.78,0,0,1-.35.61L5.56,13.6c-.2.11-.35,0-.36-.21V9.75a.75.75,0,0,1,.35-.61Z"/><path class="cls-5" d="M.7,2.08c-.19-.11-.35,0-.35.2V5.93a.72.72,0,0,0,.35.6L4.33,8.64c.19.11.35,0,.35-.2V4.79a.75.75,0,0,0-.35-.6Z"/><path class="cls-6" d="M.7,7c-.2-.11-.35,0-.35.2l0,3.65a.79.79,0,0,0,.35.61l3.64,2.1c.2.12.35,0,.36-.2V9.75a.78.78,0,0,0-.35-.61Z"/><path class="cls-7" d="M.69,12c-.19-.11-.35,0-.35.2v3.65a.75.75,0,0,0,.35.6l3.64,2.11c.19.11.35,0,.35-.2l0-3.65a.81.81,0,0,0-.35-.61Z"/><path class="cls-8" d="M9.54,12.2c0-.23-.16-.32-.35-.2L5.54,14.1a.77.77,0,0,0-.35.6v3.65a.2.2,0,0,0,0,.07v1.14a.24.24,0,0,0,.24.24.24.24,0,0,0,.24-.24V18.47l3.51-2a.78.78,0,0,0,.35-.61Z"/><g class="cls-9"><g class="cls-10"><path class="cls-11" d="M4.43,26.84a.09.09,0,0,0-.07-.09V25.52l.5-.5V20.74l-.81-.81V18.48l1-1V15.82L3.57,14.35V10.57L2.51,9.51V9.08l-.73-.74V7L.18,5.41a.09.09,0,0,0,0-.11A.1.1,0,0,0,0,5.3a.09.09,0,0,0,0,.13.08.08,0,0,0,.11,0L1.73,7V8.36l.73.74v.43l1.06,1.06v3.78L5,15.84v1.63l-1,1V20l.82.81V25l-.51.5v1.24a.11.11,0,0,0-.07.1.1.1,0,0,0,.2,0Z"/><path class="cls-12" d="M9.16,27a.1.1,0,0,0-.07-.09V25l-.42-.42V21.75l.54-.54V20L9,19.74V17.8l1-1v-2l-.89-.9V12.07l1.16-1.16V9.72l-.94-.93V8.12l1.39-1.38V6l1.05-1a.1.1,0,0,0,.12,0,.1.1,0,0,0-.14-.14.09.09,0,0,0,0,.11L10.71,5.93v.79L9.32,8.1v.71l.93.94v1.13L9.09,12.05V13.9l.89.9v1.95l-1,1v2l.23.22v1.21l-.53.54v2.82L9,25v2A.1.1,0,0,0,9,27a.09.09,0,0,0,.09.1A.09.09,0,0,0,9.16,27Z"/><path class="cls-13" d="M6.35,26.73a.1.1,0,0,0-.07-.09v-3.8L7.42,21.7V20.18l-.88-.89V17.08l1-1V14.48l-.37-.38V12.68l.58-.58V11l-.62-.63V9.12L8,8.29V6.76L9,5.67V1.87L9.89,1A.09.09,0,0,0,10,1a.1.1,0,0,0,0-.14.12.12,0,0,0-.14,0,.11.11,0,0,0,0,.12L9,1.85v3.8L7.9,6.74V8.27l-.84.83v1.25l.63.63v1.1l-.58.58v1.46l.37.38v1.57l-1,1v2.27l.89.88v1.48L6.23,22.82v3.82a.1.1,0,0,0-.07.09.09.09,0,0,0,.09.1A.09.09,0,0,0,6.35,26.73Z"/><path class="cls-14" d="M5.39,25l-.57.57v1.06a.09.09,0,0,0-.08.09.11.11,0,0,0,.1.1.1.1,0,0,0,.1-.1.1.1,0,0,0-.07-.09v-1L5.44,25V22.64l1.22-1.22v-1l-.77-.78V16.8l.87-.86V14.67L6.08,14V11.83l.64-.63V8.57L5.19,7V4l-.59-.59a.11.11,0,0,0,0-.12.1.1,0,0,0-.14,0,.12.12,0,0,0,0,.14.11.11,0,0,0,.12,0L5.14,4v3L6.67,8.59v2.58L6,11.81V14l.68.69v1.23l-.86.86v2.91l.77.78v.92L5.39,22.62Z"/><path class="cls-15" d="M5.34,21.8a.09.09,0,0,0,0,.13.1.1,0,0,0,.14,0,.09.09,0,0,0,0-.11l.67-.66v-.64l-.77-.77V16.9L6.27,16V14.87L5.42,14v-2.3a.1.1,0,0,0,.07-.1.09.09,0,0,0-.09-.09.09.09,0,0,0-.1.09.1.1,0,0,0,.07.1V14l.85.85V16l-.88.88v2.89l.76.77v.59l-.64.65A.09.09,0,0,0,5.34,21.8Z"/><path class="cls-16" d="M5.34,20.94v-.59l-.52-.52V18.48a.09.09,0,0,0,.08-.09.1.1,0,1,0-.2,0,.1.1,0,0,0,.07.09v1.37l.52.52v.57a.1.1,0,0,0-.07.09.09.09,0,0,0,.09.1.09.09,0,0,0,.1-.1A.1.1,0,0,0,5.34,20.94Z"/><path class="cls-17" d="M2,3.71V5L3,6V8.5L4.21,9.73v4.39l1.34,1.33a.1.1,0,0,0,0,.12.1.1,0,0,0,.14-.14.1.1,0,0,0-.12,0L4.25,14.1V9.71L3,8.48V6L2,5V3.69l-.95-.95V1.11A.1.1,0,0,0,1.15,1,.1.1,0,1,0,1,1a.1.1,0,0,0,.07.1V2.76Z"/><path class="cls-18" d="M4.53,11.29V13.7l1.18,1.18a.11.11,0,0,0,0,.12.12.12,0,0,0,.14,0,.1.1,0,0,0,0-.14.09.09,0,0,0-.11,0L4.58,13.68V11.31l.72-.73V9.14L4.24,8.06V5.38a.1.1,0,0,0,.07-.09.1.1,0,0,0-.09-.1.09.09,0,0,0-.1.1.1.1,0,0,0,.07.09V8.09L5.26,9.16v1.4Z"/><path class="cls-19" d="M2.85,4.3l.82.82V8.41L4.78,9.53v.72a.1.1,0,0,0-.07.09.1.1,0,0,0,.09.1.1.1,0,0,0,.1-.1.1.1,0,0,0-.07-.09V9.51L3.71,8.39V5.09L2.9,4.28V3.12l-.59-.6a.11.11,0,0,0,0-.12.1.1,0,1,0-.14.14.11.11,0,0,0,.12,0l.58.58Z"/><path class="cls-20" d="M4.85,5V7.34L6.23,8.72v2.07l-.58.57V12.9a.1.1,0,0,0-.07.09.09.09,0,0,0,.1.1.09.09,0,0,0,.09-.1.1.1,0,0,0-.07-.09V11.38l.58-.57V8.69L4.9,7.32V5A.11.11,0,0,0,5,4.9a.1.1,0,1,0-.2,0A.11.11,0,0,0,4.85,5Z"/><path class="cls-21" d="M3.27,2.42a.09.09,0,0,0,.07.09v1l1.2,1.2V7.71L5.78,9v1.67L5,11.37v2a.1.1,0,1,0,.06,0V11.39l.74-.74V8.94L4.59,7.69V4.64L3.4,3.44V2.51a.09.09,0,0,0,.07-.09.1.1,0,0,0-.2,0Z"/><path class="cls-22" d="M1.26,5.77l1,1V8.43L3.86,10v3.93a.09.09,0,0,0-.07.09.1.1,0,0,0,.09.1A.1.1,0,0,0,4,14a.09.09,0,0,0-.07-.09V10L2.35,8.4V6.78l-1-1V4.09l-1-1a.11.11,0,0,0,0-.12.12.12,0,0,0-.14,0,.1.1,0,0,0,0,.14.09.09,0,0,0,.11,0l1,1Z"/><path class="cls-23" d="M8.39,23.67a.1.1,0,0,0-.07-.09V21.4L8.76,21v-3.4l.86-.87V15.05L8.55,14V11.57l1-1V9.54l-.71-.71v-1l.91-.92V2.06A.1.1,0,0,0,9.81,2a.09.09,0,0,0-.1-.1.09.09,0,0,0-.09.1.1.1,0,0,0,.07.09V6.85l-.92.91V8.85l.72.71v1l-1,1V14l1.08,1.09v1.6l-.87.87v3.4l-.44.44v2.2a.09.09,0,0,0-.08.09.1.1,0,0,0,.1.1A.09.09,0,0,0,8.39,23.67Z"/><path class="cls-24" d="M7.69,13.25V12.8l.48-.47V10.52l-.44-.44v-1l.52-.51V7l1.2-1.2V2.2a.1.1,0,0,0,.08-.09.11.11,0,0,0-.1-.1.1.1,0,0,0-.1.1.09.09,0,0,0,.07.09V5.79L8.2,7V8.57l-.51.51v1l.43.44V12.3l-.47.48v.49l.39.39v2.43l-1,1v1.77l.71.72v1.57a.1.1,0,0,0-.07.1.09.09,0,0,0,.1.09.09.09,0,0,0,.09-.09.1.1,0,0,0-.07-.1v-1.6l-.71-.71V17.1l1-1V13.64Z"/><path class="cls-25" d="M8.83,15.05A.11.11,0,0,0,8.9,15a.09.09,0,0,0-.09-.09.09.09,0,0,0-.1.09.11.11,0,0,0,.07.1v.79L7.57,17.05v1.53l.5.5v1.75a.1.1,0,0,0-.07.09.1.1,0,0,0,.09.1.1.1,0,0,0,.1-.1.1.1,0,0,0-.07-.09V19.06l-.5-.5V17.07l1.21-1.21Z"/><path class="cls-26" d="M9,16.41a.1.1,0,0,0,0-.14.12.12,0,0,0-.14,0,.09.09,0,0,0,0,.12l-1,.95v1l.48.49v1.69a.1.1,0,0,0-.07.1.09.09,0,0,0,.1.09.09.09,0,0,0,.09-.09.1.1,0,0,0-.07-.1V18.8L8,18.31v-.95l.93-.93A.11.11,0,0,0,9,16.41Z"/><path class="cls-27" d="M5.94,3.75l-1-1a.1.1,0,0,0,0-.12.1.1,0,0,0-.14.14.09.09,0,0,0,.11,0l1,1V7.14L7.06,8.32a.09.09,0,0,0,0,.11.09.09,0,0,0,.13-.13.08.08,0,0,0-.11,0L5.94,7.12Z"/><path class="cls-28" d="M8.33,1.06v1l-.48.48V3.63l.55.54V5.53l-.94.94V7.93A.1.1,0,0,0,7.38,8a.1.1,0,0,0,.09.1.1.1,0,0,0,.1-.1.1.1,0,0,0-.07-.09V6.49l.95-.94V4.15L7.9,3.61v-1l.48-.47v-1l.9-.9a.09.09,0,0,0,.11,0,.1.1,0,0,0,0-.14.1.1,0,0,0-.14,0,.09.09,0,0,0,0,.11Z"/><path class="cls-29" d="M6.51,5.66,7.21,5V4.12l-.66-.65v-1L6.07,2a.11.11,0,0,0,0-.12.1.1,0,0,0-.14,0,.12.12,0,0,0,0,.14.11.11,0,0,0,.12,0l.47.47v1l.66.65V5l-.7.69v1.3L7,7.46a.08.08,0,0,0,0,.11.1.1,0,0,0,.14,0,.09.09,0,0,0,0-.13.09.09,0,0,0-.12,0l-.5-.5Z"/><path class="cls-30" d="M6.19,4.34a.1.1,0,0,0-.07.1.09.09,0,0,0,.09.09.09.09,0,0,0,.1-.09.1.1,0,0,0-.07-.1V2.92L5.17,1.84a.11.11,0,0,0,0-.12.12.12,0,0,0-.14,0,.1.1,0,0,0,0,.14.11.11,0,0,0,.12,0L6.19,2.94Z"/><path class="cls-31" d="M7,2.14v1l.49.5v2l-.41.41v.8A.1.1,0,0,0,7,7a.11.11,0,0,0,.1.1.1.1,0,0,0,.1-.1.1.1,0,0,0-.07-.09V6.09l.41-.41v-2L7,3.14v-1L5.59.68a.11.11,0,0,0,0-.12A.1.1,0,0,0,5.43.7a.1.1,0,0,0,.12,0Z"/><path class="cls-32" d="M7.47,6a.12.12,0,0,0,0,.14.1.1,0,0,0,.14,0,.11.11,0,0,0,0-.12l.4-.4V4.5a.11.11,0,0,0,.07-.1A.09.09,0,0,0,8,4.31a.09.09,0,0,0-.1.09A.11.11,0,0,0,8,4.5V5.57L7.59,6A.11.11,0,0,0,7.47,6Z"/><path class="cls-33" d="M11.13.13a.1.1,0,0,0,.07.1V2.4L11,2.63V3.94l-1,1V6.32a.11.11,0,0,0-.07.1.09.09,0,0,0,.1.09.1.1,0,0,0,.1-.09.12.12,0,0,0-.08-.1V5l1-1V2.66l.24-.24V.23a.1.1,0,0,0,.07-.1A.09.09,0,0,0,11.23,0,.09.09,0,0,0,11.13.13Z"/><path class="cls-34" d="M7.68,22.66V20.84h0V16.59l-.89-.9V12.91L7,12.69a.14.14,0,0,0,.16,0A.13.13,0,1,0,7,12.48a.14.14,0,0,0,0,.16l-.24.24v2.74l-.5-.51a.14.14,0,0,0,0-.16.13.13,0,0,0-.19.19.14.14,0,0,0,.16,0l1.45,1.46V19L7,18.34v-1a.12.12,0,0,0,.1-.12.13.13,0,0,0-.13-.14.14.14,0,0,0-.14.14.12.12,0,0,0,.1.12v1l.71.71v1.69L6,19.15v-3l-1-1v-1l.93-.93V11.72h0l.5-.49V9.32a.12.12,0,0,0,.1-.12.14.14,0,0,0-.14-.14.13.13,0,0,0-.13.13.12.12,0,0,0,.1.13V11.2l-.43.42V8.74A.14.14,0,0,0,6,8.61a.13.13,0,1,0-.26,0,.14.14,0,0,0,.09.13v4.38L5,14V6.77a.14.14,0,0,0,.1-.13.13.13,0,0,0-.13-.13.13.13,0,0,0-.14.13.15.15,0,0,0,.1.13v8.38l1,1v3l.91.92V21l-.36.35a.14.14,0,0,0-.16,0,.13.13,0,0,0,.19.19.14.14,0,0,0,0-.16l.38-.37v-.9l.71.71v1.82L8.86,24v1.18l.38.38v3.16a.14.14,0,0,0-.1.13.13.13,0,0,0,.14.13.13.13,0,0,0,.13-.13.13.13,0,0,0-.1-.13V25.49l-.39-.39V23.92Z"/><path class="cls-35" d="M6.91,8.09l-.58-.58V4.17A.14.14,0,0,0,6.43,4a.13.13,0,0,0-.13-.13A.13.13,0,0,0,6.16,4a.14.14,0,0,0,.1.13V7.54l.64.64h0v3l1.22,1.23v1.65l-.6.6a.14.14,0,0,0-.16,0,.13.13,0,0,0,.19.19.14.14,0,0,0,0-.16l.62-.62V12.5l1,1v6l1.59,1.59v3.51h.08V21.1L9.27,19.51V16.79h0l.67-.66V12.6l-2.2-2.2V9.62l.8-.8V3.72L9.24,3A.14.14,0,0,0,9.4,3a.14.14,0,0,0,0-.19.12.12,0,0,0-.19,0,.14.14,0,0,0,0,.16l-.72.71v5.1l-.73.73V7.35a.14.14,0,0,0,.09-.13.13.13,0,0,0-.26,0,.14.14,0,0,0,.1.13v3.08l2.2,2.2V16.1l-.6.59V13.47L7,11.16V2.69a.12.12,0,0,0,.1-.12.14.14,0,1,0-.27,0,.13.13,0,0,0,.1.13Z"/><path class="cls-36" d="M8.27,29.13a.14.14,0,0,0,0-.16l.64-.64v-1.4l-.72-.73V24.86L7,23.66v-1a.14.14,0,0,0,.1-.13A.13.13,0,0,0,7,22.36a.13.13,0,0,0-.14.13.14.14,0,0,0,.1.13v1.07l1.2,1.2v1.24L6.2,24.19v-2l-.84-.84v-3l-.63-.63V16l-.22-.22a.14.14,0,0,0,0-.16.13.13,0,0,0-.19.19.14.14,0,0,0,.16,0l.2.2v.92L3.45,15.7v-.87l.75-.75v-1.5a.12.12,0,0,0,.1-.12.13.13,0,0,0-.13-.14.14.14,0,0,0-.14.14.12.12,0,0,0,.1.12v1.47l-.68.68V12.39l.77-.77V6l.42-.42a.14.14,0,0,0,.16,0,.14.14,0,0,0,0-.19.13.13,0,0,0-.19,0,.14.14,0,0,0,0,.16L4.16,6v4.25L3,9.09V3.85L2.11,3a.14.14,0,0,0,0-.16A.13.13,0,0,0,1.9,3a.14.14,0,0,0,.16,0l.86.86V9.11l1.24,1.25v1.23l-.77.77v3.37L4.67,17v.71l.63.62v2.93L4.08,20.07V17.41a.14.14,0,0,0,.1-.13A.13.13,0,0,0,4,17.15a.13.13,0,0,0-.13.13.14.14,0,0,0,.1.13V20.1l2.12,2.13v2L8.86,27V28.3l-.62.62a.12.12,0,0,0-.16,0,.13.13,0,0,0,.19.19Z"/></g><g class="cls-37"><path class="cls-11" d="M4.43,26.84a.09.09,0,0,0-.07-.09V25.52l.5-.5V20.74l-.81-.81V18.48l1-1V15.82L3.57,14.35V10.57L2.51,9.51V9.08l-.73-.74V7L.18,5.41a.09.09,0,0,0,0-.11A.1.1,0,0,0,0,5.3a.09.09,0,0,0,0,.13.08.08,0,0,0,.11,0L1.73,7V8.36l.73.74v.43l1.06,1.06v3.78L5,15.84v1.63l-1,1V20l.82.81V25l-.51.5v1.24a.11.11,0,0,0-.07.1.1.1,0,0,0,.2,0Z"/><path class="cls-12" d="M9.16,27a.1.1,0,0,0-.07-.09V25l-.42-.42V21.75l.54-.54V20L9,19.74V17.8l1-1v-2l-.89-.9V12.07l1.16-1.16V9.72l-.94-.93V8.12l1.39-1.38V6l1.05-1a.1.1,0,0,0,.12,0,.1.1,0,0,0-.14-.14.09.09,0,0,0,0,.11L10.71,5.93v.79L9.32,8.1v.71l.93.94v1.13L9.09,12.05V13.9l.89.9v1.95l-1,1v2l.23.22v1.21l-.53.54v2.82L9,25v2A.1.1,0,0,0,9,27a.09.09,0,0,0,.09.1A.09.09,0,0,0,9.16,27Z"/><path class="cls-13" d="M6.35,26.73a.1.1,0,0,0-.07-.09v-3.8L7.42,21.7V20.18l-.88-.89V17.08l1-1V14.48l-.37-.38V12.68l.58-.58V11l-.62-.63V9.12L8,8.29V6.76L9,5.67V1.87L9.89,1A.09.09,0,0,0,10,1a.1.1,0,0,0,0-.14.12.12,0,0,0-.14,0,.11.11,0,0,0,0,.12L9,1.85v3.8L7.9,6.74V8.27l-.84.83v1.25l.63.63v1.1l-.58.58v1.46l.37.38v1.57l-1,1v2.27l.89.88v1.48L6.23,22.82v3.82a.1.1,0,0,0-.07.09.09.09,0,0,0,.09.1A.09.09,0,0,0,6.35,26.73Z"/><path class="cls-14" d="M5.39,25l-.57.57v1.06a.09.09,0,0,0-.08.09.11.11,0,0,0,.1.1.1.1,0,0,0,.1-.1.1.1,0,0,0-.07-.09v-1L5.44,25V22.64l1.22-1.22v-1l-.77-.78V16.8l.87-.86V14.67L6.08,14V11.83l.64-.63V8.57L5.19,7V4l-.59-.59a.11.11,0,0,0,0-.12.1.1,0,0,0-.14,0,.12.12,0,0,0,0,.14.11.11,0,0,0,.12,0L5.14,4v3L6.67,8.59v2.58L6,11.81V14l.68.69v1.23l-.86.86v2.91l.77.78v.92L5.39,22.62Z"/><path class="cls-15" d="M5.34,21.8a.09.09,0,0,0,0,.13.1.1,0,0,0,.14,0,.09.09,0,0,0,0-.11l.67-.66v-.64l-.77-.77V16.9L6.27,16V14.87L5.42,14v-2.3a.1.1,0,0,0,.07-.1.09.09,0,0,0-.09-.09.09.09,0,0,0-.1.09.1.1,0,0,0,.07.1V14l.85.85V16l-.88.88v2.89l.76.77v.59l-.64.65A.09.09,0,0,0,5.34,21.8Z"/><path class="cls-16" d="M5.34,20.94v-.59l-.52-.52V18.48a.09.09,0,0,0,.08-.09.1.1,0,1,0-.2,0,.1.1,0,0,0,.07.09v1.37l.52.52v.57a.1.1,0,0,0-.07.09.09.09,0,0,0,.09.1.09.09,0,0,0,.1-.1A.1.1,0,0,0,5.34,20.94Z"/><path class="cls-17" d="M2,3.71V5L3,6V8.5L4.21,9.73v4.39l1.34,1.33a.1.1,0,0,0,0,.12.1.1,0,0,0,.14-.14.1.1,0,0,0-.12,0L4.25,14.1V9.71L3,8.48V6L2,5V3.69l-.95-.95V1.11A.1.1,0,0,0,1.15,1,.1.1,0,1,0,1,1a.1.1,0,0,0,.07.1V2.76Z"/><path class="cls-18" d="M4.53,11.29V13.7l1.18,1.18a.11.11,0,0,0,0,.12.12.12,0,0,0,.14,0,.1.1,0,0,0,0-.14.09.09,0,0,0-.11,0L4.58,13.68V11.31l.72-.73V9.14L4.24,8.06V5.38a.1.1,0,0,0,.07-.09.1.1,0,0,0-.09-.1.09.09,0,0,0-.1.1.1.1,0,0,0,.07.09V8.09L5.26,9.16v1.4Z"/><path class="cls-19" d="M2.85,4.3l.82.82V8.41L4.78,9.53v.72a.1.1,0,0,0-.07.09.1.1,0,0,0,.09.1.1.1,0,0,0,.1-.1.1.1,0,0,0-.07-.09V9.51L3.71,8.39V5.09L2.9,4.28V3.12l-.59-.6a.11.11,0,0,0,0-.12.1.1,0,1,0-.14.14.11.11,0,0,0,.12,0l.58.58Z"/><path class="cls-20" d="M4.85,5V7.34L6.23,8.72v2.07l-.58.57V12.9a.1.1,0,0,0-.07.09.09.09,0,0,0,.1.1.09.09,0,0,0,.09-.1.1.1,0,0,0-.07-.09V11.38l.58-.57V8.69L4.9,7.32V5A.11.11,0,0,0,5,4.9a.1.1,0,1,0-.2,0A.11.11,0,0,0,4.85,5Z"/><path class="cls-21" d="M3.27,2.42a.09.09,0,0,0,.07.09v1l1.2,1.2V7.71L5.78,9v1.67L5,11.37v2a.1.1,0,1,0,.06,0V11.39l.74-.74V8.94L4.59,7.69V4.64L3.4,3.44V2.51a.09.09,0,0,0,.07-.09.1.1,0,0,0-.2,0Z"/><path class="cls-22" d="M1.26,5.77l1,1V8.43L3.86,10v3.93a.09.09,0,0,0-.07.09.1.1,0,0,0,.09.1A.1.1,0,0,0,4,14a.09.09,0,0,0-.07-.09V10L2.35,8.4V6.78l-1-1V4.09l-1-1a.11.11,0,0,0,0-.12.12.12,0,0,0-.14,0,.1.1,0,0,0,0,.14.09.09,0,0,0,.11,0l1,1Z"/><path class="cls-23" d="M8.39,23.67a.1.1,0,0,0-.07-.09V21.4L8.76,21v-3.4l.86-.87V15.05L8.55,14V11.57l1-1V9.54l-.71-.71v-1l.91-.92V2.06A.1.1,0,0,0,9.81,2a.09.09,0,0,0-.1-.1.09.09,0,0,0-.09.1.1.1,0,0,0,.07.09V6.85l-.92.91V8.85l.72.71v1l-1,1V14l1.08,1.09v1.6l-.87.87v3.4l-.44.44v2.2a.09.09,0,0,0-.08.09.1.1,0,0,0,.1.1A.09.09,0,0,0,8.39,23.67Z"/><path class="cls-24" d="M7.69,13.25V12.8l.48-.47V10.52l-.44-.44v-1l.52-.51V7l1.2-1.2V2.2a.1.1,0,0,0,.08-.09.11.11,0,0,0-.1-.1.1.1,0,0,0-.1.1.09.09,0,0,0,.07.09V5.79L8.2,7V8.57l-.51.51v1l.43.44V12.3l-.47.48v.49l.39.39v2.43l-1,1v1.77l.71.72v1.57a.1.1,0,0,0-.07.1.09.09,0,0,0,.1.09.09.09,0,0,0,.09-.09.1.1,0,0,0-.07-.1v-1.6l-.71-.71V17.1l1-1V13.64Z"/><path class="cls-25" d="M8.83,15.05A.11.11,0,0,0,8.9,15a.09.09,0,0,0-.09-.09.09.09,0,0,0-.1.09.11.11,0,0,0,.07.1v.79L7.57,17.05v1.53l.5.5v1.75a.1.1,0,0,0-.07.09.1.1,0,0,0,.09.1.1.1,0,0,0,.1-.1.1.1,0,0,0-.07-.09V19.06l-.5-.5V17.07l1.21-1.21Z"/><path class="cls-26" d="M9,16.41a.1.1,0,0,0,0-.14.12.12,0,0,0-.14,0,.09.09,0,0,0,0,.12l-1,.95v1l.48.49v1.69a.1.1,0,0,0-.07.1.09.09,0,0,0,.1.09.09.09,0,0,0,.09-.09.1.1,0,0,0-.07-.1V18.8L8,18.31v-.95l.93-.93A.11.11,0,0,0,9,16.41Z"/><path class="cls-27" d="M5.94,3.75l-1-1a.1.1,0,0,0,0-.12.1.1,0,0,0-.14.14.09.09,0,0,0,.11,0l1,1V7.14L7.06,8.32a.09.09,0,0,0,0,.11.09.09,0,0,0,.13-.13.08.08,0,0,0-.11,0L5.94,7.12Z"/><path class="cls-28" d="M8.33,1.06v1l-.48.48V3.63l.55.54V5.53l-.94.94V7.93A.1.1,0,0,0,7.38,8a.1.1,0,0,0,.09.1.1.1,0,0,0,.1-.1.1.1,0,0,0-.07-.09V6.49l.95-.94V4.15L7.9,3.61v-1l.48-.47v-1l.9-.9a.09.09,0,0,0,.11,0,.1.1,0,0,0,0-.14.1.1,0,0,0-.14,0,.09.09,0,0,0,0,.11Z"/><path class="cls-29" d="M6.51,5.66,7.21,5V4.12l-.66-.65v-1L6.07,2a.11.11,0,0,0,0-.12.1.1,0,0,0-.14,0,.12.12,0,0,0,0,.14.11.11,0,0,0,.12,0l.47.47v1l.66.65V5l-.7.69v1.3L7,7.46a.08.08,0,0,0,0,.11.1.1,0,0,0,.14,0,.09.09,0,0,0,0-.13.09.09,0,0,0-.12,0l-.5-.5Z"/><path class="cls-30" d="M6.19,4.34a.1.1,0,0,0-.07.1.09.09,0,0,0,.09.09.09.09,0,0,0,.1-.09.1.1,0,0,0-.07-.1V2.92L5.17,1.84a.11.11,0,0,0,0-.12.12.12,0,0,0-.14,0,.1.1,0,0,0,0,.14.11.11,0,0,0,.12,0L6.19,2.94Z"/><path class="cls-31" d="M7,2.14v1l.49.5v2l-.41.41v.8A.1.1,0,0,0,7,7a.11.11,0,0,0,.1.1.1.1,0,0,0,.1-.1.1.1,0,0,0-.07-.09V6.09l.41-.41v-2L7,3.14v-1L5.59.68a.11.11,0,0,0,0-.12A.1.1,0,0,0,5.43.7a.1.1,0,0,0,.12,0Z"/><path class="cls-32" d="M7.47,6a.12.12,0,0,0,0,.14.1.1,0,0,0,.14,0,.11.11,0,0,0,0-.12l.4-.4V4.5a.11.11,0,0,0,.07-.1A.09.09,0,0,0,8,4.31a.09.09,0,0,0-.1.09A.11.11,0,0,0,8,4.5V5.57L7.59,6A.11.11,0,0,0,7.47,6Z"/><path class="cls-33" d="M11.13.13a.1.1,0,0,0,.07.1V2.4L11,2.63V3.94l-1,1V6.32a.11.11,0,0,0-.07.1.09.09,0,0,0,.1.09.1.1,0,0,0,.1-.09.12.12,0,0,0-.08-.1V5l1-1V2.66l.24-.24V.23a.1.1,0,0,0,.07-.1A.09.09,0,0,0,11.23,0,.09.09,0,0,0,11.13.13Z"/><path class="cls-34" d="M7.68,22.66V20.84h0V16.59l-.89-.9V12.91L7,12.69a.14.14,0,0,0,.16,0A.13.13,0,1,0,7,12.48a.14.14,0,0,0,0,.16l-.24.24v2.74l-.5-.51a.14.14,0,0,0,0-.16.13.13,0,0,0-.19.19.14.14,0,0,0,.16,0l1.45,1.46V19L7,18.34v-1a.12.12,0,0,0,.1-.12.13.13,0,0,0-.13-.14.14.14,0,0,0-.14.14.12.12,0,0,0,.1.12v1l.71.71v1.69L6,19.15v-3l-1-1v-1l.93-.93V11.72h0l.5-.49V9.32a.12.12,0,0,0,.1-.12.14.14,0,0,0-.14-.14.13.13,0,0,0-.13.13.12.12,0,0,0,.1.13V11.2l-.43.42V8.74A.14.14,0,0,0,6,8.61a.13.13,0,1,0-.26,0,.14.14,0,0,0,.09.13v4.38L5,14V6.77a.14.14,0,0,0,.1-.13.13.13,0,0,0-.13-.13.13.13,0,0,0-.14.13.15.15,0,0,0,.1.13v8.38l1,1v3l.91.92V21l-.36.35a.14.14,0,0,0-.16,0,.13.13,0,0,0,.19.19.14.14,0,0,0,0-.16l.38-.37v-.9l.71.71v1.82L8.86,24v1.18l.38.38v3.16a.14.14,0,0,0-.1.13.13.13,0,0,0,.14.13.13.13,0,0,0,.13-.13.13.13,0,0,0-.1-.13V25.49l-.39-.39V23.92Z"/><path class="cls-35" d="M6.91,8.09l-.58-.58V4.17A.14.14,0,0,0,6.43,4a.13.13,0,0,0-.13-.13A.13.13,0,0,0,6.16,4a.14.14,0,0,0,.1.13V7.54l.64.64h0v3l1.22,1.23v1.65l-.6.6a.14.14,0,0,0-.16,0,.13.13,0,0,0,.19.19.14.14,0,0,0,0-.16l.62-.62V12.5l1,1v6l1.59,1.59v3.51h.08V21.1L9.27,19.51V16.79h0l.67-.66V12.6l-2.2-2.2V9.62l.8-.8V3.72L9.24,3A.14.14,0,0,0,9.4,3a.14.14,0,0,0,0-.19.12.12,0,0,0-.19,0,.14.14,0,0,0,0,.16l-.72.71v5.1l-.73.73V7.35a.14.14,0,0,0,.09-.13.13.13,0,0,0-.26,0,.14.14,0,0,0,.1.13v3.08l2.2,2.2V16.1l-.6.59V13.47L7,11.16V2.69a.12.12,0,0,0,.1-.12.14.14,0,1,0-.27,0,.13.13,0,0,0,.1.13Z"/><path class="cls-36" d="M8.27,29.13a.14.14,0,0,0,0-.16l.64-.64v-1.4l-.72-.73V24.86L7,23.66v-1a.14.14,0,0,0,.1-.13A.13.13,0,0,0,7,22.36a.13.13,0,0,0-.14.13.14.14,0,0,0,.1.13v1.07l1.2,1.2v1.24L6.2,24.19v-2l-.84-.84v-3l-.63-.63V16l-.22-.22a.14.14,0,0,0,0-.16.13.13,0,0,0-.19.19.14.14,0,0,0,.16,0l.2.2v.92L3.45,15.7v-.87l.75-.75v-1.5a.12.12,0,0,0,.1-.12.13.13,0,0,0-.13-.14.14.14,0,0,0-.14.14.12.12,0,0,0,.1.12v1.47l-.68.68V12.39l.77-.77V6l.42-.42a.14.14,0,0,0,.16,0,.14.14,0,0,0,0-.19.13.13,0,0,0-.19,0,.14.14,0,0,0,0,.16L4.16,6v4.25L3,9.09V3.85L2.11,3a.14.14,0,0,0,0-.16A.13.13,0,0,0,1.9,3a.14.14,0,0,0,.16,0l.86.86V9.11l1.24,1.25v1.23l-.77.77v3.37L4.67,17v.71l.63.62v2.93L4.08,20.07V17.41a.14.14,0,0,0,.1-.13A.13.13,0,0,0,4,17.15a.13.13,0,0,0-.13.13.14.14,0,0,0,.1.13V20.1l2.12,2.13v2L8.86,27V28.3l-.62.62a.12.12,0,0,0-.16,0,.13.13,0,0,0,.19.19Z"/></g><g class="cls-38"><path class="cls-11" d="M4.43,26.84a.09.09,0,0,0-.07-.09V25.52l.5-.5V20.74l-.81-.81V18.48l1-1V15.82L3.57,14.35V10.57L2.51,9.51V9.08l-.73-.74V7L.18,5.41a.09.09,0,0,0,0-.11A.1.1,0,0,0,0,5.3a.09.09,0,0,0,0,.13.08.08,0,0,0,.11,0L1.73,7V8.36l.73.74v.43l1.06,1.06v3.78L5,15.84v1.63l-1,1V20l.82.81V25l-.51.5v1.24a.11.11,0,0,0-.07.1.1.1,0,0,0,.2,0Z"/><path class="cls-12" d="M9.16,27a.1.1,0,0,0-.07-.09V25l-.42-.42V21.75l.54-.54V20L9,19.74V17.8l1-1v-2l-.89-.9V12.07l1.16-1.16V9.72l-.94-.93V8.12l1.39-1.38V6l1.05-1a.1.1,0,0,0,.12,0,.1.1,0,0,0-.14-.14.09.09,0,0,0,0,.11L10.71,5.93v.79L9.32,8.1v.71l.93.94v1.13L9.09,12.05V13.9l.89.9v1.95l-1,1v2l.23.22v1.21l-.53.54v2.82L9,25v2A.1.1,0,0,0,9,27a.09.09,0,0,0,.09.1A.09.09,0,0,0,9.16,27Z"/><path class="cls-13" d="M6.35,26.73a.1.1,0,0,0-.07-.09v-3.8L7.42,21.7V20.18l-.88-.89V17.08l1-1V14.48l-.37-.38V12.68l.58-.58V11l-.62-.63V9.12L8,8.29V6.76L9,5.67V1.87L9.89,1A.09.09,0,0,0,10,1a.1.1,0,0,0,0-.14.12.12,0,0,0-.14,0,.11.11,0,0,0,0,.12L9,1.85v3.8L7.9,6.74V8.27l-.84.83v1.25l.63.63v1.1l-.58.58v1.46l.37.38v1.57l-1,1v2.27l.89.88v1.48L6.23,22.82v3.82a.1.1,0,0,0-.07.09.09.09,0,0,0,.09.1A.09.09,0,0,0,6.35,26.73Z"/><path class="cls-14" d="M5.39,25l-.57.57v1.06a.09.09,0,0,0-.08.09.11.11,0,0,0,.1.1.1.1,0,0,0,.1-.1.1.1,0,0,0-.07-.09v-1L5.44,25V22.64l1.22-1.22v-1l-.77-.78V16.8l.87-.86V14.67L6.08,14V11.83l.64-.63V8.57L5.19,7V4l-.59-.59a.11.11,0,0,0,0-.12.1.1,0,0,0-.14,0,.12.12,0,0,0,0,.14.11.11,0,0,0,.12,0L5.14,4v3L6.67,8.59v2.58L6,11.81V14l.68.69v1.23l-.86.86v2.91l.77.78v.92L5.39,22.62Z"/><path class="cls-15" d="M5.34,21.8a.09.09,0,0,0,0,.13.1.1,0,0,0,.14,0,.09.09,0,0,0,0-.11l.67-.66v-.64l-.77-.77V16.9L6.27,16V14.87L5.42,14v-2.3a.1.1,0,0,0,.07-.1.09.09,0,0,0-.09-.09.09.09,0,0,0-.1.09.1.1,0,0,0,.07.1V14l.85.85V16l-.88.88v2.89l.76.77v.59l-.64.65A.09.09,0,0,0,5.34,21.8Z"/><path class="cls-16" d="M5.34,20.94v-.59l-.52-.52V18.48a.09.09,0,0,0,.08-.09.1.1,0,1,0-.2,0,.1.1,0,0,0,.07.09v1.37l.52.52v.57a.1.1,0,0,0-.07.09.09.09,0,0,0,.09.1.09.09,0,0,0,.1-.1A.1.1,0,0,0,5.34,20.94Z"/><path class="cls-17" d="M2,3.71V5L3,6V8.5L4.21,9.73v4.39l1.34,1.33a.1.1,0,0,0,0,.12.1.1,0,0,0,.14-.14.1.1,0,0,0-.12,0L4.25,14.1V9.71L3,8.48V6L2,5V3.69l-.95-.95V1.11A.1.1,0,0,0,1.15,1,.1.1,0,1,0,1,1a.1.1,0,0,0,.07.1V2.76Z"/><path class="cls-18" d="M4.53,11.29V13.7l1.18,1.18a.11.11,0,0,0,0,.12.12.12,0,0,0,.14,0,.1.1,0,0,0,0-.14.09.09,0,0,0-.11,0L4.58,13.68V11.31l.72-.73V9.14L4.24,8.06V5.38a.1.1,0,0,0,.07-.09.1.1,0,0,0-.09-.1.09.09,0,0,0-.1.1.1.1,0,0,0,.07.09V8.09L5.26,9.16v1.4Z"/><path class="cls-19" d="M2.85,4.3l.82.82V8.41L4.78,9.53v.72a.1.1,0,0,0-.07.09.1.1,0,0,0,.09.1.1.1,0,0,0,.1-.1.1.1,0,0,0-.07-.09V9.51L3.71,8.39V5.09L2.9,4.28V3.12l-.59-.6a.11.11,0,0,0,0-.12.1.1,0,1,0-.14.14.11.11,0,0,0,.12,0l.58.58Z"/><path class="cls-20" d="M4.85,5V7.34L6.23,8.72v2.07l-.58.57V12.9a.1.1,0,0,0-.07.09.09.09,0,0,0,.1.1.09.09,0,0,0,.09-.1.1.1,0,0,0-.07-.09V11.38l.58-.57V8.69L4.9,7.32V5A.11.11,0,0,0,5,4.9a.1.1,0,1,0-.2,0A.11.11,0,0,0,4.85,5Z"/><path class="cls-21" d="M3.27,2.42a.09.09,0,0,0,.07.09v1l1.2,1.2V7.71L5.78,9v1.67L5,11.37v2a.1.1,0,1,0,.06,0V11.39l.74-.74V8.94L4.59,7.69V4.64L3.4,3.44V2.51a.09.09,0,0,0,.07-.09.1.1,0,0,0-.2,0Z"/><path class="cls-22" d="M1.26,5.77l1,1V8.43L3.86,10v3.93a.09.09,0,0,0-.07.09.1.1,0,0,0,.09.1A.1.1,0,0,0,4,14a.09.09,0,0,0-.07-.09V10L2.35,8.4V6.78l-1-1V4.09l-1-1a.11.11,0,0,0,0-.12.12.12,0,0,0-.14,0,.1.1,0,0,0,0,.14.09.09,0,0,0,.11,0l1,1Z"/><path class="cls-23" d="M8.39,23.67a.1.1,0,0,0-.07-.09V21.4L8.76,21v-3.4l.86-.87V15.05L8.55,14V11.57l1-1V9.54l-.71-.71v-1l.91-.92V2.06A.1.1,0,0,0,9.81,2a.09.09,0,0,0-.1-.1.09.09,0,0,0-.09.1.1.1,0,0,0,.07.09V6.85l-.92.91V8.85l.72.71v1l-1,1V14l1.08,1.09v1.6l-.87.87v3.4l-.44.44v2.2a.09.09,0,0,0-.08.09.1.1,0,0,0,.1.1A.09.09,0,0,0,8.39,23.67Z"/><path class="cls-24" d="M7.69,13.25V12.8l.48-.47V10.52l-.44-.44v-1l.52-.51V7l1.2-1.2V2.2a.1.1,0,0,0,.08-.09.11.11,0,0,0-.1-.1.1.1,0,0,0-.1.1.09.09,0,0,0,.07.09V5.79L8.2,7V8.57l-.51.51v1l.43.44V12.3l-.47.48v.49l.39.39v2.43l-1,1v1.77l.71.72v1.57a.1.1,0,0,0-.07.1.09.09,0,0,0,.1.09.09.09,0,0,0,.09-.09.1.1,0,0,0-.07-.1v-1.6l-.71-.71V17.1l1-1V13.64Z"/><path class="cls-25" d="M8.83,15.05A.11.11,0,0,0,8.9,15a.09.09,0,0,0-.09-.09.09.09,0,0,0-.1.09.11.11,0,0,0,.07.1v.79L7.57,17.05v1.53l.5.5v1.75a.1.1,0,0,0-.07.09.1.1,0,0,0,.09.1.1.1,0,0,0,.1-.1.1.1,0,0,0-.07-.09V19.06l-.5-.5V17.07l1.21-1.21Z"/><path class="cls-26" d="M9,16.41a.1.1,0,0,0,0-.14.12.12,0,0,0-.14,0,.09.09,0,0,0,0,.12l-1,.95v1l.48.49v1.69a.1.1,0,0,0-.07.1.09.09,0,0,0,.1.09.09.09,0,0,0,.09-.09.1.1,0,0,0-.07-.1V18.8L8,18.31v-.95l.93-.93A.11.11,0,0,0,9,16.41Z"/><path class="cls-27" d="M5.94,3.75l-1-1a.1.1,0,0,0,0-.12.1.1,0,0,0-.14.14.09.09,0,0,0,.11,0l1,1V7.14L7.06,8.32a.09.09,0,0,0,0,.11.09.09,0,0,0,.13-.13.08.08,0,0,0-.11,0L5.94,7.12Z"/><path class="cls-28" d="M8.33,1.06v1l-.48.48V3.63l.55.54V5.53l-.94.94V7.93A.1.1,0,0,0,7.38,8a.1.1,0,0,0,.09.1.1.1,0,0,0,.1-.1.1.1,0,0,0-.07-.09V6.49l.95-.94V4.15L7.9,3.61v-1l.48-.47v-1l.9-.9a.09.09,0,0,0,.11,0,.1.1,0,0,0,0-.14.1.1,0,0,0-.14,0,.09.09,0,0,0,0,.11Z"/><path class="cls-29" d="M6.51,5.66,7.21,5V4.12l-.66-.65v-1L6.07,2a.11.11,0,0,0,0-.12.1.1,0,0,0-.14,0,.12.12,0,0,0,0,.14.11.11,0,0,0,.12,0l.47.47v1l.66.65V5l-.7.69v1.3L7,7.46a.08.08,0,0,0,0,.11.1.1,0,0,0,.14,0,.09.09,0,0,0,0-.13.09.09,0,0,0-.12,0l-.5-.5Z"/><path class="cls-30" d="M6.19,4.34a.1.1,0,0,0-.07.1.09.09,0,0,0,.09.09.09.09,0,0,0,.1-.09.1.1,0,0,0-.07-.1V2.92L5.17,1.84a.11.11,0,0,0,0-.12.12.12,0,0,0-.14,0,.1.1,0,0,0,0,.14.11.11,0,0,0,.12,0L6.19,2.94Z"/><path class="cls-31" d="M7,2.14v1l.49.5v2l-.41.41v.8A.1.1,0,0,0,7,7a.11.11,0,0,0,.1.1.1.1,0,0,0,.1-.1.1.1,0,0,0-.07-.09V6.09l.41-.41v-2L7,3.14v-1L5.59.68a.11.11,0,0,0,0-.12A.1.1,0,0,0,5.43.7a.1.1,0,0,0,.12,0Z"/><path class="cls-32" d="M7.47,6a.12.12,0,0,0,0,.14.1.1,0,0,0,.14,0,.11.11,0,0,0,0-.12l.4-.4V4.5a.11.11,0,0,0,.07-.1A.09.09,0,0,0,8,4.31a.09.09,0,0,0-.1.09A.11.11,0,0,0,8,4.5V5.57L7.59,6A.11.11,0,0,0,7.47,6Z"/><path class="cls-33" d="M11.13.13a.1.1,0,0,0,.07.1V2.4L11,2.63V3.94l-1,1V6.32a.11.11,0,0,0-.07.1.09.09,0,0,0,.1.09.1.1,0,0,0,.1-.09.12.12,0,0,0-.08-.1V5l1-1V2.66l.24-.24V.23a.1.1,0,0,0,.07-.1A.09.09,0,0,0,11.23,0,.09.09,0,0,0,11.13.13Z"/><path class="cls-34" d="M7.68,22.66V20.84h0V16.59l-.89-.9V12.91L7,12.69a.14.14,0,0,0,.16,0A.13.13,0,1,0,7,12.48a.14.14,0,0,0,0,.16l-.24.24v2.74l-.5-.51a.14.14,0,0,0,0-.16.13.13,0,0,0-.19.19.14.14,0,0,0,.16,0l1.45,1.46V19L7,18.34v-1a.12.12,0,0,0,.1-.12.13.13,0,0,0-.13-.14.14.14,0,0,0-.14.14.12.12,0,0,0,.1.12v1l.71.71v1.69L6,19.15v-3l-1-1v-1l.93-.93V11.72h0l.5-.49V9.32a.12.12,0,0,0,.1-.12.14.14,0,0,0-.14-.14.13.13,0,0,0-.13.13.12.12,0,0,0,.1.13V11.2l-.43.42V8.74A.14.14,0,0,0,6,8.61a.13.13,0,1,0-.26,0,.14.14,0,0,0,.09.13v4.38L5,14V6.77a.14.14,0,0,0,.1-.13.13.13,0,0,0-.13-.13.13.13,0,0,0-.14.13.15.15,0,0,0,.1.13v8.38l1,1v3l.91.92V21l-.36.35a.14.14,0,0,0-.16,0,.13.13,0,0,0,.19.19.14.14,0,0,0,0-.16l.38-.37v-.9l.71.71v1.82L8.86,24v1.18l.38.38v3.16a.14.14,0,0,0-.1.13.13.13,0,0,0,.14.13.13.13,0,0,0,.13-.13.13.13,0,0,0-.1-.13V25.49l-.39-.39V23.92Z"/><path class="cls-35" d="M6.91,8.09l-.58-.58V4.17A.14.14,0,0,0,6.43,4a.13.13,0,0,0-.13-.13A.13.13,0,0,0,6.16,4a.14.14,0,0,0,.1.13V7.54l.64.64h0v3l1.22,1.23v1.65l-.6.6a.14.14,0,0,0-.16,0,.13.13,0,0,0,.19.19.14.14,0,0,0,0-.16l.62-.62V12.5l1,1v6l1.59,1.59v3.51h.08V21.1L9.27,19.51V16.79h0l.67-.66V12.6l-2.2-2.2V9.62l.8-.8V3.72L9.24,3A.14.14,0,0,0,9.4,3a.14.14,0,0,0,0-.19.12.12,0,0,0-.19,0,.14.14,0,0,0,0,.16l-.72.71v5.1l-.73.73V7.35a.14.14,0,0,0,.09-.13.13.13,0,0,0-.26,0,.14.14,0,0,0,.1.13v3.08l2.2,2.2V16.1l-.6.59V13.47L7,11.16V2.69a.12.12,0,0,0,.1-.12.14.14,0,1,0-.27,0,.13.13,0,0,0,.1.13Z"/><path class="cls-36" d="M8.27,29.13a.14.14,0,0,0,0-.16l.64-.64v-1.4l-.72-.73V24.86L7,23.66v-1a.14.14,0,0,0,.1-.13A.13.13,0,0,0,7,22.36a.13.13,0,0,0-.14.13.14.14,0,0,0,.1.13v1.07l1.2,1.2v1.24L6.2,24.19v-2l-.84-.84v-3l-.63-.63V16l-.22-.22a.14.14,0,0,0,0-.16.13.13,0,0,0-.19.19.14.14,0,0,0,.16,0l.2.2v.92L3.45,15.7v-.87l.75-.75v-1.5a.12.12,0,0,0,.1-.12.13.13,0,0,0-.13-.14.14.14,0,0,0-.14.14.12.12,0,0,0,.1.12v1.47l-.68.68V12.39l.77-.77V6l.42-.42a.14.14,0,0,0,.16,0,.14.14,0,0,0,0-.19.13.13,0,0,0-.19,0,.14.14,0,0,0,0,.16L4.16,6v4.25L3,9.09V3.85L2.11,3a.14.14,0,0,0,0-.16A.13.13,0,0,0,1.9,3a.14.14,0,0,0,.16,0l.86.86V9.11l1.24,1.25v1.23l-.77.77v3.37L4.67,17v.71l.63.62v2.93L4.08,20.07V17.41a.14.14,0,0,0,.1-.13A.13.13,0,0,0,4,17.15a.13.13,0,0,0-.13.13.14.14,0,0,0,.1.13V20.1l2.12,2.13v2L8.86,27V28.3l-.62.62a.12.12,0,0,0-.16,0,.13.13,0,0,0,.19.19Z"/></g></g></g></g></svg>