<svg xmlns="http://www.w3.org/2000/svg" xmlns:xlink="http://www.w3.org/1999/xlink" viewBox="0 0 150.28 31.55"><defs><style>.cls-1{fill:none;}.cls-2{isolation:isolate;}.cls-3{fill:#9c4dad;}.cls-4{fill:#7f42a0;}.cls-5{fill:#009a78;}.cls-6{fill:#007b5f;}.cls-7{fill:#00593f;}.cls-8{fill:#4f317a;}.cls-9{opacity:0.47;}.cls-10{clip-path:url(#clip-path);}.cls-11,.cls-12,.cls-13,.cls-14,.cls-15,.cls-16,.cls-17,.cls-18,.cls-19,.cls-20,.cls-21,.cls-22,.cls-23,.cls-24,.cls-25,.cls-26,.cls-27,.cls-28,.cls-29,.cls-30,.cls-31,.cls-32,.cls-33,.cls-34,.cls-35{mix-blend-mode:color-dodge;}.cls-11{fill:url(#linear-gradient);}.cls-12{fill:url(#linear-gradient-2);}.cls-13{fill:url(#linear-gradient-3);}.cls-14{fill:url(#linear-gradient-4);}.cls-15{fill:url(#linear-gradient-5);}.cls-16{fill:url(#linear-gradient-6);}.cls-17{fill:url(#linear-gradient-7);}.cls-18{fill:url(#linear-gradient-8);}.cls-19{fill:url(#linear-gradient-9);}.cls-20{fill:url(#linear-gradient-10);}.cls-21{fill:url(#linear-gradient-11);}.cls-22{fill:url(#linear-gradient-12);}.cls-23{fill:url(#linear-gradient-13);}.cls-24{fill:url(#linear-gradient-14);}.cls-25{fill:url(#linear-gradient-15);}.cls-26{fill:url(#linear-gradient-16);}.cls-27{fill:url(#linear-gradient-17);}.cls-28{fill:url(#linear-gradient-18);}.cls-29{fill:url(#linear-gradient-19);}.cls-30{fill:url(#linear-gradient-20);}.cls-31{fill:url(#linear-gradient-21);}.cls-32{fill:url(#linear-gradient-22);}.cls-33{fill:url(#linear-gradient-23);}.cls-34{fill:url(#linear-gradient-24);}.cls-35{fill:url(#linear-gradient-25);}.cls-36,.cls-37,.cls-38{mix-blend-mode:color-burn;}.cls-36{fill:url(#linear-gradient-26);}.cls-37{fill:url(#linear-gradient-27);}.cls-38{fill:url(#linear-gradient-28);}.cls-39{clip-path:url(#clip-path-2);}.cls-40{clip-path:url(#clip-path-3);}</style><clipPath id="clip-path"><path class="cls-1" d="M9.83,12.27l6.44-3.71a1.38,1.38,0,0,0,.62-1.07V1c0-.39-.28-.55-.63-.35L9.81,4.4a1.38,1.38,0,0,0-.62,1.07l0,6.45C9.21,12.31,9.49,12.47,9.83,12.27Z"/></clipPath><linearGradient id="linear-gradient" x1="-3266.92" y1="1946.66" x2="-3228.63" y2="1946.66" gradientTransform="translate(1948.54 3274.77) rotate(90.05)" gradientUnits="userSpaceOnUse"><stop offset="0" stop-color="#d4d4d4"/><stop offset="0.29" stop-color="#909196"/><stop offset="0.41" stop-color="#767881"/><stop offset="0.68" stop-color="#3d4152"/><stop offset="0.89" stop-color="#191e34"/><stop offset="1" stop-color="#0b1129"/></linearGradient><linearGradient id="linear-gradient-2" x1="-3267.9" y1="1932.93" x2="-3228.32" y2="1932.93" xlink:href="#linear-gradient"/><linearGradient id="linear-gradient-3" x1="-3274.75" y1="1936.81" x2="-3228.81" y2="1936.81" xlink:href="#linear-gradient"/><linearGradient id="linear-gradient-4" x1="-3270.45" y1="1941.23" x2="-3228.85" y2="1941.23" xlink:href="#linear-gradient"/><linearGradient id="linear-gradient-5" x1="-3255.86" y1="1940.89" x2="-3237.42" y2="1940.89" xlink:href="#linear-gradient"/><linearGradient id="linear-gradient-6" x1="-3243.9" y1="1942.17" x2="-3238.89" y2="1942.17" xlink:href="#linear-gradient"/><linearGradient id="linear-gradient-7" x1="-3274.61" y1="1945.22" x2="-3248.67" y2="1945.22" xlink:href="#linear-gradient"/><linearGradient id="linear-gradient-8" x1="-3267.06" y1="1942.27" x2="-3249.68" y2="1942.27" xlink:href="#linear-gradient"/><linearGradient id="linear-gradient-9" x1="-3272.03" y1="1944.91" x2="-3257.79" y2="1944.91" xlink:href="#linear-gradient"/><linearGradient id="linear-gradient-10" x1="-3267.74" y1="1941.35" x2="-3253.1" y2="1941.35" xlink:href="#linear-gradient"/><linearGradient id="linear-gradient-11" x1="-3272.12" y1="1943.07" x2="-3252.31" y2="1943.07" xlink:href="#linear-gradient"/><linearGradient id="linear-gradient-12" x1="-3271.09" y1="1947.51" x2="-3251.3" y2="1947.51" xlink:href="#linear-gradient"/><linearGradient id="linear-gradient-13" x1="-3272.93" y1="1935.2" x2="-3234.23" y2="1935.2" xlink:href="#linear-gradient"/><linearGradient id="linear-gradient-14" x1="-3272.68" y1="1936.48" x2="-3238.53" y2="1936.48" xlink:href="#linear-gradient"/><linearGradient id="linear-gradient-15" x1="-3249.98" y1="1936.55" x2="-3239.09" y2="1936.55" xlink:href="#linear-gradient"/><linearGradient id="linear-gradient-16" x1="-3247.53" y1="1936.1" x2="-3239.65" y2="1936.1" xlink:href="#linear-gradient"/><linearGradient id="linear-gradient-17" x1="-3271.58" y1="1940.49" x2="-3261.28" y2="1940.49" xlink:href="#linear-gradient"/><linearGradient id="linear-gradient-18" x1="-3276.24" y1="1936.28" x2="-3261.89" y2="1936.28" xlink:href="#linear-gradient"/><linearGradient id="linear-gradient-19" x1="-3272.91" y1="1939.56" x2="-3262.8" y2="1939.56" xlink:href="#linear-gradient"/><linearGradient id="linear-gradient-20" x1="-3273.24" y1="1941.15" x2="-3268.22" y2="1941.15" xlink:href="#linear-gradient"/><linearGradient id="linear-gradient-21" x1="-3275.3" y1="1939.71" x2="-3263.76" y2="1939.71" xlink:href="#linear-gradient"/><linearGradient id="linear-gradient-22" x1="-3268.63" y1="1937.38" x2="-3265.39" y2="1937.38" xlink:href="#linear-gradient"/><linearGradient id="linear-gradient-23" x1="-3274.61" y1="1931.62" x2="-3264.17" y2="1931.62" xlink:href="#linear-gradient"/><linearGradient id="linear-gradient-24" x1="-3276.18" y1="1932.4" x2="-3264.73" y2="1932.4" xlink:href="#linear-gradient"/><linearGradient id="linear-gradient-25" x1="-3273.59" y1="1932.5" x2="-3269.18" y2="1932.5" xlink:href="#linear-gradient"/><linearGradient id="linear-gradient-26" x1="-3264.73" y1="1938.55" x2="-3225.11" y2="1938.55" gradientTransform="translate(1948.54 3274.77) rotate(90.05)" gradientUnits="userSpaceOnUse"><stop offset="0" stop-color="#c7c7c7"/><stop offset="0.55" stop-color="#e8e8e8"/><stop offset="1" stop-color="#fff"/></linearGradient><linearGradient id="linear-gradient-27" x1="-3271.94" y1="1936.07" x2="-3232.69" y2="1936.07" xlink:href="#linear-gradient-26"/><linearGradient id="linear-gradient-28" x1="-3271.33" y1="1941.57" x2="-3224.69" y2="1941.57" xlink:href="#linear-gradient-26"/><clipPath id="clip-path-2"><path class="cls-1" d="M16.25,9.44,9.81,13.16a1.3,1.3,0,0,0-.62,1.07v6.44c0,.4.28.56.62.36l6.44-3.71a1.36,1.36,0,0,0,.62-1.08V9.8C16.87,9.4,16.59,9.25,16.25,9.44Z"/></clipPath><clipPath id="clip-path-3"><path class="cls-1" d="M16.24,18.2,9.8,21.91A1.38,1.38,0,0,0,9.18,23v6.45s0,.08,0,.12v2a.43.43,0,1,0,.85,0V29.65l6.21-3.58A1.35,1.35,0,0,0,16.88,25l0-6.44C16.86,18.16,16.58,18,16.24,18.2Z"/></clipPath></defs><title>Manual Agrodata Ai</title><g class="cls-2"><g id="Capa_1" data-name="Capa 1"><path class="cls-3" d="M16.25.69c.35-.2.63,0,.63.35V7.49a1.38,1.38,0,0,1-.62,1.07L9.83,12.27c-.34.2-.62,0-.62-.35l0-6.45A1.38,1.38,0,0,1,9.81,4.4Z"/><path class="cls-4" d="M16.25,9.44c.34-.19.62,0,.62.36v6.44a1.36,1.36,0,0,1-.62,1.08L9.82,21c-.34.2-.62,0-.62-.36V14.23a1.3,1.3,0,0,1,.62-1.07Z"/><path class="cls-5" d="M1.24.67C.9.48.62.63.62,1l0,6.45a1.38,1.38,0,0,0,.62,1.07l6.44,3.72c.34.2.62,0,.62-.35l0-6.45A1.34,1.34,0,0,0,7.68,4.4Z"/><path class="cls-6" d="M1.23,9.43c-.34-.2-.62,0-.62.36l0,6.44a1.36,1.36,0,0,0,.62,1.08L7.64,21c.34.2.62,0,.62-.36l0-6.44a1.38,1.38,0,0,0-.62-1.08Z"/><path class="cls-7" d="M1.23,18.19c-.35-.2-.63,0-.63.35L.58,25a1.38,1.38,0,0,0,.62,1.07l6.43,3.72c.35.2.63,0,.63-.35l0-6.45a1.38,1.38,0,0,0-.62-1.07Z"/><path class="cls-8" d="M16.86,18.56c0-.4-.28-.56-.62-.36L9.8,21.91A1.38,1.38,0,0,0,9.18,23v6.45s0,.08,0,.12v2a.43.43,0,1,0,.85,0V29.65l6.21-3.58A1.35,1.35,0,0,0,16.88,25Z"/><g class="cls-9"><g class="cls-10"><path class="cls-11" d="M7.82,44.43a.17.17,0,0,0-.12-.16V42.1l.89-.88V33.66L7.15,32.22V29.66L8.9,27.92V25l-2.6-2.6V15.68L4.44,13.8V13l-1.3-1.29V9.4L.32,6.57a.17.17,0,0,0,0-.21.16.16,0,0,0-.24,0,.16.16,0,0,0,0,.24.17.17,0,0,0,.21,0l2.79,2.8v2.35l1.3,1.3v.76l1.88,1.88V22.4L8.81,25v2.89L7.06,29.63v2.63L8.5,33.7v7.48l-.88.88v2.21a.16.16,0,0,0-.13.16.18.18,0,0,0,.17.18A.17.17,0,0,0,7.82,44.43Z"/><path class="cls-12" d="M16.19,44.74a.16.16,0,0,0-.13-.16V41.09l-.74-.74V35.44l.95-.95V32.27l-.39-.39V28.47l1.82-1.82V23.12l-1.58-1.58V18.33l2.06-2.06V14.19l-1.64-1.65V11.36L19,8.92V7.52l1.86-1.86a.17.17,0,0,0,.21,0,.17.17,0,1,0-.24-.24.17.17,0,0,0,0,.21L18.92,7.48v1.4l-2.44,2.44v1.25l1.64,1.65v2l-2.06,2.05v3.29l1.58,1.57v3.46l-1.82,1.82v3.49l.39.39v2.14l-1,.95v5l.73.74v3.45a.17.17,0,0,0,0,.33A.17.17,0,0,0,16.19,44.74Z"/><path class="cls-13" d="M11.23,44.25a.18.18,0,0,0-.13-.17V37.36l2-2V32.67L11.55,31.1V27.18l1.73-1.73V22.59l-.66-.67v-2.5l1-1v-2l-1.1-1.11V13.13L14,11.65V8.94L16,7V.3l1.49-1.49a.18.18,0,0,0,.21,0,.18.18,0,0,0,0-.25.2.2,0,0,0-.25,0,.18.18,0,0,0,0,.21L15.89.27V7L14,8.91v2.7l-1.48,1.48V15.3l1.1,1.11v1.95l-1,1V22l.66.66v2.79l-1.74,1.73v4L13,32.7v2.62l-2,2v6.75a.18.18,0,0,0-.13.17.18.18,0,0,0,.17.17A.18.18,0,0,0,11.23,44.25Z"/><path class="cls-14" d="M9.53,41.16l-1,1V44a.17.17,0,0,0-.12.17.17.17,0,0,0,.17.17.18.18,0,0,0,.17-.17A.17.17,0,0,0,8.6,44V42.21l1-1V37l2.16-2.16V33.13l-1.37-1.36V26.69L12,25.17V22.92L10.74,21.7V17.91l1.12-1.12V12.15L9.18,9.45V4.08l-1-1a.18.18,0,0,0,0-.21.18.18,0,0,0-.25,0,.16.16,0,0,0,0,.24.17.17,0,0,0,.21,0l1,1V9.48l2.69,2.7v4.57l-1.13,1.12v3.87L11.87,23v2.17l-1.53,1.52v5.16l1.36,1.36v1.64L9.53,37Z"/><path class="cls-15" d="M9.44,35.52a.17.17,0,1,0,.24.24.15.15,0,0,0,0-.2l1.17-1.17V33.26L9.53,31.91v-5l1.55-1.55v-2l-1.5-1.5V17.71a.17.17,0,0,0,.13-.16.18.18,0,0,0-.17-.18.17.17,0,0,0,0,.34v4.11l1.5,1.5v2L9.44,26.83V32l1.36,1.35v1.05L9.64,35.49A.18.18,0,0,0,9.44,35.52Z"/><path class="cls-16" d="M9.44,34V33l-.92-.91V29.67a.17.17,0,0,0,.12-.17.17.17,0,0,0-.17-.17.18.18,0,0,0-.17.17.17.17,0,0,0,.13.17v2.41l.91.92v1a.16.16,0,0,0-.12.16.17.17,0,0,0,.17.18.18.18,0,0,0,.17-.18A.17.17,0,0,0,9.44,34Z"/><path class="cls-17" d="M3.49,3.56V5.84L5.26,7.61V12L7.43,14.2V22l2.36,2.36a.18.18,0,0,0,0,.21.18.18,0,0,0,.25-.25.18.18,0,0,0-.21,0L7.52,21.91V14.16L5.35,12V7.57L3.58,5.8V3.52L1.91,1.85V-1A.17.17,0,0,0,2-1.21a.18.18,0,0,0-.17-.17.17.17,0,0,0-.17.17A.17.17,0,0,0,1.82-1V1.88Z"/><path class="cls-18" d="M8,17v4.27l2.08,2.08a.15.15,0,0,0,0,.2.17.17,0,1,0,.24-.24.2.2,0,0,0-.21,0L8.1,21.18V17l1.28-1.28V13.15L7.5,11.25V6.51a.17.17,0,0,0,0-.33.17.17,0,0,0-.17.17.17.17,0,0,0,.13.16v4.78l1.9,1.9v2.48Z"/><path class="cls-19" d="M5,4.6,6.48,6v5.83l2,2v1.26a.17.17,0,0,0-.13.17.18.18,0,0,0,.17.17.17.17,0,0,0,.17-.17.17.17,0,0,0-.12-.17v-1.3l-2-2V6L5.13,4.56v-2L4.07,1.45a.17.17,0,0,0,0-.2.18.18,0,0,0-.25,0,.18.18,0,0,0,0,.24.2.2,0,0,0,.21,0l1,1Z"/><path class="cls-20" d="M8.58,5.83V10L11,12.4v3.66l-1,1V19.8a.17.17,0,0,0-.13.16.18.18,0,0,0,.17.18.18.18,0,0,0,.18-.18.17.17,0,0,0-.13-.16V17.11l1-1V12.37L8.67,9.93V5.83a.18.18,0,0,0,.13-.17.18.18,0,0,0-.17-.17.18.18,0,0,0-.18.17A.18.18,0,0,0,8.58,5.83Z"/><path class="cls-21" d="M5.79,1.28a.16.16,0,0,0,.12.16V3.11L8,5.23v5.4l2.2,2.2v2.95L8.9,17.1v3.48a.18.18,0,0,0-.13.17.18.18,0,0,0,.17.17.18.18,0,0,0,.18-.17A.18.18,0,0,0,9,20.58V17.14l1.32-1.32v-3l-2.2-2.21V5.19L6,3.08V1.44a.16.16,0,0,0,.13-.16A.17.17,0,0,0,6,1.11.16.16,0,0,0,5.79,1.28Z"/><path class="cls-22" d="M2.23,7.19,4.07,9v2.86l2.76,2.76v6.94a.18.18,0,0,0-.13.17.18.18,0,0,0,.18.17A.18.18,0,0,0,7,21.76a.18.18,0,0,0-.13-.17v-7L4.16,11.85V9L2.33,7.15V4.23L.5,2.39a.18.18,0,0,0,0-.2.16.16,0,0,0-.24,0,.16.16,0,0,0,0,.24.17.17,0,0,0,.2,0l1.81,1.8Z"/><path class="cls-23" d="M14.83,38.84a.18.18,0,0,0-.13-.17V34.83l.79-.79V28L17,26.51V23.59l-1.92-1.92V17.45l1.72-1.73V13.86L15.58,12.6V10.76l1.63-1.62V.64a.17.17,0,0,0,.13-.16.17.17,0,0,0-.17-.17A.18.18,0,0,0,17,.48a.17.17,0,0,0,.13.16V9.1l-1.62,1.62v1.92l1.26,1.26v1.79L15,17.41v4.3l1.92,1.92v2.84L15.4,28v6l-.79.79v3.88a.18.18,0,0,0-.13.17.18.18,0,0,0,.17.17A.18.18,0,0,0,14.83,38.84Z"/><path class="cls-24" d="M13.59,20.41v-.79l.84-.84V15.59l-.77-.77V13.09l.9-.91V9.39L16.7,7.27V.9a.17.17,0,0,0,.12-.17.17.17,0,0,0-.17-.17.18.18,0,0,0-.17.17.17.17,0,0,0,.13.17V7.23L14.48,9.35v2.8l-.91.9v1.8l.77.77v3.13l-.84.84v.86l.69.69v4.3l-1.75,1.75v3.12l1.26,1.27v2.79a.17.17,0,0,0,.05.33.17.17,0,0,0,.17-.17.17.17,0,0,0-.13-.16V31.54l-1.26-1.26V27.22l1.75-1.74V21.11Z"/><path class="cls-25" d="M15.61,23.59a.17.17,0,0,0,.13-.16.18.18,0,0,0-.17-.18.18.18,0,0,0-.18.18.17.17,0,0,0,.13.16V25l-2.14,2.14v2.69l.89.89v3.09a.18.18,0,0,0-.13.17.18.18,0,0,0,.17.17.18.18,0,0,0,.18-.17.18.18,0,0,0-.13-.17V30.68l-.88-.88V27.17L15.61,25Z"/><path class="cls-26" d="M16,26a.18.18,0,0,0-.25-.25.18.18,0,0,0,0,.21L14,27.64V29.4l.86.87v3a.17.17,0,0,0-.13.17.18.18,0,0,0,.17.17.17.17,0,0,0,.17-.17.17.17,0,0,0-.12-.17v-3l-.86-.86V27.68L15.75,26A.18.18,0,0,0,16,26Z"/><path class="cls-27" d="M10.5,3.63,8.79,1.91a.18.18,0,0,0,0-.2.17.17,0,0,0-.24,0,.18.18,0,0,0,0,.25.18.18,0,0,0,.2,0l1.69,1.68v6l2.08,2.08a.15.15,0,0,0,0,.2.17.17,0,0,0,.24-.24.2.2,0,0,0-.21,0l-2-2.05Z"/><path class="cls-28" d="M14.72-1.13V.67l-.83.83V3.41l1,1V6.77L13.16,8.44V11a.17.17,0,0,0-.12.17.17.17,0,0,0,.17.17.18.18,0,0,0,.17-.17.17.17,0,0,0-.13-.17V8.48l1.67-1.67V4.34l-1-1V1.54L14.81.7V-1.1l1.58-1.58a.17.17,0,0,0,.21,0,.16.16,0,0,0,0-.24.16.16,0,0,0-.24,0,.17.17,0,0,0,0,.21Z"/><path class="cls-29" d="M11.51,7l1.23-1.23V4.29L11.58,3.13V1.45L10.72.59a.17.17,0,0,0,0-.21.16.16,0,0,0-.24,0,.16.16,0,0,0,0,.24.17.17,0,0,0,.21,0l.83.84V3.16l1.16,1.16V5.74L11.42,7V9.26l.92.92a.15.15,0,0,0,0,.2.17.17,0,1,0,.24-.24.2.2,0,0,0-.21,0l-.88-.89Z"/><path class="cls-30" d="M10.94,4.68a.16.16,0,0,0-.13.16A.17.17,0,0,0,11,5a.17.17,0,0,0,0-.33V2.16L9.13.25a.15.15,0,0,0,0-.2.16.16,0,0,0-.24,0,.16.16,0,0,0,0,.24.18.18,0,0,0,.2,0l1.88,1.87Z"/><path class="cls-31" d="M12.32.78V2.59l.87.87V7l-.73.73V9.14a.17.17,0,0,0,.05.33.17.17,0,0,0,.17-.17.16.16,0,0,0-.12-.16V7.77L13.28,7V3.42l-.87-.87V.74L9.87-1.81a.15.15,0,0,0,0-.2A.16.16,0,0,0,9.6-2a.16.16,0,0,0,0,.24.17.17,0,0,0,.21,0Z"/><path class="cls-32" d="M13.21,7.56a.17.17,0,0,0,.24.24.15.15,0,0,0,0-.2l.71-.72V5a.17.17,0,0,0,.13-.17.18.18,0,0,0-.17-.17.17.17,0,0,0-.17.17A.17.17,0,0,0,14.1,5v1.9l-.68.68A.17.17,0,0,0,13.21,7.56Z"/><path class="cls-33" d="M20.62-1.19a.16.16,0,0,0,.13.16V1.33l-.48.48V4.6L18.18,6.67V8.73a.18.18,0,0,0-.13.17.18.18,0,0,0,.17.17.18.18,0,0,0,.18-.17.18.18,0,0,0-.13-.17v-2l2.08-2.08V1.85l.48-.48V-1A.16.16,0,0,0,21-1.19a.16.16,0,0,0-.17-.17A.17.17,0,0,0,20.62-1.19Z"/><path class="cls-34" d="M19.67-2.76a.16.16,0,0,0,.13.16V1.24l-.41.42V4l-1.8,1.8V8.18a.17.17,0,0,0,.05.33.17.17,0,0,0,.17-.17.16.16,0,0,0-.13-.16V5.8L19.46,4V1.69l.42-.41V-2.6A.16.16,0,0,0,20-2.76a.16.16,0,0,0-.17-.17A.17.17,0,0,0,19.67-2.76Z"/><path class="cls-35" d="M19.35-.06a.18.18,0,0,0,0-.24.18.18,0,0,0-.25,0,.18.18,0,0,0,0,.21L18,1V3.72a.17.17,0,0,0-.13.16.18.18,0,0,0,.18.18.18.18,0,0,0,.17-.18.17.17,0,0,0-.13-.16V1L19.14,0A.17.17,0,0,0,19.35-.06Z"/><path class="cls-36" d="M13.57,37.05V33.84h0V26.32L12,24.73v-4.9l.39-.4a.24.24,0,0,0,.29,0,.24.24,0,0,0,0-.33.25.25,0,0,0-.34,0,.24.24,0,0,0,0,.28l-.43.43v4.84l-.9-.9a.24.24,0,0,0,0-.28.23.23,0,0,0-.34,0,.24.24,0,0,0,0,.33.23.23,0,0,0,.28,0l2.57,2.57v4.17l-1.13-1.13V27.67a.23.23,0,0,0,.18-.22.24.24,0,0,0-.48,0,.23.23,0,0,0,.18.22v1.79l1.25,1.25v3l-2.86-2.86V25.55L8.76,23.72V21.88l1.65-1.65V17.71h0l.88-.87V13.48a.25.25,0,0,0,.18-.23.24.24,0,0,0-.48,0,.25.25,0,0,0,.18.23v3.31l-.75.75v-5.1a.24.24,0,0,0,.17-.23.23.23,0,0,0-.23-.23.23.23,0,0,0-.07.46v7.74L8.76,21.7V9A.23.23,0,0,0,9,8.74a.24.24,0,1,0-.48,0A.23.23,0,0,0,8.65,9V23.77l1.82,1.83v5.29l1.61,1.61v1.66l-.62.63a.23.23,0,0,0-.28,0,.24.24,0,0,0,0,.34.25.25,0,0,0,.34,0,.24.24,0,0,0,0-.29l.66-.66V32.63l1.25,1.25V37.1l2.22,2.23v2.09l.68.67v5.58a.23.23,0,0,0,.07.46.23.23,0,0,0,.23-.23.24.24,0,0,0-.17-.23V42l-.67-.67v-2.1Z"/><path class="cls-37" d="M12.21,11.29l-1-1V4.37a.24.24,0,0,0-.06-.47.24.24,0,0,0-.24.24.25.25,0,0,0,.18.23v6l1.14,1.14h0v5.33L14.38,19v2.91l-1.06,1.06A.23.23,0,0,0,13,23a.23.23,0,0,0,.33.33.23.23,0,0,0,0-.28l1.1-1.1V19.08l1.77,1.77V31.53l2.81,2.82v6.21h.13V34.29l-2.81-2.81V26.67h0l1.17-1.18V19.27l-3.88-3.89V14l1.4-1.4v-9l1.23-1.22a.23.23,0,0,0,.28,0A.23.23,0,0,0,16.28,2a.23.23,0,0,0,0,.28L15,3.52v9l-1.28,1.28V10a.24.24,0,0,0,.17-.23.23.23,0,0,0-.23-.23.23.23,0,0,0-.24.23.25.25,0,0,0,.18.23v5.44l3.88,3.89v6.13L16.39,26.5V20.8l-4.06-4.07v-15a.25.25,0,0,0,.18-.23.24.24,0,0,0-.48,0,.25.25,0,0,0,.18.23Z"/><path class="cls-38" d="M14.62,48.48a.24.24,0,0,0,0-.28l1.13-1.13V44.59l-1.27-1.28V40.94l-2.12-2.13V37a.25.25,0,0,0,.18-.23.24.24,0,1,0-.48,0,.25.25,0,0,0,.18.23v1.88L14.38,41v2.2L11,39.76V36.23L9.48,34.75V29.41L8.37,28.29V25.24L8,24.85a.23.23,0,0,0,0-.28.23.23,0,0,0-.33.33.23.23,0,0,0,.28,0l.35.35v1.63L6.09,24.75V23.21l1.33-1.33V19.24a.23.23,0,0,0-.07-.46.23.23,0,0,0-.23.23.24.24,0,0,0,.17.23v2.59L6.09,23V18.9l1.37-1.37V7.66l.75-.75a.23.23,0,0,0,.28,0,.23.23,0,1,0-.33-.33.23.23,0,0,0,0,.28l-.79.79v7.51L5.27,13.06V3.81L3.73,2.25a.23.23,0,0,0,0-.28.22.22,0,0,0-.33,0,.24.24,0,0,0,0,.33.23.23,0,0,0,.28,0L5.16,3.86v9.25L7.34,15.3v2.18L6,18.85V24.8l2.29,2.29v1.26l1.11,1.11v5.16L7.21,32.47v-4.7a.26.26,0,0,0,.18-.23.24.24,0,0,0-.48,0,.25.25,0,0,0,.18.23v4.75l3.76,3.76v3.53l4.83,4.83V47l-1.09,1.09a.26.26,0,0,0-.29,0,.24.24,0,1,0,.34.34Z"/></g><g class="cls-39"><path class="cls-11" d="M7.82,44.43a.17.17,0,0,0-.12-.16V42.1l.89-.88V33.66L7.15,32.22V29.66L8.9,27.92V25l-2.6-2.6V15.68L4.44,13.8V13l-1.3-1.29V9.4L.32,6.57a.17.17,0,0,0,0-.21.16.16,0,0,0-.24,0,.16.16,0,0,0,0,.24.17.17,0,0,0,.21,0l2.79,2.8v2.35l1.3,1.3v.76l1.88,1.88V22.4L8.81,25v2.89L7.06,29.63v2.63L8.5,33.7v7.48l-.88.88v2.21a.16.16,0,0,0-.13.16.18.18,0,0,0,.17.18A.17.17,0,0,0,7.82,44.43Z"/><path class="cls-12" d="M16.19,44.74a.16.16,0,0,0-.13-.16V41.09l-.74-.74V35.44l.95-.95V32.27l-.39-.39V28.47l1.82-1.82V23.12l-1.58-1.58V18.33l2.06-2.06V14.19l-1.64-1.65V11.36L19,8.92V7.52l1.86-1.86a.17.17,0,0,0,.21,0,.17.17,0,1,0-.24-.24.17.17,0,0,0,0,.21L18.92,7.48v1.4l-2.44,2.44v1.25l1.64,1.65v2l-2.06,2.05v3.29l1.58,1.57v3.46l-1.82,1.82v3.49l.39.39v2.14l-1,.95v5l.73.74v3.45a.17.17,0,0,0,0,.33A.17.17,0,0,0,16.19,44.74Z"/><path class="cls-13" d="M11.23,44.25a.18.18,0,0,0-.13-.17V37.36l2-2V32.67L11.55,31.1V27.18l1.73-1.73V22.59l-.66-.67v-2.5l1-1v-2l-1.1-1.11V13.13L14,11.65V8.94L16,7V.3l1.49-1.49a.18.18,0,0,0,.21,0,.18.18,0,0,0,0-.25.2.2,0,0,0-.25,0,.18.18,0,0,0,0,.21L15.89.27V7L14,8.91v2.7l-1.48,1.48V15.3l1.1,1.11v1.95l-1,1V22l.66.66v2.79l-1.74,1.73v4L13,32.7v2.62l-2,2v6.75a.18.18,0,0,0-.13.17.18.18,0,0,0,.17.17A.18.18,0,0,0,11.23,44.25Z"/><path class="cls-14" d="M9.53,41.16l-1,1V44a.17.17,0,0,0-.12.17.17.17,0,0,0,.17.17.18.18,0,0,0,.17-.17A.17.17,0,0,0,8.6,44V42.21l1-1V37l2.16-2.16V33.13l-1.37-1.36V26.69L12,25.17V22.92L10.74,21.7V17.91l1.12-1.12V12.15L9.18,9.45V4.08l-1-1a.18.18,0,0,0,0-.21.18.18,0,0,0-.25,0,.16.16,0,0,0,0,.24.17.17,0,0,0,.21,0l1,1V9.48l2.69,2.7v4.57l-1.13,1.12v3.87L11.87,23v2.17l-1.53,1.52v5.16l1.36,1.36v1.64L9.53,37Z"/><path class="cls-15" d="M9.44,35.52a.17.17,0,1,0,.24.24.15.15,0,0,0,0-.2l1.17-1.17V33.26L9.53,31.91v-5l1.55-1.55v-2l-1.5-1.5V17.71a.17.17,0,0,0,.13-.16.18.18,0,0,0-.17-.18.17.17,0,0,0,0,.34v4.11l1.5,1.5v2L9.44,26.83V32l1.36,1.35v1.05L9.64,35.49A.18.18,0,0,0,9.44,35.52Z"/><path class="cls-16" d="M9.44,34V33l-.92-.91V29.67a.17.17,0,0,0,.12-.17.17.17,0,0,0-.17-.17.18.18,0,0,0-.17.17.17.17,0,0,0,.13.17v2.41l.91.92v1a.16.16,0,0,0-.12.16.17.17,0,0,0,.17.18.18.18,0,0,0,.17-.18A.17.17,0,0,0,9.44,34Z"/><path class="cls-17" d="M3.49,3.56V5.84L5.26,7.61V12L7.43,14.2V22l2.36,2.36a.18.18,0,0,0,0,.21.18.18,0,0,0,.25-.25.18.18,0,0,0-.21,0L7.52,21.91V14.16L5.35,12V7.57L3.58,5.8V3.52L1.91,1.85V-1A.17.17,0,0,0,2-1.21a.18.18,0,0,0-.17-.17.17.17,0,0,0-.17.17A.17.17,0,0,0,1.82-1V1.88Z"/><path class="cls-18" d="M8,17v4.27l2.08,2.08a.15.15,0,0,0,0,.2.17.17,0,1,0,.24-.24.2.2,0,0,0-.21,0L8.1,21.18V17l1.28-1.28V13.15L7.5,11.25V6.51a.17.17,0,0,0,0-.33.17.17,0,0,0-.17.17.17.17,0,0,0,.13.16v4.78l1.9,1.9v2.48Z"/><path class="cls-19" d="M5,4.6,6.48,6v5.83l2,2v1.26a.17.17,0,0,0-.13.17.18.18,0,0,0,.17.17.17.17,0,0,0,.17-.17.17.17,0,0,0-.12-.17v-1.3l-2-2V6L5.13,4.56v-2L4.07,1.45a.17.17,0,0,0,0-.2.18.18,0,0,0-.25,0,.18.18,0,0,0,0,.24.2.2,0,0,0,.21,0l1,1Z"/><path class="cls-20" d="M8.58,5.83V10L11,12.4v3.66l-1,1V19.8a.17.17,0,0,0-.13.16.18.18,0,0,0,.17.18.18.18,0,0,0,.18-.18.17.17,0,0,0-.13-.16V17.11l1-1V12.37L8.67,9.93V5.83a.18.18,0,0,0,.13-.17.18.18,0,0,0-.17-.17.18.18,0,0,0-.18.17A.18.18,0,0,0,8.58,5.83Z"/><path class="cls-21" d="M5.79,1.28a.16.16,0,0,0,.12.16V3.11L8,5.23v5.4l2.2,2.2v2.95L8.9,17.1v3.48a.18.18,0,0,0-.13.17.18.18,0,0,0,.17.17.18.18,0,0,0,.18-.17A.18.18,0,0,0,9,20.58V17.14l1.32-1.32v-3l-2.2-2.21V5.19L6,3.08V1.44a.16.16,0,0,0,.13-.16A.17.17,0,0,0,6,1.11.16.16,0,0,0,5.79,1.28Z"/><path class="cls-22" d="M2.23,7.19,4.07,9v2.86l2.76,2.76v6.94a.18.18,0,0,0-.13.17.18.18,0,0,0,.18.17A.18.18,0,0,0,7,21.76a.18.18,0,0,0-.13-.17v-7L4.16,11.85V9L2.33,7.15V4.23L.5,2.39a.18.18,0,0,0,0-.2.16.16,0,0,0-.24,0,.16.16,0,0,0,0,.24.17.17,0,0,0,.2,0l1.81,1.8Z"/><path class="cls-23" d="M14.83,38.84a.18.18,0,0,0-.13-.17V34.83l.79-.79V28L17,26.51V23.59l-1.92-1.92V17.45l1.72-1.73V13.86L15.58,12.6V10.76l1.63-1.62V.64a.17.17,0,0,0,.13-.16.17.17,0,0,0-.17-.17A.18.18,0,0,0,17,.48a.17.17,0,0,0,.13.16V9.1l-1.62,1.62v1.92l1.26,1.26v1.79L15,17.41v4.3l1.92,1.92v2.84L15.4,28v6l-.79.79v3.88a.18.18,0,0,0-.13.17.18.18,0,0,0,.17.17A.18.18,0,0,0,14.83,38.84Z"/><path class="cls-24" d="M13.59,20.41v-.79l.84-.84V15.59l-.77-.77V13.09l.9-.91V9.39L16.7,7.27V.9a.17.17,0,0,0,.12-.17.17.17,0,0,0-.17-.17.18.18,0,0,0-.17.17.17.17,0,0,0,.13.17V7.23L14.48,9.35v2.8l-.91.9v1.8l.77.77v3.13l-.84.84v.86l.69.69v4.3l-1.75,1.75v3.12l1.26,1.27v2.79a.17.17,0,0,0,.05.33.17.17,0,0,0,.17-.17.17.17,0,0,0-.13-.16V31.54l-1.26-1.26V27.22l1.75-1.74V21.11Z"/><path class="cls-25" d="M15.61,23.59a.17.17,0,0,0,.13-.16.18.18,0,0,0-.17-.18.18.18,0,0,0-.18.18.17.17,0,0,0,.13.16V25l-2.14,2.14v2.69l.89.89v3.09a.18.18,0,0,0-.13.17.18.18,0,0,0,.17.17.18.18,0,0,0,.18-.17.18.18,0,0,0-.13-.17V30.68l-.88-.88V27.17L15.61,25Z"/><path class="cls-26" d="M16,26a.18.18,0,0,0-.25-.25.18.18,0,0,0,0,.21L14,27.64V29.4l.86.87v3a.17.17,0,0,0-.13.17.18.18,0,0,0,.17.17.17.17,0,0,0,.17-.17.17.17,0,0,0-.12-.17v-3l-.86-.86V27.68L15.75,26A.18.18,0,0,0,16,26Z"/><path class="cls-27" d="M10.5,3.63,8.79,1.91a.18.18,0,0,0,0-.2.17.17,0,0,0-.24,0,.18.18,0,0,0,0,.25.18.18,0,0,0,.2,0l1.69,1.68v6l2.08,2.08a.15.15,0,0,0,0,.2.17.17,0,0,0,.24-.24.2.2,0,0,0-.21,0l-2-2.05Z"/><path class="cls-28" d="M14.72-1.13V.67l-.83.83V3.41l1,1V6.77L13.16,8.44V11a.17.17,0,0,0-.12.17.17.17,0,0,0,.17.17.18.18,0,0,0,.17-.17.17.17,0,0,0-.13-.17V8.48l1.67-1.67V4.34l-1-1V1.54L14.81.7V-1.1l1.58-1.58a.17.17,0,0,0,.21,0,.16.16,0,0,0,0-.24.16.16,0,0,0-.24,0,.17.17,0,0,0,0,.21Z"/><path class="cls-29" d="M11.51,7l1.23-1.23V4.29L11.58,3.13V1.45L10.72.59a.17.17,0,0,0,0-.21.16.16,0,0,0-.24,0,.16.16,0,0,0,0,.24.17.17,0,0,0,.21,0l.83.84V3.16l1.16,1.16V5.74L11.42,7V9.26l.92.92a.15.15,0,0,0,0,.2.17.17,0,1,0,.24-.24.2.2,0,0,0-.21,0l-.88-.89Z"/><path class="cls-30" d="M10.94,4.68a.16.16,0,0,0-.13.16A.17.17,0,0,0,11,5a.17.17,0,0,0,0-.33V2.16L9.13.25a.15.15,0,0,0,0-.2.16.16,0,0,0-.24,0,.16.16,0,0,0,0,.24.18.18,0,0,0,.2,0l1.88,1.87Z"/><path class="cls-31" d="M12.32.78V2.59l.87.87V7l-.73.73V9.14a.17.17,0,0,0,.05.33.17.17,0,0,0,.17-.17.16.16,0,0,0-.12-.16V7.77L13.28,7V3.42l-.87-.87V.74L9.87-1.81a.15.15,0,0,0,0-.2A.16.16,0,0,0,9.6-2a.16.16,0,0,0,0,.24.17.17,0,0,0,.21,0Z"/><path class="cls-32" d="M13.21,7.56a.17.17,0,0,0,.24.24.15.15,0,0,0,0-.2l.71-.72V5a.17.17,0,0,0,.13-.17.18.18,0,0,0-.17-.17.17.17,0,0,0-.17.17A.17.17,0,0,0,14.1,5v1.9l-.68.68A.17.17,0,0,0,13.21,7.56Z"/><path class="cls-33" d="M20.62-1.19a.16.16,0,0,0,.13.16V1.33l-.48.48V4.6L18.18,6.67V8.73a.18.18,0,0,0-.13.17.18.18,0,0,0,.17.17.18.18,0,0,0,.18-.17.18.18,0,0,0-.13-.17v-2l2.08-2.08V1.85l.48-.48V-1A.16.16,0,0,0,21-1.19a.16.16,0,0,0-.17-.17A.17.17,0,0,0,20.62-1.19Z"/><path class="cls-34" d="M19.67-2.76a.16.16,0,0,0,.13.16V1.24l-.41.42V4l-1.8,1.8V8.18a.17.17,0,0,0,.05.33.17.17,0,0,0,.17-.17.16.16,0,0,0-.13-.16V5.8L19.46,4V1.69l.42-.41V-2.6A.16.16,0,0,0,20-2.76a.16.16,0,0,0-.17-.17A.17.17,0,0,0,19.67-2.76Z"/><path class="cls-35" d="M19.35-.06a.18.18,0,0,0,0-.24.18.18,0,0,0-.25,0,.18.18,0,0,0,0,.21L18,1V3.72a.17.17,0,0,0-.13.16.18.18,0,0,0,.18.18.18.18,0,0,0,.17-.18.17.17,0,0,0-.13-.16V1L19.14,0A.17.17,0,0,0,19.35-.06Z"/><path class="cls-36" d="M13.57,37.05V33.84h0V26.32L12,24.73v-4.9l.39-.4a.24.24,0,0,0,.29,0,.24.24,0,0,0,0-.33.25.25,0,0,0-.34,0,.24.24,0,0,0,0,.28l-.43.43v4.84l-.9-.9a.24.24,0,0,0,0-.28.23.23,0,0,0-.34,0,.24.24,0,0,0,0,.33.23.23,0,0,0,.28,0l2.57,2.57v4.17l-1.13-1.13V27.67a.23.23,0,0,0,.18-.22.24.24,0,0,0-.48,0,.23.23,0,0,0,.18.22v1.79l1.25,1.25v3l-2.86-2.86V25.55L8.76,23.72V21.88l1.65-1.65V17.71h0l.88-.87V13.48a.25.25,0,0,0,.18-.23.24.24,0,0,0-.48,0,.25.25,0,0,0,.18.23v3.31l-.75.75v-5.1a.24.24,0,0,0,.17-.23.23.23,0,0,0-.23-.23.23.23,0,0,0-.07.46v7.74L8.76,21.7V9A.23.23,0,0,0,9,8.74a.24.24,0,1,0-.48,0A.23.23,0,0,0,8.65,9V23.77l1.82,1.83v5.29l1.61,1.61v1.66l-.62.63a.23.23,0,0,0-.28,0,.24.24,0,0,0,0,.34.25.25,0,0,0,.34,0,.24.24,0,0,0,0-.29l.66-.66V32.63l1.25,1.25V37.1l2.22,2.23v2.09l.68.67v5.58a.23.23,0,0,0,.07.46.23.23,0,0,0,.23-.23.24.24,0,0,0-.17-.23V42l-.67-.67v-2.1Z"/><path class="cls-37" d="M12.21,11.29l-1-1V4.37a.24.24,0,0,0-.06-.47.24.24,0,0,0-.24.24.25.25,0,0,0,.18.23v6l1.14,1.14h0v5.33L14.38,19v2.91l-1.06,1.06A.23.23,0,0,0,13,23a.23.23,0,0,0,.33.33.23.23,0,0,0,0-.28l1.1-1.1V19.08l1.77,1.77V31.53l2.81,2.82v6.21h.13V34.29l-2.81-2.81V26.67h0l1.17-1.18V19.27l-3.88-3.89V14l1.4-1.4v-9l1.23-1.22a.23.23,0,0,0,.28,0A.23.23,0,0,0,16.28,2a.23.23,0,0,0,0,.28L15,3.52v9l-1.28,1.28V10a.24.24,0,0,0,.17-.23.23.23,0,0,0-.23-.23.23.23,0,0,0-.24.23.25.25,0,0,0,.18.23v5.44l3.88,3.89v6.13L16.39,26.5V20.8l-4.06-4.07v-15a.25.25,0,0,0,.18-.23.24.24,0,0,0-.48,0,.25.25,0,0,0,.18.23Z"/><path class="cls-38" d="M14.62,48.48a.24.24,0,0,0,0-.28l1.13-1.13V44.59l-1.27-1.28V40.94l-2.12-2.13V37a.25.25,0,0,0,.18-.23.24.24,0,1,0-.48,0,.25.25,0,0,0,.18.23v1.88L14.38,41v2.2L11,39.76V36.23L9.48,34.75V29.41L8.37,28.29V25.24L8,24.85a.23.23,0,0,0,0-.28.23.23,0,0,0-.33.33.23.23,0,0,0,.28,0l.35.35v1.63L6.09,24.75V23.21l1.33-1.33V19.24a.23.23,0,0,0-.07-.46.23.23,0,0,0-.23.23.24.24,0,0,0,.17.23v2.59L6.09,23V18.9l1.37-1.37V7.66l.75-.75a.23.23,0,0,0,.28,0,.23.23,0,1,0-.33-.33.23.23,0,0,0,0,.28l-.79.79v7.51L5.27,13.06V3.81L3.73,2.25a.23.23,0,0,0,0-.28.22.22,0,0,0-.33,0,.24.24,0,0,0,0,.33.23.23,0,0,0,.28,0L5.16,3.86v9.25L7.34,15.3v2.18L6,18.85V24.8l2.29,2.29v1.26l1.11,1.11v5.16L7.21,32.47v-4.7a.26.26,0,0,0,.18-.23.24.24,0,0,0-.48,0,.25.25,0,0,0,.18.23v4.75l3.76,3.76v3.53l4.83,4.83V47l-1.09,1.09a.26.26,0,0,0-.29,0,.24.24,0,1,0,.34.34Z"/></g><g class="cls-40"><path class="cls-11" d="M7.82,44.43a.17.17,0,0,0-.12-.16V42.1l.89-.88V33.66L7.15,32.22V29.66L8.9,27.92V25l-2.6-2.6V15.68L4.44,13.8V13l-1.3-1.29V9.4L.32,6.57a.17.17,0,0,0,0-.21.16.16,0,0,0-.24,0,.16.16,0,0,0,0,.24.17.17,0,0,0,.21,0l2.79,2.8v2.35l1.3,1.3v.76l1.88,1.88V22.4L8.81,25v2.89L7.06,29.63v2.63L8.5,33.7v7.48l-.88.88v2.21a.16.16,0,0,0-.13.16.18.18,0,0,0,.17.18A.17.17,0,0,0,7.82,44.43Z"/><path class="cls-12" d="M16.19,44.74a.16.16,0,0,0-.13-.16V41.09l-.74-.74V35.44l.95-.95V32.27l-.39-.39V28.47l1.82-1.82V23.12l-1.58-1.58V18.33l2.06-2.06V14.19l-1.64-1.65V11.36L19,8.92V7.52l1.86-1.86a.17.17,0,0,0,.21,0,.17.17,0,1,0-.24-.24.17.17,0,0,0,0,.21L18.92,7.48v1.4l-2.44,2.44v1.25l1.64,1.65v2l-2.06,2.05v3.29l1.58,1.57v3.46l-1.82,1.82v3.49l.39.39v2.14l-1,.95v5l.73.74v3.45a.17.17,0,0,0,0,.33A.17.17,0,0,0,16.19,44.74Z"/><path class="cls-13" d="M11.23,44.25a.18.18,0,0,0-.13-.17V37.36l2-2V32.67L11.55,31.1V27.18l1.73-1.73V22.59l-.66-.67v-2.5l1-1v-2l-1.1-1.11V13.13L14,11.65V8.94L16,7V.3l1.49-1.49a.18.18,0,0,0,.21,0,.18.18,0,0,0,0-.25.2.2,0,0,0-.25,0,.18.18,0,0,0,0,.21L15.89.27V7L14,8.91v2.7l-1.48,1.48V15.3l1.1,1.11v1.95l-1,1V22l.66.66v2.79l-1.74,1.73v4L13,32.7v2.62l-2,2v6.75a.18.18,0,0,0-.13.17.18.18,0,0,0,.17.17A.18.18,0,0,0,11.23,44.25Z"/><path class="cls-14" d="M9.53,41.16l-1,1V44a.17.17,0,0,0-.12.17.17.17,0,0,0,.17.17.18.18,0,0,0,.17-.17A.17.17,0,0,0,8.6,44V42.21l1-1V37l2.16-2.16V33.13l-1.37-1.36V26.69L12,25.17V22.92L10.74,21.7V17.91l1.12-1.12V12.15L9.18,9.45V4.08l-1-1a.18.18,0,0,0,0-.21.18.18,0,0,0-.25,0,.16.16,0,0,0,0,.24.17.17,0,0,0,.21,0l1,1V9.48l2.69,2.7v4.57l-1.13,1.12v3.87L11.87,23v2.17l-1.53,1.52v5.16l1.36,1.36v1.64L9.53,37Z"/><path class="cls-15" d="M9.44,35.52a.17.17,0,1,0,.24.24.15.15,0,0,0,0-.2l1.17-1.17V33.26L9.53,31.91v-5l1.55-1.55v-2l-1.5-1.5V17.71a.17.17,0,0,0,.13-.16.18.18,0,0,0-.17-.18.17.17,0,0,0,0,.34v4.11l1.5,1.5v2L9.44,26.83V32l1.36,1.35v1.05L9.64,35.49A.18.18,0,0,0,9.44,35.52Z"/><path class="cls-16" d="M9.44,34V33l-.92-.91V29.67a.17.17,0,0,0,.12-.17.17.17,0,0,0-.17-.17.18.18,0,0,0-.17.17.17.17,0,0,0,.13.17v2.41l.91.92v1a.16.16,0,0,0-.12.16.17.17,0,0,0,.17.18.18.18,0,0,0,.17-.18A.17.17,0,0,0,9.44,34Z"/><path class="cls-17" d="M3.49,3.56V5.84L5.26,7.61V12L7.43,14.2V22l2.36,2.36a.18.18,0,0,0,0,.21.18.18,0,0,0,.25-.25.18.18,0,0,0-.21,0L7.52,21.91V14.16L5.35,12V7.57L3.58,5.8V3.52L1.91,1.85V-1A.17.17,0,0,0,2-1.21a.18.18,0,0,0-.17-.17.17.17,0,0,0-.17.17A.17.17,0,0,0,1.82-1V1.88Z"/><path class="cls-18" d="M8,17v4.27l2.08,2.08a.15.15,0,0,0,0,.2.17.17,0,1,0,.24-.24.2.2,0,0,0-.21,0L8.1,21.18V17l1.28-1.28V13.15L7.5,11.25V6.51a.17.17,0,0,0,0-.33.17.17,0,0,0-.17.17.17.17,0,0,0,.13.16v4.78l1.9,1.9v2.48Z"/><path class="cls-19" d="M5,4.6,6.48,6v5.83l2,2v1.26a.17.17,0,0,0-.13.17.18.18,0,0,0,.17.17.17.17,0,0,0,.17-.17.17.17,0,0,0-.12-.17v-1.3l-2-2V6L5.13,4.56v-2L4.07,1.45a.17.17,0,0,0,0-.2.18.18,0,0,0-.25,0,.18.18,0,0,0,0,.24.2.2,0,0,0,.21,0l1,1Z"/><path class="cls-20" d="M8.58,5.83V10L11,12.4v3.66l-1,1V19.8a.17.17,0,0,0-.13.16.18.18,0,0,0,.17.18.18.18,0,0,0,.18-.18.17.17,0,0,0-.13-.16V17.11l1-1V12.37L8.67,9.93V5.83a.18.18,0,0,0,.13-.17.18.18,0,0,0-.17-.17.18.18,0,0,0-.18.17A.18.18,0,0,0,8.58,5.83Z"/><path class="cls-21" d="M5.79,1.28a.16.16,0,0,0,.12.16V3.11L8,5.23v5.4l2.2,2.2v2.95L8.9,17.1v3.48a.18.18,0,0,0-.13.17.18.18,0,0,0,.17.17.18.18,0,0,0,.18-.17A.18.18,0,0,0,9,20.58V17.14l1.32-1.32v-3l-2.2-2.21V5.19L6,3.08V1.44a.16.16,0,0,0,.13-.16A.17.17,0,0,0,6,1.11.16.16,0,0,0,5.79,1.28Z"/><path class="cls-22" d="M2.23,7.19,4.07,9v2.86l2.76,2.76v6.94a.18.18,0,0,0-.13.17.18.18,0,0,0,.18.17A.18.18,0,0,0,7,21.76a.18.18,0,0,0-.13-.17v-7L4.16,11.85V9L2.33,7.15V4.23L.5,2.39a.18.18,0,0,0,0-.2.16.16,0,0,0-.24,0,.16.16,0,0,0,0,.24.17.17,0,0,0,.2,0l1.81,1.8Z"/><path class="cls-23" d="M14.83,38.84a.18.18,0,0,0-.13-.17V34.83l.79-.79V28L17,26.51V23.59l-1.92-1.92V17.45l1.72-1.73V13.86L15.58,12.6V10.76l1.63-1.62V.64a.17.17,0,0,0,.13-.16.17.17,0,0,0-.17-.17A.18.18,0,0,0,17,.48a.17.17,0,0,0,.13.16V9.1l-1.62,1.62v1.92l1.26,1.26v1.79L15,17.41v4.3l1.92,1.92v2.84L15.4,28v6l-.79.79v3.88a.18.18,0,0,0-.13.17.18.18,0,0,0,.17.17A.18.18,0,0,0,14.83,38.84Z"/><path class="cls-24" d="M13.59,20.41v-.79l.84-.84V15.59l-.77-.77V13.09l.9-.91V9.39L16.7,7.27V.9a.17.17,0,0,0,.12-.17.17.17,0,0,0-.17-.17.18.18,0,0,0-.17.17.17.17,0,0,0,.13.17V7.23L14.48,9.35v2.8l-.91.9v1.8l.77.77v3.13l-.84.84v.86l.69.69v4.3l-1.75,1.75v3.12l1.26,1.27v2.79a.17.17,0,0,0,.05.33.17.17,0,0,0,.17-.17.17.17,0,0,0-.13-.16V31.54l-1.26-1.26V27.22l1.75-1.74V21.11Z"/><path class="cls-25" d="M15.61,23.59a.17.17,0,0,0,.13-.16.18.18,0,0,0-.17-.18.18.18,0,0,0-.18.18.17.17,0,0,0,.13.16V25l-2.14,2.14v2.69l.89.89v3.09a.18.18,0,0,0-.13.17.18.18,0,0,0,.17.17.18.18,0,0,0,.18-.17.18.18,0,0,0-.13-.17V30.68l-.88-.88V27.17L15.61,25Z"/><path class="cls-26" d="M16,26a.18.18,0,0,0-.25-.25.18.18,0,0,0,0,.21L14,27.64V29.4l.86.87v3a.17.17,0,0,0-.13.17.18.18,0,0,0,.17.17.17.17,0,0,0,.17-.17.17.17,0,0,0-.12-.17v-3l-.86-.86V27.68L15.75,26A.18.18,0,0,0,16,26Z"/><path class="cls-27" d="M10.5,3.63,8.79,1.91a.18.18,0,0,0,0-.2.17.17,0,0,0-.24,0,.18.18,0,0,0,0,.25.18.18,0,0,0,.2,0l1.69,1.68v6l2.08,2.08a.15.15,0,0,0,0,.2.17.17,0,0,0,.24-.24.2.2,0,0,0-.21,0l-2-2.05Z"/><path class="cls-28" d="M14.72-1.13V.67l-.83.83V3.41l1,1V6.77L13.16,8.44V11a.17.17,0,0,0-.12.17.17.17,0,0,0,.17.17.18.18,0,0,0,.17-.17.17.17,0,0,0-.13-.17V8.48l1.67-1.67V4.34l-1-1V1.54L14.81.7V-1.1l1.58-1.58a.17.17,0,0,0,.21,0,.16.16,0,0,0,0-.24.16.16,0,0,0-.24,0,.17.17,0,0,0,0,.21Z"/><path class="cls-29" d="M11.51,7l1.23-1.23V4.29L11.58,3.13V1.45L10.72.59a.17.17,0,0,0,0-.21.16.16,0,0,0-.24,0,.16.16,0,0,0,0,.24.17.17,0,0,0,.21,0l.83.84V3.16l1.16,1.16V5.74L11.42,7V9.26l.92.92a.15.15,0,0,0,0,.2.17.17,0,1,0,.24-.24.2.2,0,0,0-.21,0l-.88-.89Z"/><path class="cls-30" d="M10.94,4.68a.16.16,0,0,0-.13.16A.17.17,0,0,0,11,5a.17.17,0,0,0,0-.33V2.16L9.13.25a.15.15,0,0,0,0-.2.16.16,0,0,0-.24,0,.16.16,0,0,0,0,.24.18.18,0,0,0,.2,0l1.88,1.87Z"/><path class="cls-31" d="M12.32.78V2.59l.87.87V7l-.73.73V9.14a.17.17,0,0,0,.05.33.17.17,0,0,0,.17-.17.16.16,0,0,0-.12-.16V7.77L13.28,7V3.42l-.87-.87V.74L9.87-1.81a.15.15,0,0,0,0-.2A.16.16,0,0,0,9.6-2a.16.16,0,0,0,0,.24.17.17,0,0,0,.21,0Z"/><path class="cls-32" d="M13.21,7.56a.17.17,0,0,0,.24.24.15.15,0,0,0,0-.2l.71-.72V5a.17.17,0,0,0,.13-.17.18.18,0,0,0-.17-.17.17.17,0,0,0-.17.17A.17.17,0,0,0,14.1,5v1.9l-.68.68A.17.17,0,0,0,13.21,7.56Z"/><path class="cls-33" d="M20.62-1.19a.16.16,0,0,0,.13.16V1.33l-.48.48V4.6L18.18,6.67V8.73a.18.18,0,0,0-.13.17.18.18,0,0,0,.17.17.18.18,0,0,0,.18-.17.18.18,0,0,0-.13-.17v-2l2.08-2.08V1.85l.48-.48V-1A.16.16,0,0,0,21-1.19a.16.16,0,0,0-.17-.17A.17.17,0,0,0,20.62-1.19Z"/><path class="cls-34" d="M19.67-2.76a.16.16,0,0,0,.13.16V1.24l-.41.42V4l-1.8,1.8V8.18a.17.17,0,0,0,.05.33.17.17,0,0,0,.17-.17.16.16,0,0,0-.13-.16V5.8L19.46,4V1.69l.42-.41V-2.6A.16.16,0,0,0,20-2.76a.16.16,0,0,0-.17-.17A.17.17,0,0,0,19.67-2.76Z"/><path class="cls-35" d="M19.35-.06a.18.18,0,0,0,0-.24.18.18,0,0,0-.25,0,.18.18,0,0,0,0,.21L18,1V3.72a.17.17,0,0,0-.13.16.18.18,0,0,0,.18.18.18.18,0,0,0,.17-.18.17.17,0,0,0-.13-.16V1L19.14,0A.17.17,0,0,0,19.35-.06Z"/><path class="cls-36" d="M13.57,37.05V33.84h0V26.32L12,24.73v-4.9l.39-.4a.24.24,0,0,0,.29,0,.24.24,0,0,0,0-.33.25.25,0,0,0-.34,0,.24.24,0,0,0,0,.28l-.43.43v4.84l-.9-.9a.24.24,0,0,0,0-.28.23.23,0,0,0-.34,0,.24.24,0,0,0,0,.33.23.23,0,0,0,.28,0l2.57,2.57v4.17l-1.13-1.13V27.67a.23.23,0,0,0,.18-.22.24.24,0,0,0-.48,0,.23.23,0,0,0,.18.22v1.79l1.25,1.25v3l-2.86-2.86V25.55L8.76,23.72V21.88l1.65-1.65V17.71h0l.88-.87V13.48a.25.25,0,0,0,.18-.23.24.24,0,0,0-.48,0,.25.25,0,0,0,.18.23v3.31l-.75.75v-5.1a.24.24,0,0,0,.17-.23.23.23,0,0,0-.23-.23.23.23,0,0,0-.07.46v7.74L8.76,21.7V9A.23.23,0,0,0,9,8.74a.24.24,0,1,0-.48,0A.23.23,0,0,0,8.65,9V23.77l1.82,1.83v5.29l1.61,1.61v1.66l-.62.63a.23.23,0,0,0-.28,0,.24.24,0,0,0,0,.34.25.25,0,0,0,.34,0,.24.24,0,0,0,0-.29l.66-.66V32.63l1.25,1.25V37.1l2.22,2.23v2.09l.68.67v5.58a.23.23,0,0,0,.07.46.23.23,0,0,0,.23-.23.24.24,0,0,0-.17-.23V42l-.67-.67v-2.1Z"/><path class="cls-37" d="M12.21,11.29l-1-1V4.37a.24.24,0,0,0-.06-.47.24.24,0,0,0-.24.24.25.25,0,0,0,.18.23v6l1.14,1.14h0v5.33L14.38,19v2.91l-1.06,1.06A.23.23,0,0,0,13,23a.23.23,0,0,0,.33.33.23.23,0,0,0,0-.28l1.1-1.1V19.08l1.77,1.77V31.53l2.81,2.82v6.21h.13V34.29l-2.81-2.81V26.67h0l1.17-1.18V19.27l-3.88-3.89V14l1.4-1.4v-9l1.23-1.22a.23.23,0,0,0,.28,0A.23.23,0,0,0,16.28,2a.23.23,0,0,0,0,.28L15,3.52v9l-1.28,1.28V10a.24.24,0,0,0,.17-.23.23.23,0,0,0-.23-.23.23.23,0,0,0-.24.23.25.25,0,0,0,.18.23v5.44l3.88,3.89v6.13L16.39,26.5V20.8l-4.06-4.07v-15a.25.25,0,0,0,.18-.23.24.24,0,0,0-.48,0,.25.25,0,0,0,.18.23Z"/><path class="cls-38" d="M14.62,48.48a.24.24,0,0,0,0-.28l1.13-1.13V44.59l-1.27-1.28V40.94l-2.12-2.13V37a.25.25,0,0,0,.18-.23.24.24,0,1,0-.48,0,.25.25,0,0,0,.18.23v1.88L14.38,41v2.2L11,39.76V36.23L9.48,34.75V29.41L8.37,28.29V25.24L8,24.85a.23.23,0,0,0,0-.28.23.23,0,0,0-.33.33.23.23,0,0,0,.28,0l.35.35v1.63L6.09,24.75V23.21l1.33-1.33V19.24a.23.23,0,0,0-.07-.46.23.23,0,0,0-.23.23.24.24,0,0,0,.17.23v2.59L6.09,23V18.9l1.37-1.37V7.66l.75-.75a.23.23,0,0,0,.28,0,.23.23,0,1,0-.33-.33.23.23,0,0,0,0,.28l-.79.79v7.51L5.27,13.06V3.81L3.73,2.25a.23.23,0,0,0,0-.28.22.22,0,0,0-.33,0,.24.24,0,0,0,0,.33.23.23,0,0,0,.28,0L5.16,3.86v9.25L7.34,15.3v2.18L6,18.85V24.8l2.29,2.29v1.26l1.11,1.11v5.16L7.21,32.47v-4.7a.26.26,0,0,0,.18-.23.24.24,0,0,0-.48,0,.25.25,0,0,0,.18.23v4.75l3.76,3.76v3.53l4.83,4.83V47l-1.09,1.09a.26.26,0,0,0-.29,0,.24.24,0,1,0,.34.34Z"/></g></g><path class="cls-5" d="M36.55,24.41a7.66,7.66,0,0,1-2.72.82,24.57,24.57,0,0,1-2.53.15,6.36,6.36,0,0,1-3.84-1.2,4.51,4.51,0,0,1-1.65-3.93,4.23,4.23,0,0,1,1.5-3.66,8.61,8.61,0,0,1,3.82-1.46,3.69,3.69,0,0,0,.73-.09c.28-.06.61-.11,1-.15,1.79-.25,2.69-.77,2.69-1.59a1.16,1.16,0,0,0-.94-1.19,7,7,0,0,0-1.74-.28,4.54,4.54,0,0,0-1.53.25,1.66,1.66,0,0,0-1,.91H26.25A4.66,4.66,0,0,1,28,9.88a7,7,0,0,1,4.7-1.4,9.21,9.21,0,0,1,5.12,1.16,3.93,3.93,0,0,1,1.77,3.42v5.55a7,7,0,0,1-.89,3.81A5.43,5.43,0,0,1,36.55,24.41Zm-1-7.51a11.14,11.14,0,0,1-2.38.79L31.79,18a3.47,3.47,0,0,0-1.58.79,2.44,2.44,0,0,0-.43,1.34,2,2,0,0,0,.55,1.46,2.27,2.27,0,0,0,1.58.49,3.37,3.37,0,0,0,3.67-3.65Z"/><path class="cls-5" d="M50.89,24.11v-1a4.71,4.71,0,0,1-3,2.14,6.11,6.11,0,0,1-3.7-.31,7,7,0,0,1-3.14-2.72A9.34,9.34,0,0,1,39.79,17a10.05,10.05,0,0,1,1.74-6.13q1.74-2.34,5.58-2.34a9.89,9.89,0,0,1,5.43,1.59Q55,11.67,55,15.94v8.6q0,4.28-2.5,5.83a10.16,10.16,0,0,1-5.43,1.55q-5.62,0-7-5.25H44.6A3.1,3.1,0,0,0,46.09,28a3.17,3.17,0,0,0,2,.25A3.36,3.36,0,0,0,49.94,27,5,5,0,0,0,50.89,24.11Zm-7-7c0,2.81.81,4.36,2.43,4.67A3.31,3.31,0,0,0,50,20.63a4.51,4.51,0,0,0,.8-2.1,9,9,0,0,0,0-2.84,5.74,5.74,0,0,0-1-2.5,2.7,2.7,0,0,0-2.32-1.1,2.83,2.83,0,0,0-2.81,1.52A7.94,7.94,0,0,0,43.94,17.09Z"/><path class="cls-5" d="M55.77,25.09V17.22a10,10,0,0,1,.71-4,6.54,6.54,0,0,1,1.92-2.59,7.63,7.63,0,0,1,2.72-1.35,12.16,12.16,0,0,1,3.2-.42h.61V13.2H63.52a3.56,3.56,0,0,0-2.62.85A3.68,3.68,0,0,0,60,16.74v8.35Z"/><path class="cls-5" d="M67.36,23.64a6.06,6.06,0,0,1-1.83-3A13.89,13.89,0,0,1,65,16.8a12.44,12.44,0,0,1,.46-3.29,6.94,6.94,0,0,1,1.44-2.75A6.32,6.32,0,0,1,71,8.6a9.4,9.4,0,0,1,4.51.4,6.2,6.2,0,0,1,3.42,3.18,10.13,10.13,0,0,1,1,4.69,11.43,11.43,0,0,1-.43,3.36,8.61,8.61,0,0,1-1.1,2.38,6.14,6.14,0,0,1-3.72,2.5,8.33,8.33,0,0,1-4.06.08A7,7,0,0,1,67.36,23.64ZM70.29,12.9a5.66,5.66,0,0,0-1.16,4.18,6.62,6.62,0,0,0,1,3.87,2.66,2.66,0,0,0,1.28.83,3,3,0,0,0,1.86.06A3.12,3.12,0,0,0,75,20.47a7,7,0,0,0,.79-3.54,6.17,6.17,0,0,0-.7-3.29,3.19,3.19,0,0,0-1.61-1.41,3,3,0,0,0-1.83,0A3.27,3.27,0,0,0,70.29,12.9Z"/><path class="cls-5" d="M91.35,4.07h2.07a2,2,0,0,1,1.47.65,2,2,0,0,1,.61,1.43v11.9c0,2.88-.84,4.84-2.51,5.85a10.22,10.22,0,0,1-5.43,1.52,9.44,9.44,0,0,1-3.11-.52A5.16,5.16,0,0,1,82,23.22a9.66,9.66,0,0,1-1.76-6.16A9.88,9.88,0,0,1,82,10.9a5.94,5.94,0,0,1,7.38-1.77,5.64,5.64,0,0,1,2,1.9Zm-7,12.81a6.34,6.34,0,0,0,.92,3.72,3,3,0,0,0,2.62,1.28,3,3,0,0,0,2.56-1.28,6.69,6.69,0,0,0,.86-3.72,5.85,5.85,0,0,0-.91-3.47,3.18,3.18,0,0,0-2.63-1.23,2.93,2.93,0,0,0-2.5,1.28A5.67,5.67,0,0,0,84.38,16.88Z"/><path class="cls-5" d="M106.59,24.46a7.52,7.52,0,0,1-2.72.82,24.73,24.73,0,0,1-2.53.15,6.37,6.37,0,0,1-3.84-1.19,4.53,4.53,0,0,1-1.65-3.94,4.25,4.25,0,0,1,1.5-3.66,8.74,8.74,0,0,1,3.81-1.46,3.69,3.69,0,0,0,.74-.09c.28-.06.61-.11,1-.15,1.79-.24,2.69-.77,2.69-1.58a1.16,1.16,0,0,0-1-1.19,6,6,0,0,0-1.74-.28,4.49,4.49,0,0,0-1.52.24,1.68,1.68,0,0,0-1,.92H96.28A4.77,4.77,0,0,1,98,9.93a7.09,7.09,0,0,1,4.7-1.4,9.22,9.22,0,0,1,5.13,1.17,3.9,3.9,0,0,1,1.76,3.42v5.55a7,7,0,0,1-.89,3.81A5.41,5.41,0,0,1,106.59,24.46Zm-1-7.5a12.52,12.52,0,0,1-2.39.79l-1.4.3a3.68,3.68,0,0,0-1.59.79,2.54,2.54,0,0,0-.42,1.35,2,2,0,0,0,.54,1.46,2.31,2.31,0,0,0,1.59.49,3.66,3.66,0,0,0,2.69-1,3.61,3.61,0,0,0,1-2.68Z"/><path class="cls-5" d="M117.38,25.14a32.19,32.19,0,0,1-4.36-.06c-1.57-.13-2.35-1.12-2.35-3l0-17.93h2.2a1.93,1.93,0,0,1,1.4.61,2,2,0,0,1,.61,1.47V9h2.51v.86a2,2,0,0,1-.62,1.49,2,2,0,0,1-1.46.58h-.43v9c0,.69.41,1,1.23,1h1.28Z"/><path class="cls-8" d="M130.48.56h4l9,24.68h-5.38l-1.65-5.09h-9.62l-1.57,5.09h-5.38l8.17-23A2.41,2.41,0,0,1,130.48.56Zm1.15,4.95L128.19,16h6.88Z"/><path class="cls-8" d="M145,.56h2.59a2.34,2.34,0,0,1,1.72.72A2.34,2.34,0,0,1,150.07,3V4.51h-5Zm0,5.6h2.59a2.46,2.46,0,0,1,2.44,2.44V25.24h-5Z"/></g></g></svg>