<svg xmlns="http://www.w3.org/2000/svg" xmlns:xlink="http://www.w3.org/1999/xlink" viewBox="0 0 81.01 16.79"><defs><style>.cls-1{fill:none;}.cls-2{isolation:isolate;}.cls-3{fill:#9c4dad;}.cls-4{fill:#7f42a0;}.cls-5{fill:#009a78;}.cls-6{fill:#007b5f;}.cls-7{fill:#00593f;}.cls-8{fill:#4f317a;}.cls-9{opacity:0.47;}.cls-10{clip-path:url(#clip-path);}.cls-11,.cls-12,.cls-13,.cls-14,.cls-15,.cls-16,.cls-17,.cls-18,.cls-19,.cls-20,.cls-21,.cls-22,.cls-23,.cls-24,.cls-25,.cls-26,.cls-27,.cls-28,.cls-29,.cls-30,.cls-31,.cls-32,.cls-33,.cls-34,.cls-35{mix-blend-mode:color-dodge;}.cls-11{fill:url(#linear-gradient);}.cls-12{fill:url(#linear-gradient-2);}.cls-13{fill:url(#linear-gradient-3);}.cls-14{fill:url(#linear-gradient-4);}.cls-15{fill:url(#linear-gradient-5);}.cls-16{fill:url(#linear-gradient-6);}.cls-17{fill:url(#linear-gradient-7);}.cls-18{fill:url(#linear-gradient-8);}.cls-19{fill:url(#linear-gradient-9);}.cls-20{fill:url(#linear-gradient-10);}.cls-21{fill:url(#linear-gradient-11);}.cls-22{fill:url(#linear-gradient-12);}.cls-23{fill:url(#linear-gradient-13);}.cls-24{fill:url(#linear-gradient-14);}.cls-25{fill:url(#linear-gradient-15);}.cls-26{fill:url(#linear-gradient-16);}.cls-27{fill:url(#linear-gradient-17);}.cls-28{fill:url(#linear-gradient-18);}.cls-29{fill:url(#linear-gradient-19);}.cls-30{fill:url(#linear-gradient-20);}.cls-31{fill:url(#linear-gradient-21);}.cls-32{fill:url(#linear-gradient-22);}.cls-33{fill:url(#linear-gradient-23);}.cls-34{fill:url(#linear-gradient-24);}.cls-35{fill:url(#linear-gradient-25);}.cls-36,.cls-37,.cls-38{mix-blend-mode:color-burn;}.cls-36{fill:url(#linear-gradient-26);}.cls-37{fill:url(#linear-gradient-27);}.cls-38{fill:url(#linear-gradient-28);}.cls-39{clip-path:url(#clip-path-2);}.cls-40{clip-path:url(#clip-path-3);}</style><clipPath id="clip-path"><path class="cls-1" d="M5.3,6.23l3.47-2a.71.71,0,0,0,.34-.58V.18C9.1,0,9-.12,8.76,0L5.29,2A.74.74,0,0,0,5,2.57V6C5,6.25,5.11,6.34,5.3,6.23Z"/></clipPath><linearGradient id="linear-gradient" x1="-3266.31" y1="1806.18" x2="-3245.67" y2="1806.18" gradientTransform="translate(1806 3270.76) rotate(90.05)" gradientUnits="userSpaceOnUse"><stop offset="0" stop-color="#d4d4d4"/><stop offset="0.29" stop-color="#909196"/><stop offset="0.41" stop-color="#767881"/><stop offset="0.68" stop-color="#3d4152"/><stop offset="0.89" stop-color="#191e34"/><stop offset="1" stop-color="#0b1129"/></linearGradient><linearGradient id="linear-gradient-2" x1="-3266.84" y1="1798.77" x2="-3245.51" y2="1798.77" xlink:href="#linear-gradient"/><linearGradient id="linear-gradient-3" x1="-3270.53" y1="1800.87" x2="-3245.77" y2="1800.87" xlink:href="#linear-gradient"/><linearGradient id="linear-gradient-4" x1="-3268.22" y1="1803.25" x2="-3245.79" y2="1803.25" xlink:href="#linear-gradient"/><linearGradient id="linear-gradient-5" x1="-3260.35" y1="1803.07" x2="-3250.41" y2="1803.07" xlink:href="#linear-gradient"/><linearGradient id="linear-gradient-6" x1="-3253.91" y1="1803.76" x2="-3251.2" y2="1803.76" xlink:href="#linear-gradient"/><linearGradient id="linear-gradient-7" x1="-3270.46" y1="1805.4" x2="-3256.47" y2="1805.4" xlink:href="#linear-gradient"/><linearGradient id="linear-gradient-8" x1="-3266.39" y1="1803.81" x2="-3257.02" y2="1803.81" xlink:href="#linear-gradient"/><linearGradient id="linear-gradient-9" x1="-3269.07" y1="1805.24" x2="-3261.39" y2="1805.24" xlink:href="#linear-gradient"/><linearGradient id="linear-gradient-10" x1="-3266.76" y1="1803.31" x2="-3258.86" y2="1803.31" xlink:href="#linear-gradient"/><linearGradient id="linear-gradient-11" x1="-3269.12" y1="1804.25" x2="-3258.44" y2="1804.25" xlink:href="#linear-gradient"/><linearGradient id="linear-gradient-12" x1="-3268.56" y1="1806.64" x2="-3257.89" y2="1806.64" xlink:href="#linear-gradient"/><linearGradient id="linear-gradient-13" x1="-3269.56" y1="1800" x2="-3248.69" y2="1800" xlink:href="#linear-gradient"/><linearGradient id="linear-gradient-14" x1="-3269.42" y1="1800.69" x2="-3251.01" y2="1800.69" xlink:href="#linear-gradient"/><linearGradient id="linear-gradient-15" x1="-3257.18" y1="1800.73" x2="-3251.31" y2="1800.73" xlink:href="#linear-gradient"/><linearGradient id="linear-gradient-16" x1="-3255.86" y1="1800.49" x2="-3251.61" y2="1800.49" xlink:href="#linear-gradient"/><linearGradient id="linear-gradient-17" x1="-3268.83" y1="1802.85" x2="-3263.27" y2="1802.85" xlink:href="#linear-gradient"/><linearGradient id="linear-gradient-18" x1="-3271.34" y1="1800.58" x2="-3263.6" y2="1800.58" xlink:href="#linear-gradient"/><linearGradient id="linear-gradient-19" x1="-3269.54" y1="1802.35" x2="-3264.09" y2="1802.35" xlink:href="#linear-gradient"/><linearGradient id="linear-gradient-20" x1="-3269.72" y1="1803.21" x2="-3267.02" y2="1803.21" xlink:href="#linear-gradient"/><linearGradient id="linear-gradient-21" x1="-3270.83" y1="1802.43" x2="-3264.61" y2="1802.43" xlink:href="#linear-gradient"/><linearGradient id="linear-gradient-22" x1="-3267.24" y1="1801.18" x2="-3265.49" y2="1801.18" xlink:href="#linear-gradient"/><linearGradient id="linear-gradient-23" x1="-3270.46" y1="1798.07" x2="-3264.83" y2="1798.07" xlink:href="#linear-gradient"/><linearGradient id="linear-gradient-24" x1="-3271.3" y1="1798.49" x2="-3265.13" y2="1798.49" xlink:href="#linear-gradient"/><linearGradient id="linear-gradient-25" x1="-3269.91" y1="1798.55" x2="-3267.54" y2="1798.55" xlink:href="#linear-gradient"/><linearGradient id="linear-gradient-26" x1="-3265.13" y1="1801.81" x2="-3243.77" y2="1801.81" gradientTransform="translate(1806 3270.76) rotate(90.05)" gradientUnits="userSpaceOnUse"><stop offset="0" stop-color="#c7c7c7"/><stop offset="0.55" stop-color="#e8e8e8"/><stop offset="1" stop-color="#fff"/></linearGradient><linearGradient id="linear-gradient-27" x1="-3269.02" y1="1800.47" x2="-3247.86" y2="1800.47" xlink:href="#linear-gradient-26"/><linearGradient id="linear-gradient-28" x1="-3268.69" y1="1803.44" x2="-3243.55" y2="1803.44" xlink:href="#linear-gradient-26"/><clipPath id="clip-path-2"><path class="cls-1" d="M8.76,4.71l-3.47,2A.73.73,0,0,0,5,7.29v3.47c0,.21.15.3.33.19L8.77,9a.73.73,0,0,0,.33-.58V4.9C9.09,4.69,8.94,4.6,8.76,4.71Z"/></clipPath><clipPath id="clip-path-3"><path class="cls-1" d="M8.75,9.43l-3.47,2A.76.76,0,0,0,5,12v4.62a.23.23,0,0,0,.23.23.23.23,0,0,0,.23-.23v-1l3.34-1.93a.71.71,0,0,0,.34-.57V9.62C9.09,9.41,8.94,9.32,8.75,9.43Z"/></clipPath></defs><title>Manual Agrodata Ai</title><g class="cls-2"><g id="Capa_1" data-name="Capa 1"><path class="cls-3" d="M8.76,0C9-.12,9.1,0,9.1.18V3.65a.71.71,0,0,1-.34.58l-3.47,2C5.11,6.34,5,6.25,5,6V2.57A.74.74,0,0,1,5.29,2Z"/><path class="cls-4" d="M8.76,4.71c.18-.11.33,0,.33.19V8.37A.73.73,0,0,1,8.77,9L5.29,11c-.18.11-.33,0-.33-.19V7.29a.73.73,0,0,1,.34-.58Z"/><path class="cls-5" d="M.67,0C.48-.13.33,0,.33.17V3.65a.76.76,0,0,0,.33.58l3.47,2c.19.11.34,0,.34-.19V2.57A.73.73,0,0,0,4.14,2Z"/><path class="cls-6" d="M.67,4.7c-.19-.11-.34,0-.34.19V8.37A.73.73,0,0,0,.65,9l3.47,2c.18.11.33,0,.33-.19l0-3.47a.73.73,0,0,0-.34-.58Z"/><path class="cls-7" d="M.66,9.42c-.18-.1-.33,0-.33.19l0,3.48a.74.74,0,0,0,.34.58l3.46,2c.19.11.34,0,.34-.19V12a.72.72,0,0,0-.33-.58Z"/><path class="cls-8" d="M9.09,9.62c0-.21-.15-.3-.34-.19l-3.47,2A.76.76,0,0,0,5,12v4.62a.23.23,0,0,0,.23.23.23.23,0,0,0,.23-.23v-1l3.34-1.93a.71.71,0,0,0,.34-.57Z"/><g class="cls-9"><g class="cls-10"><path class="cls-11" d="M4.22,23.57a.1.1,0,0,0-.07-.09V22.31l.48-.47V17.76L3.86,17V15.61l.94-.94v-1.6l-1.4-1.4V8.07l-1-1V6.65L1.69,6V4.68L.17,3.16a.09.09,0,0,0,0-.11.09.09,0,0,0-.13,0,.09.09,0,0,0,0,.13.09.09,0,0,0,.11,0L1.65,4.7V6l.69.7v.41l1,1v3.6l1.4,1.4v1.56l-.94.94V17l.77.77v4l-.48.47v1.19a.1.1,0,0,0-.07.09.09.09,0,0,0,.1.09A.09.09,0,0,0,4.22,23.57Z"/><path class="cls-12" d="M8.73,23.74a.09.09,0,0,0-.07-.09V21.77l-.39-.4V18.72l.51-.51V17l-.21-.21V15l1-1v-1.9l-.85-.85V9.5L9.82,8.39V7.26l-.89-.88V5.74l1.32-1.31V3.67l1-1a.09.09,0,0,0,.11,0,.09.09,0,0,0,0-.13.1.1,0,0,0-.13,0,.09.09,0,0,0,0,.11l-1,1v.76L8.88,5.72V6.4l.89.88V8.37L8.66,9.48v1.77l.85.85V14l-1,1v1.88l.21.21v1.16l-.51.51v2.69l.39.4v1.86a.09.09,0,0,0-.07.09.09.09,0,0,0,.09.09A.09.09,0,0,0,8.73,23.74Z"/><path class="cls-13" d="M6.05,23.47A.1.1,0,0,0,6,23.38V19.76l1.08-1.08V17.23l-.84-.85V14.27l.93-.93V11.79l-.36-.35V10.09l.56-.56V8.44l-.6-.6V6.69l.8-.79V4.44l1-1V-.22L9.42-1a.09.09,0,0,0,.11,0,.09.09,0,0,0,0-.13.1.1,0,0,0-.13,0,.09.09,0,0,0,0,.11l-.81.82V3.38l-1,1V5.87l-.8.8V7.86l.6.6v1l-.56.56v1.39l.36.35v1.51l-.94.93V16.4l.84.85v1.41L5.94,19.74v3.64a.1.1,0,0,0-.06.09.09.09,0,0,0,.18,0Z"/><path class="cls-14" d="M5.14,21.81l-.55.54v1a.1.1,0,0,0-.07.09.09.09,0,0,0,.09.09.1.1,0,0,0,.1-.09.1.1,0,0,0-.07-.09v-1l.55-.54V19.57L6.36,18.4v-.92l-.74-.74V14l.82-.82V12l-.66-.65V9.27l.61-.6V6.16L5,4.71V1.82l-.56-.57a.09.09,0,0,0,0-.11.1.1,0,0,0-.13,0,.1.1,0,0,0,0,.13.09.09,0,0,0,.11,0l.55.55V4.73L6.35,6.19V8.65l-.61.6v2.09L6.4,12v1.17L5.58,14v2.77l.74.74v.88L5.14,19.55Z"/><path class="cls-15" d="M5.09,18.77a.09.09,0,0,0,0,.13.1.1,0,0,0,.13,0,.09.09,0,0,0,0-.11l.63-.63v-.61l-.73-.73V14.1L6,13.26V12.17l-.82-.81V9.16a.08.08,0,0,0,.06-.08.09.09,0,1,0-.18,0,.08.08,0,0,0,.07.08v2.22l.81.81v1.05l-.83.84v2.76l.73.73v.57l-.62.61A.09.09,0,0,0,5.09,18.77Z"/><path class="cls-16" d="M5.09,18v-.57l-.49-.49V15.61a.09.09,0,0,0,.06-.09.09.09,0,0,0-.18,0,.1.1,0,0,0,.07.09v1.3l.49.5V18A.1.1,0,0,0,5,18a.09.09,0,1,0,.18,0A.09.09,0,0,0,5.09,18Z"/><path class="cls-17" d="M1.88,1.53V2.76l1,1V6.1L4,7.27v4.18l1.28,1.27a.09.09,0,0,0,0,.11.09.09,0,1,0,.13-.13.09.09,0,0,0-.11,0L4.05,11.43V7.25L2.88,6.08V3.7l-1-1V1.51L1,.61V-.94A.1.1,0,0,0,1.1-1,.1.1,0,0,0,1-1.13a.11.11,0,0,0-.1.1A.11.11,0,0,0,1-.94V.63Z"/><path class="cls-18" d="M4.32,8.75v2.3l1.12,1.13a.09.09,0,0,0,0,.11.12.12,0,0,0,.14,0,.1.1,0,0,0,0-.13.11.11,0,0,0-.12,0L4.37,11V8.77l.69-.68V6.71l-1-1V3.13A.1.1,0,0,0,4.11,3a.09.09,0,0,0-.18,0A.09.09,0,0,0,4,3.13V5.7l1,1V8.06Z"/><path class="cls-19" d="M2.71,2.1l.78.77V6L4.55,7.08v.68a.09.09,0,0,0-.06.09.09.09,0,1,0,.18,0,.1.1,0,0,0-.07-.09v-.7L3.54,6V2.85l-.78-.78V1L2.2.4a.09.09,0,0,0,0-.11.09.09,0,0,0-.13,0,.09.09,0,0,0,0,.13.09.09,0,0,0,.11,0L2.72,1Z"/><path class="cls-20" d="M4.63,2.76V5L5.93,6.3v2l-.54.54v1.47a.1.1,0,0,0-.06.09.09.09,0,0,0,.18,0,.1.1,0,0,0-.07-.09V8.84L6,8.3v-2L4.67,5V2.76a.1.1,0,0,0,.06-.09.09.09,0,0,0-.18,0A.1.1,0,0,0,4.63,2.76Z"/><path class="cls-21" d="M3.12.31A.1.1,0,0,0,3.19.4v.9L4.33,2.44V5.35L5.51,6.54V8.13l-.71.71v1.87a.1.1,0,0,0-.07.09.09.09,0,0,0,.18,0,.09.09,0,0,0-.06-.09V8.86l.71-.71V6.52L4.37,5.33V2.42L3.24,1.28V.4A.09.09,0,0,0,3.3.31a.09.09,0,1,0-.18,0Z"/><path class="cls-22" d="M1.2,3.49l1,1V6L3.68,7.52v3.74a.09.09,0,0,0-.07.09.09.09,0,0,0,.18,0,.08.08,0,0,0-.06-.09V7.5L2.24,6V4.46l-1-1V1.9l-1-1A.09.09,0,0,0,.25.8.09.09,0,0,0,.12.8a.1.1,0,0,0,0,.13.09.09,0,0,0,.11,0l1,1Z"/><path class="cls-23" d="M8,20.55a.08.08,0,0,0-.07-.08V18.39L8.35,18V14.73l.83-.82V12.34l-1-1V9l.93-.93v-1L8.4,6.41v-1l.88-.88V0a.09.09,0,0,0,.07-.09.09.09,0,0,0-.1-.09.09.09,0,0,0-.09.09A.09.09,0,0,0,9.23,0V4.52l-.88.88v1L9,7.11v1L8.1,9v2.32l1,1v1.53l-.83.82V18l-.42.42v2.1a.08.08,0,0,0-.07.08.09.09,0,1,0,.18,0Z"/><path class="cls-24" d="M7.32,10.62V10.2l.45-.46V8L7.37,7.6V6.67l.49-.49V4.68L9,3.54V.1A.1.1,0,0,0,9.08,0,.1.1,0,0,0,9-.08.09.09,0,0,0,8.89,0,.1.1,0,0,0,9,.1V3.51L7.81,4.66v1.5l-.49.49v1L7.73,8V9.72l-.45.46v.46l.37.38v2.31l-.94.94V16l.69.68v1.5a.1.1,0,0,0-.07.09.09.09,0,1,0,.18,0,.1.1,0,0,0-.07-.09V16.62l-.69-.68V14.29l.94-.94V11Z"/><path class="cls-25" d="M8.42,12.34a.1.1,0,0,0,.06-.09.1.1,0,0,0-.09-.1.09.09,0,0,0-.09.1.11.11,0,0,0,.07.09v.75L7.21,14.25V15.7l.48.48v1.66a.1.1,0,0,0-.07.09.09.09,0,1,0,.18,0,.1.1,0,0,0-.06-.09V16.16l-.48-.48V14.27l1.16-1.16Z"/><path class="cls-26" d="M8.6,13.64a.09.09,0,1,0-.13-.13.09.09,0,0,0,0,.11l-.91.9v1l.47.46v1.61a.1.1,0,0,0-.06.09.09.09,0,1,0,.18,0,.1.1,0,0,0-.07-.09V15.91l-.46-.46v-.91l.89-.89A.09.09,0,0,0,8.6,13.64Z"/><path class="cls-27" d="M5.66,1.57,4.74.65a.09.09,0,0,0,0-.11.09.09,0,0,0-.13,0,.09.09,0,0,0,0,.13.09.09,0,0,0,.11,0l.91.91V4.8L6.73,5.92a.09.09,0,0,0,0,.11.09.09,0,0,0,.13-.13.09.09,0,0,0-.11,0L5.66,4.78Z"/><path class="cls-28" d="M7.93-1V0L7.48.43v1L8,2V3.27l-.9.9V5.55A.1.1,0,0,0,7,5.64a.09.09,0,1,0,.18,0,.1.1,0,0,0-.07-.09V4.19l.9-.9V2l-.52-.52v-1L8,0V-1l.86-.86a.09.09,0,0,0,.11,0A.1.1,0,0,0,9-2a.09.09,0,0,0-.13,0,.09.09,0,0,0,0,.11Z"/><path class="cls-29" d="M6.2,3.4l.67-.67v-.8L6.24,1.3V.4L5.78-.07a.09.09,0,0,0,0-.11.12.12,0,0,0-.14,0,.1.1,0,0,0,0,.13.09.09,0,0,0,.11,0l.45.45v.9L6.82,2v.76l-.67.66V4.61l.5.49a.09.09,0,0,0,.14.12.1.1,0,0,0,0-.14.09.09,0,0,0-.11,0L6.2,4.59Z"/><path class="cls-30" d="M5.9,2.14a.09.09,0,0,0-.07.09.09.09,0,1,0,.18,0A.09.09,0,0,0,6,2.14V.78l-1-1a.09.09,0,0,0,0-.11.1.1,0,0,0-.13,0,.09.09,0,0,0,0,.13.09.09,0,0,0,.11,0l1,1Z"/><path class="cls-31" d="M6.64,0V1l.47.47V3.39l-.4.39v.76a.09.09,0,0,0-.06.09.09.09,0,1,0,.18,0,.1.1,0,0,0-.07-.09V3.81l.4-.4V1.46L6.69,1V0L5.32-1.36a.09.09,0,0,0,0-.11.1.1,0,0,0-.13,0,.09.09,0,0,0,0,.13.09.09,0,0,0,.11,0Z"/><path class="cls-32" d="M7.12,3.69a.1.1,0,0,0,0,.13.09.09,0,0,0,.13,0,.09.09,0,0,0,0-.11l.38-.38V2.28a.08.08,0,0,0,.07-.08.09.09,0,1,0-.18,0,.08.08,0,0,0,.06.08v1l-.37.37A.09.09,0,0,0,7.12,3.69Z"/><path class="cls-33" d="M11.12-1a.08.08,0,0,0,.06.09V.33l-.26.26v1.5L9.8,3.21V4.33a.08.08,0,0,0-.07.08.09.09,0,0,0,.09.1.09.09,0,0,0,.1-.1.08.08,0,0,0-.07-.08V3.23L11,2.12V.61l.26-.26V-.94A.08.08,0,0,0,11.3-1a.09.09,0,0,0-.09-.1A.09.09,0,0,0,11.12-1Z"/><path class="cls-34" d="M10.6-1.87a.1.1,0,0,0,.07.09V.29l-.23.22V1.75l-1,1V4a.08.08,0,0,0-.07.08.1.1,0,0,0,.1.1.09.09,0,0,0,.09-.1A.08.08,0,0,0,9.52,4V2.74l1-1V.53l.23-.22V-1.78a.1.1,0,0,0,.07-.09A.09.09,0,0,0,10.7-2,.1.1,0,0,0,10.6-1.87Z"/><path class="cls-35" d="M10.43-.41a.09.09,0,0,0,0-.13.09.09,0,0,0-.13,0,.09.09,0,0,0,0,.11L9.69.15V1.62a.1.1,0,0,0-.07.09.1.1,0,0,0,.1.09.09.09,0,0,0,.09-.09.1.1,0,0,0-.07-.09V.17l.58-.57A.09.09,0,0,0,10.43-.41Z"/><path class="cls-36" d="M7.31,19.59V17.86h0V13.8L6.47,13V10.3l.21-.21a.12.12,0,0,0,.15,0,.13.13,0,0,0-.18-.18.14.14,0,0,0,0,.15l-.23.24v2.6l-.48-.48a.14.14,0,0,0,0-.15.13.13,0,0,0-.18.18.14.14,0,0,0,.15,0l1.38,1.38v2.25l-.61-.61v-.93a.14.14,0,0,0,.1-.13.13.13,0,0,0-.26,0,.14.14,0,0,0,.1.13v1l.68.67v1.62L5.7,16.24V13.39l-1-1v-1l.89-.89V9.17h0l.48-.47V6.88a.12.12,0,0,0,.09-.12.13.13,0,0,0-.13-.13.12.12,0,0,0-.12.13A.12.12,0,0,0,6,6.88V8.67l-.41.4V6.32a.12.12,0,0,0,.09-.12.13.13,0,0,0-.13-.13.12.12,0,0,0-.12.13.11.11,0,0,0,.09.12V10.5l-.83.82V4.45a.13.13,0,0,0,.09-.12A.12.12,0,0,0,4.7,4.2a.13.13,0,0,0-.13.13.13.13,0,0,0,.09.12v8l1,1v2.85l.86.87V18l-.33.34a.14.14,0,0,0-.16,0,.13.13,0,1,0,.18.18.12.12,0,0,0,0-.15l.36-.36v-.85l.68.67v1.74l1.19,1.2v1.12l.37.37v3a.14.14,0,0,0-.1.13.13.13,0,0,0,.26,0,.14.14,0,0,0-.1-.13v-3l-.37-.36V20.79Z"/><path class="cls-37" d="M6.58,5.7,6,5.15V2a.12.12,0,0,0,.1-.12.13.13,0,1,0-.26,0A.12.12,0,0,0,6,2V5.18l.62.62h0V8.67L7.75,9.84v1.57L7.18,12A.14.14,0,0,0,7,12a.13.13,0,1,0,.18.18.11.11,0,0,0,0-.15l.6-.59V9.9l.95,1v5.76l1.52,1.51v3.35h.06V18.1L8.83,16.59V14h0l.64-.63V10L7.38,7.91V7.16l.76-.75V1.54L8.8.88A.12.12,0,0,0,9,.86.14.14,0,0,0,9,.68a.13.13,0,0,0-.18,0,.14.14,0,0,0,0,.16l-.68.68V6.38l-.69.69V5a.12.12,0,0,0,.09-.12.12.12,0,0,0-.12-.13.13.13,0,0,0-.13.13A.12.12,0,0,0,7.31,5V7.94L9.4,10v3.31l-.57.56V10.83L6.65,8.64V.57a.14.14,0,0,0,.1-.13.13.13,0,0,0-.26,0,.14.14,0,0,0,.1.13Z"/><path class="cls-38" d="M7.88,25.75a.12.12,0,0,0,0-.15L8.51,25V23.66L7.82,23V21.68L6.68,20.54v-1a.12.12,0,0,0,.09-.12.12.12,0,0,0-.12-.13.13.13,0,0,0-.13.13.12.12,0,0,0,.09.12v1l1.14,1.14V22.9L5.91,21.05v-1.9l-.8-.8V15.47l-.6-.6V13.22L4.31,13a.14.14,0,0,0,0-.15.13.13,0,0,0-.18.18.12.12,0,0,0,.15,0l.19.19v.88L3.28,13v-.83L4,11.41V10a.13.13,0,0,0,.1-.12.13.13,0,0,0-.26,0,.13.13,0,0,0,.1.12v1.4L3.28,12V9.81L4,9.07V3.75l.4-.41a.12.12,0,0,0,.15,0,.13.13,0,0,0-.18-.18.12.12,0,0,0,0,.15L4,3.72v4L2.84,6.66v-5L2,.83A.12.12,0,0,0,2,.68a.13.13,0,1,0-.18.18A.12.12,0,0,0,2,.88l.82.82v5L4,7.87V9l-.74.74V13l1.24,1.23v.68l.6.6v2.78L3.89,17.12V14.59A.14.14,0,0,0,4,14.47a.13.13,0,0,0-.13-.13.12.12,0,0,0-.12.13.14.14,0,0,0,.09.12v2.56l2,2v1.9l2.6,2.6V25l-.59.59a.12.12,0,0,0-.15,0,.13.13,0,0,0,.18.18Z"/></g><g class="cls-39"><path class="cls-11" d="M4.22,23.57a.1.1,0,0,0-.07-.09V22.31l.48-.47V17.76L3.86,17V15.61l.94-.94v-1.6l-1.4-1.4V8.07l-1-1V6.65L1.69,6V4.68L.17,3.16a.09.09,0,0,0,0-.11.09.09,0,0,0-.13,0,.09.09,0,0,0,0,.13.09.09,0,0,0,.11,0L1.65,4.7V6l.69.7v.41l1,1v3.6l1.4,1.4v1.56l-.94.94V17l.77.77v4l-.48.47v1.19a.1.1,0,0,0-.07.09.09.09,0,0,0,.1.09A.09.09,0,0,0,4.22,23.57Z"/><path class="cls-12" d="M8.73,23.74a.09.09,0,0,0-.07-.09V21.77l-.39-.4V18.72l.51-.51V17l-.21-.21V15l1-1v-1.9l-.85-.85V9.5L9.82,8.39V7.26l-.89-.88V5.74l1.32-1.31V3.67l1-1a.09.09,0,0,0,.11,0,.09.09,0,0,0,0-.13.1.1,0,0,0-.13,0,.09.09,0,0,0,0,.11l-1,1v.76L8.88,5.72V6.4l.89.88V8.37L8.66,9.48v1.77l.85.85V14l-1,1v1.88l.21.21v1.16l-.51.51v2.69l.39.4v1.86a.09.09,0,0,0-.07.09.09.09,0,0,0,.09.09A.09.09,0,0,0,8.73,23.74Z"/><path class="cls-13" d="M6.05,23.47A.1.1,0,0,0,6,23.38V19.76l1.08-1.08V17.23l-.84-.85V14.27l.93-.93V11.79l-.36-.35V10.09l.56-.56V8.44l-.6-.6V6.69l.8-.79V4.44l1-1V-.22L9.42-1a.09.09,0,0,0,.11,0,.09.09,0,0,0,0-.13.1.1,0,0,0-.13,0,.09.09,0,0,0,0,.11l-.81.82V3.38l-1,1V5.87l-.8.8V7.86l.6.6v1l-.56.56v1.39l.36.35v1.51l-.94.93V16.4l.84.85v1.41L5.94,19.74v3.64a.1.1,0,0,0-.06.09.09.09,0,0,0,.18,0Z"/><path class="cls-14" d="M5.14,21.81l-.55.54v1a.1.1,0,0,0-.07.09.09.09,0,0,0,.09.09.1.1,0,0,0,.1-.09.1.1,0,0,0-.07-.09v-1l.55-.54V19.57L6.36,18.4v-.92l-.74-.74V14l.82-.82V12l-.66-.65V9.27l.61-.6V6.16L5,4.71V1.82l-.56-.57a.09.09,0,0,0,0-.11.1.1,0,0,0-.13,0,.1.1,0,0,0,0,.13.09.09,0,0,0,.11,0l.55.55V4.73L6.35,6.19V8.65l-.61.6v2.09L6.4,12v1.17L5.58,14v2.77l.74.74v.88L5.14,19.55Z"/><path class="cls-15" d="M5.09,18.77a.09.09,0,0,0,0,.13.1.1,0,0,0,.13,0,.09.09,0,0,0,0-.11l.63-.63v-.61l-.73-.73V14.1L6,13.26V12.17l-.82-.81V9.16a.08.08,0,0,0,.06-.08.09.09,0,1,0-.18,0,.08.08,0,0,0,.07.08v2.22l.81.81v1.05l-.83.84v2.76l.73.73v.57l-.62.61A.09.09,0,0,0,5.09,18.77Z"/><path class="cls-16" d="M5.09,18v-.57l-.49-.49V15.61a.09.09,0,0,0,.06-.09.09.09,0,0,0-.18,0,.1.1,0,0,0,.07.09v1.3l.49.5V18A.1.1,0,0,0,5,18a.09.09,0,1,0,.18,0A.09.09,0,0,0,5.09,18Z"/><path class="cls-17" d="M1.88,1.53V2.76l1,1V6.1L4,7.27v4.18l1.28,1.27a.09.09,0,0,0,0,.11.09.09,0,1,0,.13-.13.09.09,0,0,0-.11,0L4.05,11.43V7.25L2.88,6.08V3.7l-1-1V1.51L1,.61V-.94A.1.1,0,0,0,1.1-1,.1.1,0,0,0,1-1.13a.11.11,0,0,0-.1.1A.11.11,0,0,0,1-.94V.63Z"/><path class="cls-18" d="M4.32,8.75v2.3l1.12,1.13a.09.09,0,0,0,0,.11.12.12,0,0,0,.14,0,.1.1,0,0,0,0-.13.11.11,0,0,0-.12,0L4.37,11V8.77l.69-.68V6.71l-1-1V3.13A.1.1,0,0,0,4.11,3a.09.09,0,0,0-.18,0A.09.09,0,0,0,4,3.13V5.7l1,1V8.06Z"/><path class="cls-19" d="M2.71,2.1l.78.77V6L4.55,7.08v.68a.09.09,0,0,0-.06.09.09.09,0,1,0,.18,0,.1.1,0,0,0-.07-.09v-.7L3.54,6V2.85l-.78-.78V1L2.2.4a.09.09,0,0,0,0-.11.09.09,0,0,0-.13,0,.09.09,0,0,0,0,.13.09.09,0,0,0,.11,0L2.72,1Z"/><path class="cls-20" d="M4.63,2.76V5L5.93,6.3v2l-.54.54v1.47a.1.1,0,0,0-.06.09.09.09,0,0,0,.18,0,.1.1,0,0,0-.07-.09V8.84L6,8.3v-2L4.67,5V2.76a.1.1,0,0,0,.06-.09.09.09,0,0,0-.18,0A.1.1,0,0,0,4.63,2.76Z"/><path class="cls-21" d="M3.12.31A.1.1,0,0,0,3.19.4v.9L4.33,2.44V5.35L5.51,6.54V8.13l-.71.71v1.87a.1.1,0,0,0-.07.09.09.09,0,0,0,.18,0,.09.09,0,0,0-.06-.09V8.86l.71-.71V6.52L4.37,5.33V2.42L3.24,1.28V.4A.09.09,0,0,0,3.3.31a.09.09,0,1,0-.18,0Z"/><path class="cls-22" d="M1.2,3.49l1,1V6L3.68,7.52v3.74a.09.09,0,0,0-.07.09.09.09,0,0,0,.18,0,.08.08,0,0,0-.06-.09V7.5L2.24,6V4.46l-1-1V1.9l-1-1A.09.09,0,0,0,.25.8.09.09,0,0,0,.12.8a.1.1,0,0,0,0,.13.09.09,0,0,0,.11,0l1,1Z"/><path class="cls-23" d="M8,20.55a.08.08,0,0,0-.07-.08V18.39L8.35,18V14.73l.83-.82V12.34l-1-1V9l.93-.93v-1L8.4,6.41v-1l.88-.88V0a.09.09,0,0,0,.07-.09.09.09,0,0,0-.1-.09.09.09,0,0,0-.09.09A.09.09,0,0,0,9.23,0V4.52l-.88.88v1L9,7.11v1L8.1,9v2.32l1,1v1.53l-.83.82V18l-.42.42v2.1a.08.08,0,0,0-.07.08.09.09,0,1,0,.18,0Z"/><path class="cls-24" d="M7.32,10.62V10.2l.45-.46V8L7.37,7.6V6.67l.49-.49V4.68L9,3.54V.1A.1.1,0,0,0,9.08,0,.1.1,0,0,0,9-.08.09.09,0,0,0,8.89,0,.1.1,0,0,0,9,.1V3.51L7.81,4.66v1.5l-.49.49v1L7.73,8V9.72l-.45.46v.46l.37.38v2.31l-.94.94V16l.69.68v1.5a.1.1,0,0,0-.07.09.09.09,0,1,0,.18,0,.1.1,0,0,0-.07-.09V16.62l-.69-.68V14.29l.94-.94V11Z"/><path class="cls-25" d="M8.42,12.34a.1.1,0,0,0,.06-.09.1.1,0,0,0-.09-.1.09.09,0,0,0-.09.1.11.11,0,0,0,.07.09v.75L7.21,14.25V15.7l.48.48v1.66a.1.1,0,0,0-.07.09.09.09,0,1,0,.18,0,.1.1,0,0,0-.06-.09V16.16l-.48-.48V14.27l1.16-1.16Z"/><path class="cls-26" d="M8.6,13.64a.09.09,0,1,0-.13-.13.09.09,0,0,0,0,.11l-.91.9v1l.47.46v1.61a.1.1,0,0,0-.06.09.09.09,0,1,0,.18,0,.1.1,0,0,0-.07-.09V15.91l-.46-.46v-.91l.89-.89A.09.09,0,0,0,8.6,13.64Z"/><path class="cls-27" d="M5.66,1.57,4.74.65a.09.09,0,0,0,0-.11.09.09,0,0,0-.13,0,.09.09,0,0,0,0,.13.09.09,0,0,0,.11,0l.91.91V4.8L6.73,5.92a.09.09,0,0,0,0,.11.09.09,0,0,0,.13-.13.09.09,0,0,0-.11,0L5.66,4.78Z"/><path class="cls-28" d="M7.93-1V0L7.48.43v1L8,2V3.27l-.9.9V5.55A.1.1,0,0,0,7,5.64a.09.09,0,1,0,.18,0,.1.1,0,0,0-.07-.09V4.19l.9-.9V2l-.52-.52v-1L8,0V-1l.86-.86a.09.09,0,0,0,.11,0A.1.1,0,0,0,9-2a.09.09,0,0,0-.13,0,.09.09,0,0,0,0,.11Z"/><path class="cls-29" d="M6.2,3.4l.67-.67v-.8L6.24,1.3V.4L5.78-.07a.09.09,0,0,0,0-.11.12.12,0,0,0-.14,0,.1.1,0,0,0,0,.13.09.09,0,0,0,.11,0l.45.45v.9L6.82,2v.76l-.67.66V4.61l.5.49a.09.09,0,0,0,.14.12.1.1,0,0,0,0-.14.09.09,0,0,0-.11,0L6.2,4.59Z"/><path class="cls-30" d="M5.9,2.14a.09.09,0,0,0-.07.09.09.09,0,1,0,.18,0A.09.09,0,0,0,6,2.14V.78l-1-1a.09.09,0,0,0,0-.11.1.1,0,0,0-.13,0,.09.09,0,0,0,0,.13.09.09,0,0,0,.11,0l1,1Z"/><path class="cls-31" d="M6.64,0V1l.47.47V3.39l-.4.39v.76a.09.09,0,0,0-.06.09.09.09,0,1,0,.18,0,.1.1,0,0,0-.07-.09V3.81l.4-.4V1.46L6.69,1V0L5.32-1.36a.09.09,0,0,0,0-.11.1.1,0,0,0-.13,0,.09.09,0,0,0,0,.13.09.09,0,0,0,.11,0Z"/><path class="cls-32" d="M7.12,3.69a.1.1,0,0,0,0,.13.09.09,0,0,0,.13,0,.09.09,0,0,0,0-.11l.38-.38V2.28a.08.08,0,0,0,.07-.08.09.09,0,1,0-.18,0,.08.08,0,0,0,.06.08v1l-.37.37A.09.09,0,0,0,7.12,3.69Z"/><path class="cls-33" d="M11.12-1a.08.08,0,0,0,.06.09V.33l-.26.26v1.5L9.8,3.21V4.33a.08.08,0,0,0-.07.08.09.09,0,0,0,.09.1.09.09,0,0,0,.1-.1.08.08,0,0,0-.07-.08V3.23L11,2.12V.61l.26-.26V-.94A.08.08,0,0,0,11.3-1a.09.09,0,0,0-.09-.1A.09.09,0,0,0,11.12-1Z"/><path class="cls-34" d="M10.6-1.87a.1.1,0,0,0,.07.09V.29l-.23.22V1.75l-1,1V4a.08.08,0,0,0-.07.08.1.1,0,0,0,.1.1.09.09,0,0,0,.09-.1A.08.08,0,0,0,9.52,4V2.74l1-1V.53l.23-.22V-1.78a.1.1,0,0,0,.07-.09A.09.09,0,0,0,10.7-2,.1.1,0,0,0,10.6-1.87Z"/><path class="cls-35" d="M10.43-.41a.09.09,0,0,0,0-.13.09.09,0,0,0-.13,0,.09.09,0,0,0,0,.11L9.69.15V1.62a.1.1,0,0,0-.07.09.1.1,0,0,0,.1.09.09.09,0,0,0,.09-.09.1.1,0,0,0-.07-.09V.17l.58-.57A.09.09,0,0,0,10.43-.41Z"/><path class="cls-36" d="M7.31,19.59V17.86h0V13.8L6.47,13V10.3l.21-.21a.12.12,0,0,0,.15,0,.13.13,0,0,0-.18-.18.14.14,0,0,0,0,.15l-.23.24v2.6l-.48-.48a.14.14,0,0,0,0-.15.13.13,0,0,0-.18.18.14.14,0,0,0,.15,0l1.38,1.38v2.25l-.61-.61v-.93a.14.14,0,0,0,.1-.13.13.13,0,0,0-.26,0,.14.14,0,0,0,.1.13v1l.68.67v1.62L5.7,16.24V13.39l-1-1v-1l.89-.89V9.17h0l.48-.47V6.88a.12.12,0,0,0,.09-.12.13.13,0,0,0-.13-.13.12.12,0,0,0-.12.13A.12.12,0,0,0,6,6.88V8.67l-.41.4V6.32a.12.12,0,0,0,.09-.12.13.13,0,0,0-.13-.13.12.12,0,0,0-.12.13.11.11,0,0,0,.09.12V10.5l-.83.82V4.45a.13.13,0,0,0,.09-.12A.12.12,0,0,0,4.7,4.2a.13.13,0,0,0-.13.13.13.13,0,0,0,.09.12v8l1,1v2.85l.86.87V18l-.33.34a.14.14,0,0,0-.16,0,.13.13,0,1,0,.18.18.12.12,0,0,0,0-.15l.36-.36v-.85l.68.67v1.74l1.19,1.2v1.12l.37.37v3a.14.14,0,0,0-.1.13.13.13,0,0,0,.26,0,.14.14,0,0,0-.1-.13v-3l-.37-.36V20.79Z"/><path class="cls-37" d="M6.58,5.7,6,5.15V2a.12.12,0,0,0,.1-.12.13.13,0,1,0-.26,0A.12.12,0,0,0,6,2V5.18l.62.62h0V8.67L7.75,9.84v1.57L7.18,12A.14.14,0,0,0,7,12a.13.13,0,1,0,.18.18.11.11,0,0,0,0-.15l.6-.59V9.9l.95,1v5.76l1.52,1.51v3.35h.06V18.1L8.83,16.59V14h0l.64-.63V10L7.38,7.91V7.16l.76-.75V1.54L8.8.88A.12.12,0,0,0,9,.86.14.14,0,0,0,9,.68a.13.13,0,0,0-.18,0,.14.14,0,0,0,0,.16l-.68.68V6.38l-.69.69V5a.12.12,0,0,0,.09-.12.12.12,0,0,0-.12-.13.13.13,0,0,0-.13.13A.12.12,0,0,0,7.31,5V7.94L9.4,10v3.31l-.57.56V10.83L6.65,8.64V.57a.14.14,0,0,0,.1-.13.13.13,0,0,0-.26,0,.14.14,0,0,0,.1.13Z"/><path class="cls-38" d="M7.88,25.75a.12.12,0,0,0,0-.15L8.51,25V23.66L7.82,23V21.68L6.68,20.54v-1a.12.12,0,0,0,.09-.12.12.12,0,0,0-.12-.13.13.13,0,0,0-.13.13.12.12,0,0,0,.09.12v1l1.14,1.14V22.9L5.91,21.05v-1.9l-.8-.8V15.47l-.6-.6V13.22L4.31,13a.14.14,0,0,0,0-.15.13.13,0,0,0-.18.18.12.12,0,0,0,.15,0l.19.19v.88L3.28,13v-.83L4,11.41V10a.13.13,0,0,0,.1-.12.13.13,0,0,0-.26,0,.13.13,0,0,0,.1.12v1.4L3.28,12V9.81L4,9.07V3.75l.4-.41a.12.12,0,0,0,.15,0,.13.13,0,0,0-.18-.18.12.12,0,0,0,0,.15L4,3.72v4L2.84,6.66v-5L2,.83A.12.12,0,0,0,2,.68a.13.13,0,1,0-.18.18A.12.12,0,0,0,2,.88l.82.82v5L4,7.87V9l-.74.74V13l1.24,1.23v.68l.6.6v2.78L3.89,17.12V14.59A.14.14,0,0,0,4,14.47a.13.13,0,0,0-.13-.13.12.12,0,0,0-.12.13.14.14,0,0,0,.09.12v2.56l2,2v1.9l2.6,2.6V25l-.59.59a.12.12,0,0,0-.15,0,.13.13,0,0,0,.18.18Z"/></g><g class="cls-40"><path class="cls-11" d="M4.22,23.57a.1.1,0,0,0-.07-.09V22.31l.48-.47V17.76L3.86,17V15.61l.94-.94v-1.6l-1.4-1.4V8.07l-1-1V6.65L1.69,6V4.68L.17,3.16a.09.09,0,0,0,0-.11.09.09,0,0,0-.13,0,.09.09,0,0,0,0,.13.09.09,0,0,0,.11,0L1.65,4.7V6l.69.7v.41l1,1v3.6l1.4,1.4v1.56l-.94.94V17l.77.77v4l-.48.47v1.19a.1.1,0,0,0-.07.09.09.09,0,0,0,.1.09A.09.09,0,0,0,4.22,23.57Z"/><path class="cls-12" d="M8.73,23.74a.09.09,0,0,0-.07-.09V21.77l-.39-.4V18.72l.51-.51V17l-.21-.21V15l1-1v-1.9l-.85-.85V9.5L9.82,8.39V7.26l-.89-.88V5.74l1.32-1.31V3.67l1-1a.09.09,0,0,0,.11,0,.09.09,0,0,0,0-.13.1.1,0,0,0-.13,0,.09.09,0,0,0,0,.11l-1,1v.76L8.88,5.72V6.4l.89.88V8.37L8.66,9.48v1.77l.85.85V14l-1,1v1.88l.21.21v1.16l-.51.51v2.69l.39.4v1.86a.09.09,0,0,0-.07.09.09.09,0,0,0,.09.09A.09.09,0,0,0,8.73,23.74Z"/><path class="cls-13" d="M6.05,23.47A.1.1,0,0,0,6,23.38V19.76l1.08-1.08V17.23l-.84-.85V14.27l.93-.93V11.79l-.36-.35V10.09l.56-.56V8.44l-.6-.6V6.69l.8-.79V4.44l1-1V-.22L9.42-1a.09.09,0,0,0,.11,0,.09.09,0,0,0,0-.13.1.1,0,0,0-.13,0,.09.09,0,0,0,0,.11l-.81.82V3.38l-1,1V5.87l-.8.8V7.86l.6.6v1l-.56.56v1.39l.36.35v1.51l-.94.93V16.4l.84.85v1.41L5.94,19.74v3.64a.1.1,0,0,0-.06.09.09.09,0,0,0,.18,0Z"/><path class="cls-14" d="M5.14,21.81l-.55.54v1a.1.1,0,0,0-.07.09.09.09,0,0,0,.09.09.1.1,0,0,0,.1-.09.1.1,0,0,0-.07-.09v-1l.55-.54V19.57L6.36,18.4v-.92l-.74-.74V14l.82-.82V12l-.66-.65V9.27l.61-.6V6.16L5,4.71V1.82l-.56-.57a.09.09,0,0,0,0-.11.1.1,0,0,0-.13,0,.1.1,0,0,0,0,.13.09.09,0,0,0,.11,0l.55.55V4.73L6.35,6.19V8.65l-.61.6v2.09L6.4,12v1.17L5.58,14v2.77l.74.74v.88L5.14,19.55Z"/><path class="cls-15" d="M5.09,18.77a.09.09,0,0,0,0,.13.1.1,0,0,0,.13,0,.09.09,0,0,0,0-.11l.63-.63v-.61l-.73-.73V14.1L6,13.26V12.17l-.82-.81V9.16a.08.08,0,0,0,.06-.08.09.09,0,1,0-.18,0,.08.08,0,0,0,.07.08v2.22l.81.81v1.05l-.83.84v2.76l.73.73v.57l-.62.61A.09.09,0,0,0,5.09,18.77Z"/><path class="cls-16" d="M5.09,18v-.57l-.49-.49V15.61a.09.09,0,0,0,.06-.09.09.09,0,0,0-.18,0,.1.1,0,0,0,.07.09v1.3l.49.5V18A.1.1,0,0,0,5,18a.09.09,0,1,0,.18,0A.09.09,0,0,0,5.09,18Z"/><path class="cls-17" d="M1.88,1.53V2.76l1,1V6.1L4,7.27v4.18l1.28,1.27a.09.09,0,0,0,0,.11.09.09,0,1,0,.13-.13.09.09,0,0,0-.11,0L4.05,11.43V7.25L2.88,6.08V3.7l-1-1V1.51L1,.61V-.94A.1.1,0,0,0,1.1-1,.1.1,0,0,0,1-1.13a.11.11,0,0,0-.1.1A.11.11,0,0,0,1-.94V.63Z"/><path class="cls-18" d="M4.32,8.75v2.3l1.12,1.13a.09.09,0,0,0,0,.11.12.12,0,0,0,.14,0,.1.1,0,0,0,0-.13.11.11,0,0,0-.12,0L4.37,11V8.77l.69-.68V6.71l-1-1V3.13A.1.1,0,0,0,4.11,3a.09.09,0,0,0-.18,0A.09.09,0,0,0,4,3.13V5.7l1,1V8.06Z"/><path class="cls-19" d="M2.71,2.1l.78.77V6L4.55,7.08v.68a.09.09,0,0,0-.06.09.09.09,0,1,0,.18,0,.1.1,0,0,0-.07-.09v-.7L3.54,6V2.85l-.78-.78V1L2.2.4a.09.09,0,0,0,0-.11.09.09,0,0,0-.13,0,.09.09,0,0,0,0,.13.09.09,0,0,0,.11,0L2.72,1Z"/><path class="cls-20" d="M4.63,2.76V5L5.93,6.3v2l-.54.54v1.47a.1.1,0,0,0-.06.09.09.09,0,0,0,.18,0,.1.1,0,0,0-.07-.09V8.84L6,8.3v-2L4.67,5V2.76a.1.1,0,0,0,.06-.09.09.09,0,0,0-.18,0A.1.1,0,0,0,4.63,2.76Z"/><path class="cls-21" d="M3.12.31A.1.1,0,0,0,3.19.4v.9L4.33,2.44V5.35L5.51,6.54V8.13l-.71.71v1.87a.1.1,0,0,0-.07.09.09.09,0,0,0,.18,0,.09.09,0,0,0-.06-.09V8.86l.71-.71V6.52L4.37,5.33V2.42L3.24,1.28V.4A.09.09,0,0,0,3.3.31a.09.09,0,1,0-.18,0Z"/><path class="cls-22" d="M1.2,3.49l1,1V6L3.68,7.52v3.74a.09.09,0,0,0-.07.09.09.09,0,0,0,.18,0,.08.08,0,0,0-.06-.09V7.5L2.24,6V4.46l-1-1V1.9l-1-1A.09.09,0,0,0,.25.8.09.09,0,0,0,.12.8a.1.1,0,0,0,0,.13.09.09,0,0,0,.11,0l1,1Z"/><path class="cls-23" d="M8,20.55a.08.08,0,0,0-.07-.08V18.39L8.35,18V14.73l.83-.82V12.34l-1-1V9l.93-.93v-1L8.4,6.41v-1l.88-.88V0a.09.09,0,0,0,.07-.09.09.09,0,0,0-.1-.09.09.09,0,0,0-.09.09A.09.09,0,0,0,9.23,0V4.52l-.88.88v1L9,7.11v1L8.1,9v2.32l1,1v1.53l-.83.82V18l-.42.42v2.1a.08.08,0,0,0-.07.08.09.09,0,1,0,.18,0Z"/><path class="cls-24" d="M7.32,10.62V10.2l.45-.46V8L7.37,7.6V6.67l.49-.49V4.68L9,3.54V.1A.1.1,0,0,0,9.08,0,.1.1,0,0,0,9-.08.09.09,0,0,0,8.89,0,.1.1,0,0,0,9,.1V3.51L7.81,4.66v1.5l-.49.49v1L7.73,8V9.72l-.45.46v.46l.37.38v2.31l-.94.94V16l.69.68v1.5a.1.1,0,0,0-.07.09.09.09,0,1,0,.18,0,.1.1,0,0,0-.07-.09V16.62l-.69-.68V14.29l.94-.94V11Z"/><path class="cls-25" d="M8.42,12.34a.1.1,0,0,0,.06-.09.1.1,0,0,0-.09-.1.09.09,0,0,0-.09.1.11.11,0,0,0,.07.09v.75L7.21,14.25V15.7l.48.48v1.66a.1.1,0,0,0-.07.09.09.09,0,1,0,.18,0,.1.1,0,0,0-.06-.09V16.16l-.48-.48V14.27l1.16-1.16Z"/><path class="cls-26" d="M8.6,13.64a.09.09,0,1,0-.13-.13.09.09,0,0,0,0,.11l-.91.9v1l.47.46v1.61a.1.1,0,0,0-.06.09.09.09,0,1,0,.18,0,.1.1,0,0,0-.07-.09V15.91l-.46-.46v-.91l.89-.89A.09.09,0,0,0,8.6,13.64Z"/><path class="cls-27" d="M5.66,1.57,4.74.65a.09.09,0,0,0,0-.11.09.09,0,0,0-.13,0,.09.09,0,0,0,0,.13.09.09,0,0,0,.11,0l.91.91V4.8L6.73,5.92a.09.09,0,0,0,0,.11.09.09,0,0,0,.13-.13.09.09,0,0,0-.11,0L5.66,4.78Z"/><path class="cls-28" d="M7.93-1V0L7.48.43v1L8,2V3.27l-.9.9V5.55A.1.1,0,0,0,7,5.64a.09.09,0,1,0,.18,0,.1.1,0,0,0-.07-.09V4.19l.9-.9V2l-.52-.52v-1L8,0V-1l.86-.86a.09.09,0,0,0,.11,0A.1.1,0,0,0,9-2a.09.09,0,0,0-.13,0,.09.09,0,0,0,0,.11Z"/><path class="cls-29" d="M6.2,3.4l.67-.67v-.8L6.24,1.3V.4L5.78-.07a.09.09,0,0,0,0-.11.12.12,0,0,0-.14,0,.1.1,0,0,0,0,.13.09.09,0,0,0,.11,0l.45.45v.9L6.82,2v.76l-.67.66V4.61l.5.49a.09.09,0,0,0,.14.12.1.1,0,0,0,0-.14.09.09,0,0,0-.11,0L6.2,4.59Z"/><path class="cls-30" d="M5.9,2.14a.09.09,0,0,0-.07.09.09.09,0,1,0,.18,0A.09.09,0,0,0,6,2.14V.78l-1-1a.09.09,0,0,0,0-.11.1.1,0,0,0-.13,0,.09.09,0,0,0,0,.13.09.09,0,0,0,.11,0l1,1Z"/><path class="cls-31" d="M6.64,0V1l.47.47V3.39l-.4.39v.76a.09.09,0,0,0-.06.09.09.09,0,1,0,.18,0,.1.1,0,0,0-.07-.09V3.81l.4-.4V1.46L6.69,1V0L5.32-1.36a.09.09,0,0,0,0-.11.1.1,0,0,0-.13,0,.09.09,0,0,0,0,.13.09.09,0,0,0,.11,0Z"/><path class="cls-32" d="M7.12,3.69a.1.1,0,0,0,0,.13.09.09,0,0,0,.13,0,.09.09,0,0,0,0-.11l.38-.38V2.28a.08.08,0,0,0,.07-.08.09.09,0,1,0-.18,0,.08.08,0,0,0,.06.08v1l-.37.37A.09.09,0,0,0,7.12,3.69Z"/><path class="cls-33" d="M11.12-1a.08.08,0,0,0,.06.09V.33l-.26.26v1.5L9.8,3.21V4.33a.08.08,0,0,0-.07.08.09.09,0,0,0,.09.1.09.09,0,0,0,.1-.1.08.08,0,0,0-.07-.08V3.23L11,2.12V.61l.26-.26V-.94A.08.08,0,0,0,11.3-1a.09.09,0,0,0-.09-.1A.09.09,0,0,0,11.12-1Z"/><path class="cls-34" d="M10.6-1.87a.1.1,0,0,0,.07.09V.29l-.23.22V1.75l-1,1V4a.08.08,0,0,0-.07.08.1.1,0,0,0,.1.1.09.09,0,0,0,.09-.1A.08.08,0,0,0,9.52,4V2.74l1-1V.53l.23-.22V-1.78a.1.1,0,0,0,.07-.09A.09.09,0,0,0,10.7-2,.1.1,0,0,0,10.6-1.87Z"/><path class="cls-35" d="M10.43-.41a.09.09,0,0,0,0-.13.09.09,0,0,0-.13,0,.09.09,0,0,0,0,.11L9.69.15V1.62a.1.1,0,0,0-.07.09.1.1,0,0,0,.1.09.09.09,0,0,0,.09-.09.1.1,0,0,0-.07-.09V.17l.58-.57A.09.09,0,0,0,10.43-.41Z"/><path class="cls-36" d="M7.31,19.59V17.86h0V13.8L6.47,13V10.3l.21-.21a.12.12,0,0,0,.15,0,.13.13,0,0,0-.18-.18.14.14,0,0,0,0,.15l-.23.24v2.6l-.48-.48a.14.14,0,0,0,0-.15.13.13,0,0,0-.18.18.14.14,0,0,0,.15,0l1.38,1.38v2.25l-.61-.61v-.93a.14.14,0,0,0,.1-.13.13.13,0,0,0-.26,0,.14.14,0,0,0,.1.13v1l.68.67v1.62L5.7,16.24V13.39l-1-1v-1l.89-.89V9.17h0l.48-.47V6.88a.12.12,0,0,0,.09-.12.13.13,0,0,0-.13-.13.12.12,0,0,0-.12.13A.12.12,0,0,0,6,6.88V8.67l-.41.4V6.32a.12.12,0,0,0,.09-.12.13.13,0,0,0-.13-.13.12.12,0,0,0-.12.13.11.11,0,0,0,.09.12V10.5l-.83.82V4.45a.13.13,0,0,0,.09-.12A.12.12,0,0,0,4.7,4.2a.13.13,0,0,0-.13.13.13.13,0,0,0,.09.12v8l1,1v2.85l.86.87V18l-.33.34a.14.14,0,0,0-.16,0,.13.13,0,1,0,.18.18.12.12,0,0,0,0-.15l.36-.36v-.85l.68.67v1.74l1.19,1.2v1.12l.37.37v3a.14.14,0,0,0-.1.13.13.13,0,0,0,.26,0,.14.14,0,0,0-.1-.13v-3l-.37-.36V20.79Z"/><path class="cls-37" d="M6.58,5.7,6,5.15V2a.12.12,0,0,0,.1-.12.13.13,0,1,0-.26,0A.12.12,0,0,0,6,2V5.18l.62.62h0V8.67L7.75,9.84v1.57L7.18,12A.14.14,0,0,0,7,12a.13.13,0,1,0,.18.18.11.11,0,0,0,0-.15l.6-.59V9.9l.95,1v5.76l1.52,1.51v3.35h.06V18.1L8.83,16.59V14h0l.64-.63V10L7.38,7.91V7.16l.76-.75V1.54L8.8.88A.12.12,0,0,0,9,.86.14.14,0,0,0,9,.68a.13.13,0,0,0-.18,0,.14.14,0,0,0,0,.16l-.68.68V6.38l-.69.69V5a.12.12,0,0,0,.09-.12.12.12,0,0,0-.12-.13.13.13,0,0,0-.13.13A.12.12,0,0,0,7.31,5V7.94L9.4,10v3.31l-.57.56V10.83L6.65,8.64V.57a.14.14,0,0,0,.1-.13.13.13,0,0,0-.26,0,.14.14,0,0,0,.1.13Z"/><path class="cls-38" d="M7.88,25.75a.12.12,0,0,0,0-.15L8.51,25V23.66L7.82,23V21.68L6.68,20.54v-1a.12.12,0,0,0,.09-.12.12.12,0,0,0-.12-.13.13.13,0,0,0-.13.13.12.12,0,0,0,.09.12v1l1.14,1.14V22.9L5.91,21.05v-1.9l-.8-.8V15.47l-.6-.6V13.22L4.31,13a.14.14,0,0,0,0-.15.13.13,0,0,0-.18.18.12.12,0,0,0,.15,0l.19.19v.88L3.28,13v-.83L4,11.41V10a.13.13,0,0,0,.1-.12.13.13,0,0,0-.26,0,.13.13,0,0,0,.1.12v1.4L3.28,12V9.81L4,9.07V3.75l.4-.41a.12.12,0,0,0,.15,0,.13.13,0,0,0-.18-.18.12.12,0,0,0,0,.15L4,3.72v4L2.84,6.66v-5L2,.83A.12.12,0,0,0,2,.68a.13.13,0,1,0-.18.18A.12.12,0,0,0,2,.88l.82.82v5L4,7.87V9l-.74.74V13l1.24,1.23v.68l.6.6v2.78L3.89,17.12V14.59A.14.14,0,0,0,4,14.47a.13.13,0,0,0-.13-.13.12.12,0,0,0-.12.13.14.14,0,0,0,.09.12v2.56l2,2v1.9l2.6,2.6V25l-.59.59a.12.12,0,0,0-.15,0,.13.13,0,0,0,.18.18Z"/></g></g><path class="cls-5" d="M19.71,12.78a4,4,0,0,1-1.46.44c-.52,0-1,.08-1.37.08a3.42,3.42,0,0,1-2.07-.64,2.45,2.45,0,0,1-.89-2.12,2.3,2.3,0,0,1,.81-2,4.68,4.68,0,0,1,2.06-.78,2.08,2.08,0,0,0,.39,0,3.51,3.51,0,0,1,.53-.08c1-.14,1.44-.42,1.45-.86a.63.63,0,0,0-.51-.64A3.44,3.44,0,0,0,17.71,6a2.56,2.56,0,0,0-.82.13.87.87,0,0,0-.53.5h-2.2A2.47,2.47,0,0,1,15.08,5a3.75,3.75,0,0,1,2.53-.76,4.9,4.9,0,0,1,2.76.63,2.11,2.11,0,0,1,1,1.84v3a3.76,3.76,0,0,1-.48,2.06A2.88,2.88,0,0,1,19.71,12.78Zm-.52-4a5.84,5.84,0,0,1-1.29.43l-.75.16a1.91,1.91,0,0,0-.86.43,1.36,1.36,0,0,0-.23.72,1.06,1.06,0,0,0,.3.79,1.2,1.2,0,0,0,.85.27A2,2,0,0,0,18.66,11a2,2,0,0,0,.53-1.45Z"/><path class="cls-5" d="M27.44,12.62v-.56a2.54,2.54,0,0,1-1.6,1.15,3.25,3.25,0,0,1-2-.17,3.7,3.7,0,0,1-1.69-1.46,4.94,4.94,0,0,1-.7-2.81,5.41,5.41,0,0,1,.94-3.31,3.49,3.49,0,0,1,3-1.26,5.35,5.35,0,0,1,2.92.86,3.44,3.44,0,0,1,1.35,3.15v4.64A3.4,3.4,0,0,1,28.32,16a5.42,5.42,0,0,1-2.92.84A3.48,3.48,0,0,1,21.65,14h2.4a1.75,1.75,0,0,0,.8.71,1.81,1.81,0,0,0,1.09.13,1.83,1.83,0,0,0,1-.64A2.76,2.76,0,0,0,27.44,12.62ZM23.69,8.83c0,1.52.44,2.36,1.31,2.52A1.8,1.8,0,0,0,27,10.74a2.41,2.41,0,0,0,.42-1.13,4.62,4.62,0,0,0,0-1.53,3.08,3.08,0,0,0-.54-1.35,1.45,1.45,0,0,0-1.25-.59A1.51,1.51,0,0,0,24.09,7,4.18,4.18,0,0,0,23.69,8.83Z"/><path class="cls-5" d="M30.07,13.15V8.91a5.46,5.46,0,0,1,.38-2.16,3.55,3.55,0,0,1,1-1.4A4.25,4.25,0,0,1,33,4.63a6.68,6.68,0,0,1,1.73-.23H35V6.74h-.76a1.89,1.89,0,0,0-1.41.46,2,2,0,0,0-.47,1.44v4.51Z"/><path class="cls-5" d="M36.32,12.36a3.24,3.24,0,0,1-1-1.59A7.28,7.28,0,0,1,35,8.68a6.43,6.43,0,0,1,.25-1.78,3.66,3.66,0,0,1,.77-1.48,3.43,3.43,0,0,1,2.2-1.16,5.15,5.15,0,0,1,2.44.21,3.37,3.37,0,0,1,1.84,1.72,5.33,5.33,0,0,1,.55,2.53,6.08,6.08,0,0,1-.23,1.81,4.6,4.6,0,0,1-.59,1.28,3.35,3.35,0,0,1-2,1.35,4.47,4.47,0,0,1-2.18,0A3.67,3.67,0,0,1,36.32,12.36ZM37.9,6.58a3,3,0,0,0-.63,2.25,3.64,3.64,0,0,0,.56,2.09,1.5,1.5,0,0,0,.69.44,1.63,1.63,0,0,0,1,0,1.71,1.71,0,0,0,.91-.74,3.73,3.73,0,0,0,.43-1.91A3.39,3.39,0,0,0,40.48,7a1.7,1.7,0,0,0-.87-.75,1.6,1.6,0,0,0-1,0A1.61,1.61,0,0,0,37.9,6.58Z"/><path class="cls-5" d="M49.25,1.82h1.12a1.06,1.06,0,0,1,.79.34,1.1,1.1,0,0,1,.33.78V9.35c0,1.56-.45,2.61-1.35,3.16a5.61,5.61,0,0,1-2.93.82A5,5,0,0,1,45.53,13a2.7,2.7,0,0,1-1.32-.9,5.22,5.22,0,0,1-1-3.32,5.3,5.3,0,0,1,1-3.32,3,3,0,0,1,2.53-1.28,3.07,3.07,0,0,1,1.45.33,3.2,3.2,0,0,1,1,1ZM45.5,8.72a3.43,3.43,0,0,0,.49,2,1.63,1.63,0,0,0,1.41.69,1.6,1.6,0,0,0,1.38-.69,3.6,3.6,0,0,0,.46-2,3.07,3.07,0,0,0-.49-1.87,1.71,1.71,0,0,0-1.41-.66A1.57,1.57,0,0,0,46,6.88,3,3,0,0,0,45.5,8.72Z"/><path class="cls-5" d="M57.46,12.81a4,4,0,0,1-1.46.44c-.52.05-1,.08-1.37.08a3.44,3.44,0,0,1-2.07-.64,2.45,2.45,0,0,1-.88-2.12,2.32,2.32,0,0,1,.8-2,4.72,4.72,0,0,1,2.06-.78,2.08,2.08,0,0,0,.39,0,3.71,3.71,0,0,1,.53-.08c1-.14,1.45-.42,1.45-.86a.62.62,0,0,0-.51-.64A3.33,3.33,0,0,0,55.46,6a2.56,2.56,0,0,0-.82.13.9.9,0,0,0-.53.5h-2.2A2.55,2.55,0,0,1,52.83,5a3.78,3.78,0,0,1,2.54-.76,4.94,4.94,0,0,1,2.76.63,2.12,2.12,0,0,1,.95,1.84v3a3.76,3.76,0,0,1-.48,2.06A3,3,0,0,1,57.46,12.81Zm-.52-4.05a5.73,5.73,0,0,1-1.28.43l-.76.16a2,2,0,0,0-.86.43,1.36,1.36,0,0,0-.23.72,1.06,1.06,0,0,0,.3.79,1.22,1.22,0,0,0,.85.27,1.83,1.83,0,0,0,2-2Z"/><path class="cls-5" d="M63.28,13.17a15.55,15.55,0,0,1-2.35,0c-.84-.07-1.26-.6-1.26-1.61V1.86h1.19a1.06,1.06,0,0,1,.76.33,1.1,1.1,0,0,1,.32.79V4.46h1.35v.46a1,1,0,0,1-.33.8,1.1,1.1,0,0,1-.79.32h-.23V10.9c0,.38.22.56.65.56h.7Z"/><path class="cls-8" d="M70.34-.08h2.17l4.83,13.3h-2.9l-.89-2.74H68.37l-.85,2.74h-2.9L69,.81A1.3,1.3,0,0,1,70.34-.08ZM71,2.59,69.1,8.24h3.72Z"/><path class="cls-8" d="M78.19-.08h1.39a1.27,1.27,0,0,1,.93.39,1.27,1.27,0,0,1,.39.93v.81H78.19Zm0,3h1.39a1.3,1.3,0,0,1,.93.38,1.27,1.27,0,0,1,.39.93v9H78.19Z"/></g></g></svg>